<svg width="93" height="88" viewBox="0 0 93 88" fill="none" xmlns="http://www.w3.org/2000/svg">
<path opacity="0.18" d="M92.5443 71.6734C90.3427 81.205 80.033 86.8002 70.3063 87.7688C69.0073 87.8991 67.7052 87.9702 66.4062 87.9909C59.0852 88.1183 51.7584 86.7587 44.4109 86.2285C43.3012 86.1486 42.1915 86.0864 41.0818 86.0538C30.6124 85.7309 19.1546 87.5703 10.4576 81.7234C3.59833 77.1146 0.236745 68.5337 0.014809 60.2728C-0.207127 52.0119 2.2756 43.9346 5.01576 36.1387C20 29.7024 -2.61587 18.3901 5.01576 11C11.8958 4.34446 35.995 -0.814752 45.3815 0.210088C54.1316 1.16384 63.16 1.57259 71.8244 2.74849C84.2202 4.43089 94.2991 7.09529 92.5443 19.5C91.8933 24.1088 82.8581 31.4914 82.5 36.1387C81.7573 45.694 94.7015 62.3225 92.5443 71.6734Z" fill="#303960"/>
<path d="M66.4065 87.9882C59.0855 88.1155 51.7587 86.756 44.4111 86.2258C44.7248 85.041 45.0375 83.8493 45.3492 82.6507C45.9085 80.527 46.1363 80.524 48.2669 80.9357C52.0879 81.6707 55.9869 81.9156 59.8697 81.6643C60.3757 81.6318 65.4743 81.2615 65.4921 80.9505C65.4251 83.3299 65.7337 85.705 66.4065 87.9882V87.9882Z" fill="#080608"/>
<path d="M44.8871 38.9706C45.9405 41.3194 47.6391 43.8697 50.2135 44.0059C51.6487 44.077 53.0129 43.3306 54.0841 42.3709C57.0077 39.7496 58.1411 35.668 58.5583 31.7612C58.7714 29.7737 58.7951 27.6144 57.6943 25.9498C56.5934 24.2852 54.6937 23.4913 52.8087 23.0174C49.0092 22.0607 43.4874 22.6916 41.996 27.0694C40.8212 30.4905 43.5259 35.9346 44.8871 38.9706Z" fill="#FFA68C"/>
<path d="M56.8628 32.4868C56.8628 32.472 56.8628 32.4572 56.8628 32.4424V32.478C56.8628 32.552 56.8806 32.629 56.8865 32.709C56.8723 32.6356 56.8624 32.5614 56.8569 32.4868H56.8628Z" fill="#32406A"/>
<path d="M59.6208 29.0095C59.5557 29.2257 59.4876 29.439 59.4196 29.6522C59.0941 30.6652 58.7676 31.6782 58.4401 32.6912C58.2821 32.1045 57.9765 31.568 57.5523 31.1332C57.4603 31.0364 57.3614 30.9463 57.2564 30.8637C56.9602 31.3345 56.8214 31.8874 56.8599 32.4424C56.6705 31.3139 55.7384 30.4164 54.7885 29.7411C53.7676 29.0124 52.6165 28.3579 51.9892 27.2708C51.8826 27.0334 51.7308 26.8192 51.5423 26.6399C51.277 26.4755 50.9652 26.4026 50.6546 26.4326C50.119 26.4326 49.5567 26.4977 49.0093 26.5126C48.2074 26.5303 47.4321 26.4592 46.7899 26.0061C46.5069 25.7528 46.2008 25.5267 45.8756 25.3307C45.2837 25.073 44.6091 25.2774 44.0616 25.6003C43.5062 25.932 43.0245 26.3741 42.6464 26.8993C42.2683 27.4245 42.0016 28.0217 41.863 28.6541C41.6884 29.4923 41.6884 30.4845 41.0166 31.0236C40.4544 31.4679 39.5992 31.3731 39.0222 30.9496C38.4685 30.4881 38.0834 29.8557 37.9273 29.1517C37.7764 28.5859 37.6847 27.9669 37.2733 27.5433C36.791 27.0576 36.0334 27.019 35.3943 26.7673C34.7954 26.5299 34.2952 26.0952 33.9763 25.535C33.6574 24.9748 33.5389 24.3225 33.6403 23.6857C33.7416 23.049 34.0569 22.4659 34.5339 22.0326C35.0109 21.5993 35.6213 21.3418 36.2643 21.3025C37.2792 21.2403 38.383 21.7082 39.2648 21.2047C41.5167 19.9163 43.3307 17.5822 46.2455 18.0946C47.7753 18.3642 49.2667 19.0395 50.8085 18.8796C51.4979 18.8085 52.1637 18.5686 52.8532 18.5182C54.9453 18.3671 56.9546 20.2569 56.9309 22.354C58.4283 22.1822 59.7392 23.5387 60.0647 25.0197C60.0647 25.0553 60.0824 25.0878 60.0883 25.1234C60.328 26.4178 60.0144 27.7358 59.6208 29.0095Z" fill="#010101"/>
<path d="M59.822 30.3542C59.971 30.8221 59.9813 31.3231 59.8516 31.7967C59.7157 32.4924 59.5115 33.173 59.242 33.8286C58.9964 34.421 58.6502 35.043 58.0317 35.2415C57.9425 35.2763 57.8467 35.2911 57.7511 35.285C57.6555 35.2789 57.5624 35.2519 57.4783 35.2059C56.6705 34.6817 56.7504 32.478 57.0759 31.6516C57.428 30.76 59.0615 28.4882 59.822 30.3542Z" fill="#FFA68C"/>
<path d="M50.0569 31.6693C49.611 31.9085 49.1155 32.0403 48.6098 32.0544C48.018 32.0544 46.7811 30.9555 47.6718 31.0858C48.0298 31.1362 48.4471 31.536 48.8377 31.6308C49.1484 31.7108 49.7313 31.8174 50.0569 31.6693Z" fill="#32406A"/>
<path d="M43.7275 33.2214C44.0938 33.2866 44.4713 33.2327 44.8047 33.0674C45.1775 32.8512 45.6096 31.4087 45.0739 31.8411C44.8609 32.0159 44.7307 32.5313 44.5088 32.7564C44.2868 32.9815 43.985 33.2481 43.7275 33.2214Z" fill="#32406A"/>
<path d="M44.9495 34.1396C45.0932 34.0912 45.2422 34.0604 45.3933 34.0478C45.5294 34.0264 45.6685 34.0335 45.8017 34.0685C45.8698 34.0856 45.9326 34.1194 45.9843 34.167C46.036 34.2146 46.075 34.2745 46.0976 34.341C45.6811 34.2423 45.2443 34.2733 44.8459 34.4299C44.6118 34.542 44.4048 34.7037 44.2393 34.9038C44.2843 34.7271 44.373 34.5646 44.497 34.4311C44.6211 34.2976 44.7767 34.1974 44.9495 34.1396V34.1396Z" fill="#32406A"/>
<path d="M49.1427 33.2747C49.2868 33.2236 49.437 33.1918 49.5895 33.1799C49.7248 33.1596 49.8629 33.1676 49.9949 33.2036C50.0628 33.2201 50.1255 33.2535 50.1772 33.3006C50.2289 33.3477 50.268 33.407 50.2908 33.4732C49.8743 33.3745 49.4375 33.4055 49.0391 33.562C48.8097 33.675 48.6077 33.8367 48.4473 34.0359C48.4904 33.861 48.5766 33.6997 48.6981 33.5667C48.8196 33.4337 48.9724 33.3333 49.1427 33.2747V33.2747Z" fill="#32406A"/>
<path d="M46.6391 36.3848C46.4734 36.6543 46.2456 36.9387 46.3136 37.2497C46.3511 37.3671 46.4173 37.4733 46.5062 37.5587C46.5951 37.644 46.7038 37.7058 46.8226 37.7384C47.0534 37.8184 47.3049 37.8332 47.5417 37.8924C47.7406 37.9436 47.9324 38.0193 48.1128 38.1175C48.1631 38.0079 48.0714 37.8865 47.9678 37.8213C47.8576 37.7756 47.7572 37.7092 47.6719 37.6258C47.5269 37.4333 47.6719 37.1312 47.5298 36.9327C47.4292 36.7876 47.2339 36.7639 47.0771 36.6662C46.9827 36.5996 46.9062 36.5107 46.8546 36.4073C46.8029 36.3039 46.7777 36.1893 46.7812 36.0738C46.7774 35.9024 46.8182 35.733 46.8995 35.5821C46.9735 35.8191 46.7812 36.1538 46.6391 36.3848Z" fill="#EB737F"/>
<path d="M49.311 39.1157C48.7531 39.2873 48.1771 39.3937 47.5947 39.4327C47.5373 39.4307 47.4809 39.4484 47.4349 39.483C47.355 39.5571 47.4113 39.6874 47.4349 39.794C47.4709 39.9513 47.4976 40.1105 47.5148 40.2709C47.5255 40.3521 47.5589 40.4286 47.6113 40.4916C47.6637 40.5545 47.7329 40.6012 47.8107 40.6263C47.9654 40.6373 48.1185 40.5897 48.2398 40.493C48.6118 40.288 49.0315 40.1857 49.456 40.1968C49.5528 40.1943 49.6488 40.2135 49.7371 40.2531C49.8072 40.2956 49.8726 40.3452 49.9325 40.4012C50.0401 40.4881 50.1665 40.5486 50.3016 40.5779C50.4367 40.6072 50.5768 40.6045 50.7107 40.57C50.6551 40.5041 50.5879 40.4488 50.5124 40.4071C50.1525 40.2035 49.8749 39.8805 49.7274 39.4939C49.5799 39.1073 49.5718 38.6813 49.7046 38.2893C49.6454 38.627 49.6513 39.0032 49.311 39.1157Z" fill="#32406A"/>
<path d="M48.9326 39.4119C48.838 39.4693 48.754 39.5424 48.684 39.6281C48.6361 39.6985 48.5982 39.7753 48.5716 39.8562L48.4443 40.1761C48.5961 40.1884 48.7488 40.1713 48.8941 40.1257C49.1193 40.0775 49.3478 40.0468 49.5777 40.0339C49.6073 40.0339 49.6428 40.0339 49.6576 40.0013C49.6634 39.9893 49.6664 39.9762 49.6664 39.9628C49.6664 39.9495 49.6634 39.9363 49.6576 39.9243C49.6102 39.8059 49.5392 39.6992 49.4889 39.5867C49.4386 39.4741 49.4889 39.2549 49.3558 39.2223C49.2226 39.1898 49.0243 39.3349 48.9326 39.4119Z" fill="#EB737F"/>
<path d="M47.3761 50.2409C48.4887 53.5673 48.3466 57.1864 46.9766 60.4152C46.7215 61.0974 46.317 61.7137 45.793 62.219C45.2779 62.6163 44.7037 62.9301 44.0915 63.1491C38.3182 65.6075 32.2312 71.721 25.4281 69.7898C24.3421 69.4936 23.268 68.919 22.6791 67.9564C22.4704 67.6066 22.3223 67.2241 22.2411 66.8249C22.1395 66.3112 22.1027 65.7868 22.1316 65.2639C22.3033 61.1172 24.9251 57.5332 26.6769 53.7626C27.8369 51.2716 28.6418 48.6118 29.7722 46.1208C30.1918 45.1789 30.6763 44.2674 31.2221 43.3928C31.3608 43.0562 31.6186 42.7825 31.9461 42.6241C32.2736 42.4656 32.6479 42.4335 32.9976 42.5338C34.1071 42.6666 35.1986 42.9209 36.2527 43.2921C36.3148 45.6617 35.3649 47.9216 34.6932 50.1935C33.9173 52.8227 33.4983 55.5445 33.4474 58.2856C37.4703 56.5832 41.177 54.2129 44.411 51.2746C45.8699 49.9476 48.2579 47.6876 48.3171 51.1798C48.3585 53.3894 47.3968 55.762 46.0741 57.4917C45.4553 58.2676 44.7839 58.9999 44.0648 59.6836L41.2803 62.453C39.1142 64.6094 36.9096 66.7923 34.2553 68.3088C34.1763 68.3562 34.0964 68.4007 34.0156 68.4421" fill="#68E1FD"/>
<path d="M47.3761 50.2409C48.4887 53.5673 48.3466 57.1864 46.9766 60.4152C46.7215 61.0974 46.317 61.7137 45.793 62.219C45.2779 62.6163 44.7037 62.9301 44.0915 63.1491C38.3182 65.6075 32.2312 71.721 25.4281 69.7898C24.3421 69.4936 23.268 68.919 22.6791 67.9564C22.4704 67.6066 22.3223 67.2241 22.2411 66.8249C22.1395 66.3112 22.1027 65.7868 22.1316 65.2639C22.3033 61.1172 24.9251 57.5332 26.6769 53.7626C27.8369 51.2716 28.6418 48.6118 29.7722 46.1208C30.1918 45.1789 30.6763 44.2674 31.2221 43.3928C31.3608 43.0562 31.6186 42.7825 31.9461 42.6241C32.2736 42.4656 32.6479 42.4335 32.9976 42.5338C34.1071 42.6666 35.1986 42.9209 36.2527 43.2921C36.3148 45.6617 35.3649 47.9216 34.6932 50.1935C33.9173 52.8227 33.4983 55.5445 33.4474 58.2856C37.4703 56.5832 41.177 54.2129 44.411 51.2746C45.8699 49.9476 48.2579 47.6876 48.3171 51.1798C48.3585 53.3894 47.3968 55.762 46.0741 57.4917C45.4553 58.2676 44.7839 58.9999 44.0648 59.6836L41.2803 62.453C39.1142 64.6094 36.9096 66.7923 34.2553 68.3088C34.1763 68.3562 34.0964 68.4007 34.0156 68.4421" fill="url(#paint0_linear)"/>
<path d="M47.2695 70.0683C47.0683 73.282 45.855 76.3891 45.8373 79.6087C45.7922 80.1109 45.9061 80.6145 46.1628 81.0483C46.4587 81.4748 46.9884 81.6762 47.4826 81.8421C52.6608 83.5734 58.2096 83.8753 63.5448 82.7158C64.2047 82.5707 64.8912 82.3871 65.3795 81.9191C65.8036 81.4477 66.0875 80.867 66.1992 80.2426C66.8147 77.7042 66.5335 75.0444 66.1992 72.4526C65.1309 63.9677 63.6217 55.5443 61.6776 47.2167C61.5089 46.491 61.3225 45.7357 60.8431 45.164C60.0589 44.2221 58.6474 44.0148 57.4638 44.3347C54.0548 45.2559 48.1365 49.7018 46.87 53.2028C44.9466 58.5373 47.6098 64.636 47.2695 70.0683Z" fill="#68E1FD"/>
<path d="M47.2695 70.0683C47.0683 73.282 45.855 76.3891 45.8373 79.6087C45.7922 80.1109 45.9061 80.6145 46.1628 81.0483C46.4587 81.4748 46.9884 81.6762 47.4826 81.8421C52.6608 83.5734 58.2096 83.8753 63.5448 82.7158C64.2047 82.5707 64.8912 82.3871 65.3795 81.9191C65.8036 81.4477 66.0875 80.867 66.1992 80.2426C66.8147 77.7042 66.5335 75.0444 66.1992 72.4526C65.1309 63.9677 63.6217 55.5443 61.6776 47.2167C61.5089 46.491 61.3225 45.7357 60.8431 45.164C60.0589 44.2221 58.6474 44.0148 57.4638 44.3347C54.0548 45.2559 48.1365 49.7018 46.87 53.2028C44.9466 58.5373 47.6098 64.636 47.2695 70.0683Z" fill="url(#paint1_linear)"/>
<path d="M45.2602 65.2403C44.7985 66.7953 43.9581 68.2022 43.2687 69.6832C42.2484 71.8495 41.5505 74.1537 41.1973 76.5224C43.9697 75.7255 46.9066 75.6989 49.693 76.4454L50.7139 62.6011C51.0735 57.0186 52.1833 51.5101 54.0133 46.2244C50.0569 44.8767 48.2815 47.895 47.6896 51.1413C46.8581 55.7027 46.574 60.8417 45.2602 65.2403Z" fill="#68E1FD"/>
<path d="M54.0137 46.2244C53.9663 46.3577 53.922 46.494 53.8776 46.6273C53.3982 48.0342 52.9898 49.4174 52.6229 50.8007C51.6253 54.6665 50.9903 58.6172 50.7261 62.6011L49.7052 76.4365C46.9192 75.6877 43.982 75.7133 41.2095 76.5105C41.5631 74.1419 42.261 71.8378 43.2809 69.6714C43.9704 68.2052 44.8108 66.7953 45.2724 65.2284C46.5152 61.0817 46.8348 56.2507 47.5716 51.8996L47.7048 51.1443C47.764 50.8184 47.835 50.4926 47.9208 50.1757C48.6636 47.3322 50.4509 45.013 54.0137 46.2244Z" fill="url(#paint2_linear)"/>
<path d="M56.0696 38.9765C55.5133 40.653 54.9451 42.4805 53.5099 43.5113C52.1813 44.465 50.3999 44.5035 48.7753 44.234C48.0296 44.1066 47.2543 43.9378 46.5352 44.1511C45.8162 44.3643 45.2155 45.2026 45.541 45.8868C45.8369 46.5118 46.7246 46.7043 46.9702 47.353C47.1537 47.8417 46.8874 48.3808 46.9111 48.9021C46.9584 49.8588 48.0326 50.5134 48.9825 50.4156C49.9323 50.3179 50.7579 49.6751 51.403 48.9761C52.0481 48.2771 52.637 47.4951 53.4212 46.9383C54.6729 46.0497 56.2679 45.8986 57.7741 45.6439C59.2803 45.3892 60.893 44.9271 61.7926 43.6949C62.3844 42.8685 62.4614 41.4883 61.5618 41.0055C61.3685 40.9358 61.1906 40.8292 61.038 40.6915C60.7835 40.3953 61.0025 39.9243 61.0587 39.5274C61.2304 38.3604 59.7508 37.7888 58.8837 37.4274C57.3243 36.7728 56.5667 37.4511 56.0696 38.9765Z" fill="#68E1FD"/>
<path d="M35.0187 45.8601C34.5216 46.6362 33.6131 47.0182 32.8585 47.5425C32.1872 48.016 31.6185 48.6205 31.1866 49.3197C28.3431 53.9627 26.2611 59.0316 25.0198 64.3339C24.9305 64.8711 24.7365 65.3854 24.4487 65.8475C23.9426 66.5435 23.123 66.7953 22.2411 66.8368C22.1395 66.3231 22.1027 65.7987 22.1316 65.2758C22.3033 61.129 24.9251 57.5451 26.6769 53.7745C27.8369 51.2835 28.6418 48.6236 29.7722 46.1326C31.6127 45.4395 33.5599 45.1167 35.3738 43.997C35.4811 44.6406 35.3552 45.3013 35.0187 45.8601Z" fill="url(#paint3_linear)"/>
<path d="M31.87 37.9309C31.9151 37.6505 32.0256 37.3846 32.1926 37.1549C32.4312 36.9217 32.7307 36.7606 33.0566 36.6899C34.3154 36.3062 35.6142 36.0686 36.9272 35.982C37.5489 35.894 38.1827 35.9833 38.7559 36.2396C39.765 36.7876 40.0373 38.085 40.2 39.2224C40.2492 39.4311 40.24 39.6494 40.1734 39.8533C40.021 40.0954 39.7978 40.2847 39.5342 40.3953C38.7874 40.8425 38.2249 41.5421 37.9481 42.368C37.875 42.7226 37.7277 43.0577 37.5161 43.3513C37.2747 43.5795 36.9599 43.714 36.6283 43.7305C35.5837 43.8401 34.6309 43.3188 33.613 43.2032C32.9383 43.1262 31.6599 43.4994 31.1953 42.8656C30.6065 42.0392 31.6599 38.8432 31.87 37.9309Z" fill="#FFA68C"/>
<path d="M36.2639 44.2606C33.5149 46.0378 30.1533 46.9471 27.8925 49.3197C26.265 51.0258 25.2973 53.4102 23.4538 54.7963C23.2528 54.9462 23.0423 55.0827 22.8235 55.2051C22.1873 55.5635 21.3114 55.7531 20.7817 55.2525C20.3852 54.8793 20.323 54.2484 19.9295 53.8781C18.9263 52.9333 17.2988 54.5357 15.982 54.1329C14.7983 53.7685 14.6918 52.095 15.0557 50.9014C15.4197 49.7077 15.9938 48.357 15.3517 47.2878C14.6089 46.0467 12.5286 45.8068 12.283 44.3821C12.2802 44.3585 12.2802 44.3346 12.283 44.311C12.1883 43.535 12.7742 42.7915 13.4874 42.4539C14.2005 42.1162 15.0617 42.0925 15.8754 42.0718C20.2239 41.9659 24.5607 41.572 28.8572 40.8929C30.6327 40.6145 37.418 38.3308 37.9477 41.6719C38.1164 42.7589 37.1753 43.6683 36.2639 44.2606Z" fill="white"/>
<path d="M33.2697 42.6197C32.9531 44.1007 31.4173 44.9093 30.0916 45.6291C28.7282 46.366 27.4216 47.2036 26.1826 48.1349C25.6499 48.5377 25.067 49.1331 25.2682 49.7699C25.3333 49.9832 25.4812 50.1639 25.5315 50.3771C25.5697 50.7196 25.4836 51.0644 25.2889 51.3486L23.9306 53.9255C23.7768 54.2217 23.617 54.5179 23.4483 54.8141C23.2473 54.964 23.0368 55.1005 22.818 55.2229C22.1818 55.5813 21.3059 55.7708 20.7762 55.2703C20.3797 54.8971 20.3175 54.2662 19.924 53.8959C18.9208 52.9511 17.2933 54.5535 15.9765 54.1507C14.7928 53.7863 14.6863 52.1128 15.0502 50.9192C15.4142 49.7255 15.9883 48.3748 15.3462 47.3056C14.6034 46.0645 12.5231 45.8246 12.2775 44.3999C12.2747 44.3763 12.2747 44.3524 12.2775 44.3288C12.9468 44.4029 13.6076 44.5398 14.2513 44.7375C15.6717 45.0989 19.5126 44.8234 19.7671 46.8613C19.8707 47.6847 19.2167 48.5288 19.5186 49.3049C19.918 49.7018 20.6312 49.453 20.9981 49.0087C21.3651 48.5644 21.5515 48.0164 21.9362 47.6017C22.3387 47.2261 22.817 46.9413 23.3388 46.7665L33.2697 42.6197Z" fill="url(#paint4_linear)"/>
<path d="M46.7159 56.7868C46.2868 55.913 45.6388 55.0096 44.683 54.8497L44.6475 56.15C43.9287 55.1553 42.8919 54.4363 41.709 54.1122C40.5354 53.7937 39.329 53.6118 38.1137 53.5701C37.8533 53.887 38.2853 54.3047 38.6522 54.4854L40.7236 55.5043C39.7432 55.181 38.7197 55.0073 37.6876 54.9889C37.5775 54.9778 37.4667 55.0016 37.3709 55.057C37.3087 55.118 37.2713 55.1998 37.2658 55.2868C37.2603 55.3738 37.2872 55.4597 37.3413 55.528C37.4549 55.6612 37.6005 55.7631 37.7645 55.8242L40.0223 56.8905C39.1049 56.716 38.1712 56.6415 37.2378 56.6683C36.9419 56.6683 36.5187 56.8194 36.572 57.1215C36.6016 57.3022 36.788 57.3999 36.9537 57.474L39.7856 58.7239C39.0192 58.5788 38.1788 58.4455 37.4923 58.8187C38.1936 59.5266 39.2411 59.7369 40.12 60.202C41.3895 60.8773 42.3305 62.1035 43.671 62.6248C44.4824 62.8908 45.3325 63.019 46.1862 63.004C46.5388 63.0395 46.895 63.0043 47.2338 62.9003C49.8053 61.9229 47.3936 58.1463 46.7159 56.7868Z" fill="#FFA68C"/>
<path d="M57.2329 33.7842C57.3631 33.7903 57.4916 33.7533 57.5987 33.6789C57.7057 33.6044 57.7851 33.4967 57.8247 33.3725C57.8949 33.1171 57.9179 32.8512 57.8928 32.5875C57.88 32.3308 57.9141 32.0738 57.9934 31.8293C58.0333 31.7076 58.0973 31.5953 58.1818 31.499C58.2662 31.4028 58.3692 31.3247 58.4846 31.2695C58.5607 31.2319 58.6474 31.2215 58.7302 31.2399C58.7856 31.2634 58.8351 31.299 58.875 31.3441C58.9149 31.3892 58.9443 31.4426 58.961 31.5005C59.0487 31.7534 59.0839 32.0214 59.0646 32.2884C59.0525 32.715 59 33.1394 58.9078 33.5561C58.8809 33.7078 58.8268 33.8533 58.748 33.9856C58.6816 34.0759 58.6051 34.1584 58.5201 34.2314C58.3882 34.3739 58.2191 34.4765 58.0319 34.5276C57.9244 34.5462 57.8138 34.5314 57.7149 34.4854C57.6161 34.4393 57.5336 34.3642 57.4785 34.2699C57.4265 34.1736 57.4049 34.0637 57.4165 33.9547C57.4281 33.8458 57.4724 33.743 57.5436 33.6598" fill="url(#paint5_linear)"/>
<path d="M70.0575 68.7976C70.1716 69.1877 70.1518 69.6048 70.0013 69.9824C69.7754 70.3112 69.4396 70.5486 69.0544 70.6518C65.5419 71.9521 61.6033 71.1642 58.0701 69.9231C55.3132 68.9559 52.6563 67.7239 50.1366 66.2444C48.802 65.4594 47.4408 64.5323 46.7957 63.1254C46.1506 61.7185 46.5619 59.7191 48.003 59.1564C49.024 58.7595 50.1603 59.1564 51.1753 59.5799L57.0462 61.9495C57.3717 60.0302 56.3242 58.1819 55.6317 56.3632C54.2587 52.7585 54.3741 48.8102 56.7 45.6469C58.724 42.8893 61.9732 41.0588 64.7341 44.0237C67.131 46.6006 67.0599 51.8433 67.6399 55.1311L70.0575 68.7976Z" fill="#68E1FD"/>
<path d="M70.0575 68.7976C70.1716 69.1877 70.1518 69.6048 70.0013 69.9824C69.7754 70.3112 69.4396 70.5486 69.0544 70.6518C65.5419 71.9521 61.6033 71.1642 58.0701 69.9231C55.3132 68.9559 52.6563 67.7239 50.1366 66.2444C48.802 65.4594 47.4408 64.5323 46.7957 63.1254C46.1506 61.7185 46.5619 59.7191 48.003 59.1564C49.024 58.7595 50.1603 59.1564 51.1753 59.5799L57.0462 61.9495C57.3717 60.0302 56.3242 58.1819 55.6317 56.3632C54.2587 52.7585 54.3741 48.8102 56.7 45.6469C58.724 42.8893 61.9732 41.0588 64.7341 44.0237C67.131 46.6006 67.0599 51.8433 67.6399 55.1311L70.0575 68.7976Z" fill="url(#paint6_linear)"/>
<path d="M61.8075 43.6475C60.9198 44.8827 59.2952 45.3418 57.789 45.5995C56.2828 45.8571 54.6878 46.0112 53.4361 46.8909C52.6519 47.4418 52.0749 48.2326 51.418 48.9317C50.761 49.6307 49.9532 50.2705 48.9974 50.3682C48.0416 50.466 46.9704 49.8143 46.926 48.8547C46.9023 48.3334 47.1686 47.7943 46.9852 47.3055C46.8304 46.9883 46.5826 46.7259 46.275 46.5532C45.98 46.3785 45.7329 46.1332 45.5559 45.8394C45.2304 45.1581 45.8281 44.3317 46.5502 44.1066C47.2722 43.8815 48.0445 44.0622 48.7902 44.1866C50.403 44.4561 52.1844 44.4176 53.5249 43.4639C54.9601 42.4331 55.5282 40.6085 56.0845 38.9291C56.5905 37.4067 57.3392 36.7254 58.9135 37.38C59.7805 37.7414 61.2601 38.313 61.0884 39.48C61.0677 39.6222 61.0293 39.7762 60.9967 39.9184C60.9518 40.0372 60.9349 40.1647 60.9472 40.291C60.9595 40.4174 61.0008 40.5392 61.0677 40.647C61.2205 40.7838 61.3984 40.8894 61.5915 40.9581C62.4852 41.4409 62.4112 42.8241 61.8075 43.6475Z" fill="url(#paint7_linear)"/>
<path d="M53.8768 46.6184C53.3975 48.0253 52.9891 49.4085 52.6222 50.7918C52.2325 51.1806 51.7765 51.4966 51.2758 51.7248C50.6724 51.932 50.0375 52.0322 49.3997 52.021C48.7835 52.0717 48.1633 52.0307 47.5591 51.8996L47.6922 51.1443C47.7514 50.8184 47.8224 50.4926 47.9083 50.1757C48.2468 50.3385 48.6232 50.4061 48.9972 50.3712C49.953 50.2734 50.7727 49.6307 51.4178 48.9346C52.0629 48.2386 52.6518 47.4536 53.4359 46.8938C53.5775 46.7936 53.7247 46.7017 53.8768 46.6184V46.6184Z" fill="url(#paint8_linear)"/>
<path d="M61.8079 43.6475C60.9202 44.8827 59.2956 45.3418 57.7894 45.5995C56.2832 45.8572 54.6882 46.0112 53.4365 46.8909C52.6523 47.4418 52.0753 48.2327 51.4184 48.9317C50.7615 49.6307 49.9536 50.2705 48.9978 50.3682C48.042 50.466 46.9708 49.8143 46.9264 48.8547C46.9027 48.3334 47.1691 47.7943 46.9856 47.3056C46.8308 46.9883 46.5831 46.7259 46.2754 46.5532C46.3747 46.417 46.5002 46.302 46.6445 46.215C46.7888 46.128 46.949 46.0708 47.1158 46.0467C47.3482 46.0226 47.5808 46.0911 47.763 46.2375C47.9453 46.3839 48.0626 46.5963 48.0893 46.8287C48.0893 47.0064 48.0242 47.196 48.1101 47.347C48.1852 47.4547 48.2983 47.5299 48.4267 47.5573C49.2671 47.815 50.1815 47.4625 50.9094 46.9649C51.6374 46.4673 52.2617 45.8216 53.0282 45.3862C54.6853 44.4473 56.8247 44.5924 58.4049 43.529C58.834 43.2329 59.2394 42.6967 58.9967 42.2436C57.7628 41.9977 56.6472 43.2506 55.3895 43.1618C56.5495 42.6523 58.0173 42.2406 58.9405 41.355C59.5797 40.7478 60.1064 40.0043 60.9853 39.9214C60.9404 40.0401 60.9235 40.1676 60.9358 40.294C60.9481 40.4204 60.9894 40.5422 61.0563 40.65C61.2091 40.7868 61.387 40.8924 61.5801 40.961C62.4856 41.4409 62.4116 42.8241 61.8079 43.6475Z" fill="url(#paint9_linear)"/>
<path d="M22.4717 35.3807C25.3568 35.3333 28.2479 35.2829 31.1213 35.5169C31.5178 35.5495 31.9173 35.588 32.3049 35.5939C32.6926 35.5999 33.1305 35.5673 33.5448 35.5436C35.0954 35.4577 36.6312 35.5288 38.1788 35.5673C36.1725 34.7735 33.0151 35.3748 30.8638 35.3748C28.0733 35.3777 25.271 35.3333 22.4717 35.3807Z" fill="white"/>
<path d="M33.4295 51.3605C31.7902 52.6401 30.0413 53.9315 29.127 55.8034C30.2019 55.3984 31.1698 54.7519 31.9559 53.9137C32.7874 53.0251 33.397 51.9499 34.2729 51.1087C35.6282 49.8025 37.5102 49.1716 38.9306 47.9335C40.1827 46.8215 41.2207 45.4893 41.9933 44.003C40.6735 44.1985 38.9809 46.6302 37.9896 47.5277C36.5189 48.8547 35.0097 50.1609 33.4295 51.3605Z" fill="white"/>
<path d="M59.6205 29.0095C59.5301 29.1393 59.4313 29.263 59.3245 29.3797C58.7594 29.9929 58.0048 30.4401 57.5491 31.1332C57.5313 31.1599 57.5135 31.1836 57.4988 31.2102C57.2502 31.6101 57.1141 32.0722 56.8714 32.4779C56.8714 32.4779 56.8714 32.4483 56.8714 32.4335C56.682 31.305 55.7499 30.4075 54.8 29.7322C53.7791 29.0036 52.628 28.349 52.0007 27.2619C51.8941 27.0246 51.7423 26.8103 51.5538 26.631C51.2885 26.4666 50.9767 26.3937 50.6661 26.4237C50.1305 26.4237 49.5682 26.4889 49.0208 26.5037C48.7929 26.3556 48.5769 26.1808 48.3579 26.0179C47.3258 25.2516 46.1343 24.7282 44.8721 24.4866L51.6604 24.996C51.7597 25.0115 51.8613 25.0023 51.9563 24.9694C52.1368 24.8924 52.19 24.6732 52.3055 24.5043C52.4448 24.3535 52.6331 24.257 52.8368 24.232C53.0406 24.2071 53.2465 24.2553 53.4181 24.3681C53.7552 24.6049 54.0286 24.9213 54.2141 25.2893C54.6284 25.9646 54.8533 26.7465 55.7469 26.5777C56.3388 26.4681 56.8477 26.2075 57.4573 26.1512C58.641 26.0446 59.2062 25.7721 59.9696 24.7946C60.0131 24.8634 60.0526 24.9346 60.088 25.0079C60.6769 26.2341 60.3958 27.8958 59.6205 29.0095Z" fill="url(#paint10_linear)"/>
<defs>
<linearGradient id="paint0_linear" x1="56.8631" y1="42.2791" x2="25.1886" y2="60.1672" gradientUnits="userSpaceOnUse">
<stop offset="0.01"/>
<stop offset="0.13" stop-opacity="0.69"/>
<stop offset="1" stop-opacity="0"/>
</linearGradient>
<linearGradient id="paint1_linear" x1="7274.75" y1="8724.85" x2="4804.25" y2="8967.16" gradientUnits="userSpaceOnUse">
<stop offset="0.01"/>
<stop offset="0.13" stop-opacity="0.69"/>
<stop offset="1" stop-opacity="0"/>
</linearGradient>
<linearGradient id="paint2_linear" x1="3032.15" y1="5468.42" x2="3309.62" y2="10524.5" gradientUnits="userSpaceOnUse">
<stop offset="0.01" stop-color="#FF9234"/>
<stop offset="0.13" stop-opacity="0.69"/>
<stop offset="1" stop-opacity="0"/>
</linearGradient>
<linearGradient id="paint3_linear" x1="2007.24" y1="3695.15" x2="2845.16" y2="4748.87" gradientUnits="userSpaceOnUse">
<stop offset="0.01"/>
<stop offset="0.13" stop-opacity="0.69"/>
<stop offset="1" stop-opacity="0"/>
</linearGradient>
<linearGradient id="paint4_linear" x1="2278.4" y1="305.346" x2="2747.59" y2="2905.79" gradientUnits="userSpaceOnUse">
<stop offset="0.01"/>
<stop offset="0.13" stop-opacity="0.69"/>
<stop offset="1" stop-opacity="0"/>
</linearGradient>
<linearGradient id="paint5_linear" x1="548.131" y1="463.945" x2="559.556" y2="463.945" gradientUnits="userSpaceOnUse">
<stop offset="0.01"/>
<stop offset="0.13" stop-opacity="0.69"/>
<stop offset="1" stop-opacity="0"/>
</linearGradient>
<linearGradient id="paint6_linear" x1="8575.23" y1="6104.32" x2="5966.37" y2="6153.55" gradientUnits="userSpaceOnUse">
<stop offset="0.01"/>
<stop offset="0.13" stop-opacity="0.69"/>
<stop offset="1" stop-opacity="0"/>
</linearGradient>
<linearGradient id="paint7_linear" x1="4206.53" y1="1957.18" x2="4376.13" y2="2558.52" gradientUnits="userSpaceOnUse">
<stop offset="0.01" stop-color="#FF9234"/>
<stop offset="0.13" stop-opacity="0.69"/>
<stop offset="1" stop-opacity="0"/>
</linearGradient>
<linearGradient id="paint8_linear" x1="1529.45" y1="1057.97" x2="1664.34" y2="1057.97" gradientUnits="userSpaceOnUse">
<stop offset="0.01" stop-color="#FF9234"/>
<stop offset="0.13" stop-opacity="0.69"/>
<stop offset="1" stop-opacity="0"/>
</linearGradient>
<linearGradient id="paint9_linear" x1="3726.42" y1="1842.32" x2="4589.99" y2="1842.32" gradientUnits="userSpaceOnUse">
<stop offset="0.01" stop-color="#FF9234"/>
<stop offset="0.13" stop-opacity="0.69"/>
<stop offset="1" stop-opacity="0"/>
</linearGradient>
<linearGradient id="paint10_linear" x1="3545.94" y1="979.019" x2="4361.65" y2="979.019" gradientUnits="userSpaceOnUse">
<stop offset="0.01"/>
<stop offset="0.13" stop-opacity="0.69"/>
<stop offset="1" stop-opacity="0"/>
</linearGradient>
</defs>
</svg>
