<svg width="236" height="98" viewBox="0 0 236 98" fill="none" xmlns="http://www.w3.org/2000/svg">
<path d="M50 29.9947C52.6526 27.0453 52.6526 27.0453 55.6606 23.5059L68.4625 8.52413C71.2948 5.27776 72.416 3.80498 73.9317 1.49228H86.0422C85.6959 4.74373 85.5381 8.0125 85.5695 11.2822V30.4674H87.2805C89.2426 30.449 91.2008 30.2911 93.1404 29.9947V40.73C91.2222 40.4944 89.2913 40.377 87.3587 40.3784H85.589V43.3279C85.5325 45.7553 85.6907 48.1829 86.0617 50.5824H73.8888C74.2237 48.1398 74.3817 45.6761 74.3615 43.2107V40.3198H57.6686C53.8324 40.3198 52.1994 40.3784 50 40.5542V29.9947ZM74.4201 23.7442C74.4201 21.0877 74.5373 17.8452 74.7756 15.2474C73.6036 16.8999 72.709 18.0796 71.119 20.0837L62.505 30.5846H74.4201V23.7442Z" fill="#B2B2B2"/>
<path d="M50 29.9947C52.6526 27.0453 52.6526 27.0453 55.6606 23.5059L68.4625 8.52413C71.2948 5.27776 72.416 3.80498 73.9317 1.49228H86.0422C85.6959 4.74373 85.5381 8.0125 85.5695 11.2822V30.4674H87.2806C89.2426 30.449 91.2008 30.2911 93.1404 29.9947V40.73C91.2222 40.4944 89.2913 40.377 87.3587 40.3784H85.589V43.3279C85.5325 45.7553 85.6907 48.1829 86.0617 50.5824H73.8888C74.2237 48.1398 74.3817 45.6761 74.3615 43.2107V40.3198H57.6686C53.8324 40.3198 52.1994 40.3784 50 40.5542V29.9947ZM74.4201 23.7442C74.4201 21.0877 74.5373 17.8452 74.7756 15.2474C73.6036 16.8999 72.709 18.0796 71.119 20.0837L62.505 30.5846H74.4201V23.7442Z" fill="url(#paint0_linear)"/>
<path d="M115.647 15.2005C116.819 15.3959 117.909 16.1147 119.085 16.3725C120.112 16.6069 121.194 16.4858 122.21 16.8452C124.105 17.5171 125.335 19.8025 125.605 22.0957C125.874 24.3888 125.394 26.7093 124.847 28.9361C123.409 34.8038 121.456 40.6637 117.94 45.1133C117.694 45.4219 117.397 45.7461 117.034 45.7383C116.781 45.7036 116.546 45.5933 116.358 45.4219C115.62 44.9164 114.944 44.325 114.346 43.66C113.408 42.531 112.865 41.0426 112.393 39.5659C111.06 35.4093 108.517 32.7763 108.045 28.3696C107.529 23.7481 110.056 14.2786 115.647 15.2005Z" fill="#FF9234"/>
<path d="M111.865 18.1617C111.366 18.0716 110.851 18.1646 110.415 18.4235C109.958 18.7046 109.563 19.0763 109.255 19.5157C108.946 19.955 108.731 20.4528 108.622 20.9784C108.411 22.0316 108.372 23.1123 108.509 24.1779C108.776 27.3049 109.383 30.3936 110.318 33.3896C110.591 34.2568 109.81 36.3156 110.376 37.0266C110.837 37.6048 110.607 41.0777 111.208 41.5075C112.876 42.7107 116.341 42.0466 118.01 43.2498C120.17 44.8124 120.025 40.6871 119.682 38.9877C119.291 37.093 116.357 37.4251 114.111 31.0261C111.122 22.5097 112.63 18.3375 111.865 18.1617Z" fill="url(#paint1_linear)"/>
<path d="M141.082 29.776C143.735 26.8265 143.735 26.8265 146.743 23.2872L159.545 8.30151C161.543 6.09903 163.371 3.74835 165.014 1.26965H177.124C176.778 4.5224 176.62 7.79248 176.652 11.0635V30.237H178.363C180.318 30.2157 182.27 30.0578 184.203 29.7643V40.4996C182.285 40.2607 180.354 40.142 178.421 40.1441H176.652V43.0936C176.595 45.521 176.753 47.9486 177.124 50.3481H164.971C165.304 47.9158 165.462 45.4626 165.444 43.0076V40.1167H148.751C144.914 40.1167 143.262 40.1753 141.082 40.355V29.776ZM165.502 23.5255C165.502 20.869 165.619 17.6265 165.854 15.0326C164.682 16.6811 163.791 17.8609 162.197 19.8689L153.603 30.3698H165.518L165.502 23.5255Z" fill="#68E1FD"/>
<path d="M141.082 29.776C143.735 26.8265 143.735 26.8265 146.743 23.2872L159.545 8.30151C161.543 6.09903 163.371 3.74835 165.014 1.26965H177.124C176.778 4.5224 176.62 7.79248 176.652 11.0635V30.237H178.363C180.318 30.2157 182.27 30.0578 184.203 29.7643V40.4996C182.285 40.2607 180.354 40.142 178.421 40.1441H176.652V43.0936C176.595 45.521 176.753 47.9486 177.124 50.3481H164.971C165.304 47.9158 165.462 45.4626 165.444 43.0076V40.1167H148.751C144.914 40.1167 143.262 40.1753 141.082 40.355V29.776ZM165.502 23.5255C165.502 20.869 165.619 17.6265 165.854 15.0326C164.682 16.6811 163.791 17.8609 162.197 19.8689L153.603 30.3698H165.518L165.502 23.5255Z" fill="url(#paint2_linear)"/>
<path d="M102.911 45.7188C101.03 43.8647 99.5648 41.6314 98.6135 39.1674C97.0592 34.8345 96.2803 30.2616 96.3125 25.6585C96.3125 19.4665 97.7892 13.0363 100.032 9.32111C103.63 3.30106 109.763 0 117.197 0C122.92 0 127.932 1.95329 131.53 5.46922C133.411 7.32189 134.876 9.55386 135.828 12.0167C137.385 16.3689 138.163 20.9618 138.125 25.5842C138.125 31.7801 136.652 38.2689 134.41 41.9919C130.87 47.8986 124.678 51.2114 117.185 51.2114C111.404 51.2114 106.509 49.3128 102.911 45.7188ZM108.38 25.1897C108.38 35.7374 111.388 41.1754 117.228 41.1754C123.069 41.1754 125.96 35.8664 125.96 25.3655C125.96 15.2787 122.893 9.96961 117.17 9.96961C111.642 9.96961 108.396 15.5717 108.396 25.1897H108.38Z" fill="#68E1FD"/>
<path d="M102.911 45.7188C101.03 43.8647 99.5648 41.6314 98.6135 39.1674C97.0592 34.8345 96.2803 30.2616 96.3125 25.6585C96.3125 19.4665 97.7892 13.0363 100.032 9.32111C103.63 3.30106 109.763 0 117.197 0C122.92 0 127.932 1.95329 131.53 5.46922C133.411 7.32189 134.876 9.55386 135.828 12.0167C137.385 16.3689 138.163 20.9618 138.125 25.5842C138.125 31.7801 136.652 38.2689 134.41 41.9919C130.87 47.8986 124.678 51.2114 117.185 51.2114C111.404 51.2114 106.509 49.3128 102.911 45.7188ZM108.38 25.1897C108.38 35.7374 111.388 41.1754 117.228 41.1754C123.069 41.1754 125.96 35.8664 125.96 25.3655C125.96 15.2787 122.893 9.96961 117.17 9.96961C111.642 9.96961 108.396 15.5717 108.396 25.1897H108.38Z" fill="url(#paint3_linear)"/>
<path d="M51.3242 29.776C53.9807 26.8265 53.9807 26.8265 56.9888 23.2872L69.7907 8.30151C71.7887 6.09903 73.617 3.74835 75.2599 1.26965H87.3703C87.0239 4.5224 86.8661 7.79248 86.8976 11.0635V30.237H88.6087C90.5706 30.2166 92.5287 30.0587 94.4686 29.7643V40.4996C92.5506 40.2607 90.6196 40.142 88.6868 40.1441H86.9171V43.0936C86.8603 45.521 87.0185 47.9486 87.3898 50.3481H75.2169C75.5503 47.9158 75.7083 45.4626 75.6896 43.0076V40.1167H58.9928C55.1605 40.1167 53.5236 40.1753 51.3242 40.355V29.776ZM75.7482 23.5255C75.7482 20.869 75.8654 17.6265 76.0998 15.0326C74.9278 16.6811 74.0371 17.8609 72.4432 19.8689L63.8487 30.3698H75.7482V23.5255Z" fill="#303960"/>
<path d="M104.236 45.9375C102.355 44.0847 100.89 41.8528 99.9384 39.3901C98.3802 35.0579 97.5973 30.485 97.6257 25.8811C97.6257 19.6892 99.1024 13.2589 101.345 9.53986C104.943 3.52372 111.076 0.222656 118.51 0.222656C124.23 0.222656 129.246 2.17595 132.844 5.69188C134.726 7.54363 136.191 9.77586 137.141 12.2393C138.707 16.5938 139.49 21.1912 139.454 25.8186C139.454 32.0105 137.981 38.5033 135.738 42.2263C132.199 48.1252 126.003 51.4263 118.514 51.4263C112.733 51.4224 107.838 49.5355 104.236 45.9375ZM109.736 25.4279C109.736 35.9757 112.744 41.4137 118.585 41.4137C124.366 41.4137 127.316 36.1047 127.316 25.6077C127.316 15.5169 124.245 10.2079 118.526 10.2079C112.967 10.1923 109.736 15.7943 109.736 25.4279Z" fill="#303960"/>
<path d="M128.135 4.89883C128.575 5.21916 128.91 5.66228 129.098 6.17248C129.287 6.68268 129.32 7.23718 129.194 7.76627C129.931 7.83665 130.647 8.05241 131.3 8.40109C131.953 8.74977 132.531 9.22445 132.999 9.79769C133.839 10.9056 134.347 12.2292 134.464 13.6144C134.577 14.9916 134.547 16.3767 134.374 17.7476C134.355 18.2214 134.257 18.6887 134.085 19.1305C133.883 19.5138 133.599 19.8475 133.252 20.1076C132.906 20.3677 132.506 20.5476 132.081 20.6346C131.233 20.804 130.363 20.8448 129.503 20.7557L127.452 20.6463C127.384 20.6478 127.317 20.6331 127.257 20.6033C127.216 20.5684 127.182 20.5254 127.159 20.477C127.135 20.4286 127.122 20.3758 127.12 20.322C126.979 19.4821 126.764 19.1149 126.612 18.275C126.231 16.5017 125.486 14.8268 124.424 13.3566C124.236 13.1368 124.102 12.8759 124.034 12.5948C124.01 12.2063 124.097 11.819 124.284 11.4775C124.561 10.8058 124.791 10.1152 124.971 9.41094C125.137 8.56817 125.352 7.73592 125.616 6.91854C125.884 6.09241 126.438 5.38889 127.178 4.934" fill="url(#paint4_linear)"/>
<path d="M127.179 29.4361C127.179 29.4361 134.687 30.1003 138.117 25.5295C139.484 23.7169 136.437 15.1771 136.437 15.1771L132.972 21.3808L127.503 22.6231L127.179 29.4361Z" fill="url(#paint5_linear)"/>
<path d="M142.52 29.776C145.172 26.8265 145.172 26.8265 148.18 23.2872L160.982 8.30151C163.814 5.05904 164.936 3.58235 166.451 1.26965H178.562C178.219 4.52652 178.065 7.80051 178.101 11.0752V30.2487H179.812C181.767 30.2275 183.719 30.0695 185.652 29.776V40.5113C183.734 40.2724 181.803 40.1537 179.87 40.1558H178.101V43.1053C178.044 45.5327 178.202 47.9603 178.573 50.3598H166.408C166.742 47.9236 166.9 45.4665 166.881 43.0076V40.1167H150.188C146.352 40.1167 144.699 40.1753 142.52 40.355V29.776ZM166.94 23.5255C166.94 20.869 167.057 17.6265 167.295 15.0326C166.123 16.6811 165.229 17.8609 163.639 19.8689L155.025 30.3698H166.94V23.5255Z" fill="#303960"/>
<path d="M109.56 16.0756C109.358 16.1494 109.162 16.2395 108.974 16.3451C108.798 16.4343 108.643 16.561 108.521 16.7162C108.461 16.7949 108.423 16.8876 108.409 16.9854C108.395 17.0832 108.407 17.1828 108.443 17.2749C108.522 17.3972 108.636 17.4928 108.771 17.5492C108.905 17.6056 109.054 17.6203 109.197 17.5913C109.677 17.5444 110.122 17.3061 110.603 17.2241C111.083 17.1421 111.537 16.81 111.197 16.2982C110.857 15.7865 110.04 15.8958 109.56 16.0756Z" fill="#FFA68C"/>
<path d="M111.091 17.2241C110.388 17.0405 109.653 17.3491 109.02 17.7046C108.871 17.7773 108.738 17.8797 108.63 18.0055C108.565 18.0573 108.518 18.1286 108.496 18.209C108.474 18.2894 108.479 18.3746 108.509 18.4522C108.539 18.5299 108.593 18.5959 108.663 18.6406C108.734 18.6853 108.816 18.7064 108.899 18.7008C109.043 18.7152 109.188 18.706 109.329 18.6735L110.302 18.5055C110.528 18.479 110.748 18.4157 110.954 18.318C111.396 18.0601 111.771 17.3921 111.091 17.2241Z" fill="#FFA68C"/>
<path d="M109.736 18.5172C109.534 18.594 109.338 18.6854 109.15 18.7907C108.971 18.8855 108.817 19.019 108.696 19.1813C108.638 19.2598 108.6 19.3517 108.586 19.4487C108.573 19.5457 108.584 19.6445 108.618 19.7361C108.698 19.8584 108.812 19.954 108.947 20.0104C109.081 20.0669 109.229 20.0815 109.372 20.0525C109.853 20.0056 110.298 19.7673 110.779 19.6853C111.259 19.6033 111.712 19.2751 111.372 18.7594C111.033 18.2438 110.208 18.3375 109.736 18.5172Z" fill="#FFA68C"/>
<path d="M111.251 19.5017C110.529 19.4431 109.861 19.8924 109.298 20.3377C109.161 20.4377 109.046 20.5639 108.958 20.7088C108.905 20.7717 108.872 20.85 108.866 20.9325C108.86 21.0149 108.88 21.0972 108.923 21.1676C108.966 21.2379 109.031 21.2927 109.108 21.324C109.184 21.3553 109.269 21.3615 109.349 21.3417C109.492 21.3311 109.632 21.2967 109.763 21.2401L110.689 20.9003C110.908 20.8344 111.116 20.7327 111.302 20.5994C111.689 20.2791 111.951 19.5681 111.251 19.5017Z" fill="#FFA68C"/>
<path d="M131.956 8.4734C130.817 7.93055 129.565 7.6693 128.304 7.71162C128.091 7.70132 127.878 7.73593 127.679 7.81319C127.581 7.85567 127.499 7.92558 127.44 8.01438C127.382 8.10317 127.351 8.20702 127.351 8.31323C127.389 8.49856 127.494 8.66299 127.647 8.77421C128.109 9.19373 128.627 9.54618 129.187 9.82117C129.356 9.88786 129.51 9.98745 129.64 10.1142C129.704 10.1783 129.745 10.2615 129.757 10.3511C129.768 10.4406 129.751 10.5317 129.706 10.6103C129.577 10.79 129.28 10.7978 129.183 11.001C129.054 11.2549 129.378 11.5049 129.659 11.5518C129.958 11.603 130.265 11.5747 130.55 11.4698C130.749 11.3672 130.967 11.3061 131.191 11.29C131.412 11.3374 131.619 11.432 131.8 11.5674C132.417 11.919 134.336 11.9307 134.214 10.8603C134.101 9.86805 132.746 8.88359 131.956 8.4734Z" fill="#FFA68C"/>
<path d="M122.519 17.0874C122.519 17.0874 131.156 20.6463 132.144 20.4627C133.133 20.2791 131.535 11.7549 131.535 11.7549L134.481 10.4071C134.481 10.4071 141.122 23.5723 135.684 25.4866C132.321 26.6118 128.677 26.5733 125.339 25.3772L122.519 17.0874Z" fill="#FF9234"/>
<path d="M127.112 12.1456C127.082 12.9103 126.901 13.6616 126.581 14.3567C126.267 14.8746 125.838 15.3126 125.326 15.6359C124.814 15.9593 124.234 16.1593 123.631 16.2201C123.192 16.2484 122.756 16.3098 122.327 16.4037C122.127 16.4445 121.941 16.534 121.785 16.6642C121.629 16.7945 121.508 16.9613 121.432 17.1499C121.084 17.9937 120.725 18.8493 119.604 18.5641C119.498 18.5407 119.396 18.5053 119.299 18.4586C118.946 18.2931 118.629 18.061 118.365 17.7749C118.036 17.442 117.75 17.0693 117.514 16.6655C117.391 16.4786 117.309 16.2685 117.271 16.0482C117.248 15.7777 117.28 15.5053 117.365 15.2474C117.756 13.6847 117.818 11.9151 118.373 10.3915C118.941 8.84708 120.026 7.54682 121.444 6.71149C122.846 5.89501 124.795 5.8833 125.987 6.99667C126.639 7.64929 127.052 8.50259 127.159 9.41876C127.253 10.3263 127.237 11.2418 127.112 12.1456V12.1456Z" fill="#FFA68C"/>
<path d="M117.611 10.1923C117.686 9.45782 117.682 8.71166 117.826 7.98894C117.936 7.25056 118.306 6.57569 118.869 6.08643C119.011 5.97401 119.169 5.88438 119.338 5.82079C119.49 5.76609 119.651 5.73484 119.807 5.69187C120.266 5.52812 120.704 5.31043 121.112 5.04338C121.73 4.67287 122.406 4.40876 123.112 4.26206C123.589 4.18911 124.071 4.15514 124.553 4.16049C125.439 4.14486 126.328 4.13705 127.222 4.13705C127.431 4.1213 127.642 4.15614 127.835 4.23862C128.047 4.36969 128.202 4.57624 128.269 4.81679C128.439 5.35584 128.439 5.93414 128.269 6.47319C128.096 7.00646 127.867 7.51982 127.585 8.00457C127.448 8.31007 127.254 8.58704 127.015 8.82105C126.808 8.46164 126.624 8.09052 126.436 7.71548C125.839 8.33663 124.897 8.4968 124.038 8.43039C123.178 8.36397 122.334 8.1413 121.475 8.12958C121.271 8.10792 121.064 8.12678 120.867 8.1851C120.67 8.24342 120.486 8.34005 120.326 8.46945C120.134 8.69379 120 8.96216 119.936 9.25077C119.755 9.89382 119.608 10.5458 119.494 11.2041C119.393 11.0126 118.983 10.5126 118.768 10.5204C118.706 10.5264 118.646 10.5451 118.591 10.5753C118.537 10.6056 118.489 10.6467 118.451 10.6962C118.096 11.0869 118.272 12.5206 118.6 12.9347C118.666 12.9974 118.715 13.0752 118.744 13.1613C118.751 13.2188 118.746 13.2771 118.73 13.3328C118.714 13.3885 118.687 13.4404 118.651 13.4855C118.56 13.5921 118.446 13.6754 118.317 13.7284C118.187 13.7814 118.047 13.8026 117.908 13.7902C117.565 13.7902 117.498 13.1339 117.463 12.8917C117.318 11.9893 117.525 11.0791 117.611 10.1923Z" fill="#080608"/>
<path d="M118.983 11.8408C118.934 11.7399 118.913 11.6283 118.92 11.5166C118.928 11.4047 118.916 11.2923 118.885 11.1845C118.849 11.0858 118.778 11.0037 118.686 10.9541C118.659 10.9463 118.631 10.9463 118.604 10.9541C118.581 10.9637 118.561 10.9786 118.545 10.9977C118.53 11.0167 118.519 11.0393 118.514 11.0634C118.377 11.4916 118.392 11.9538 118.557 12.3721C118.579 12.4471 118.617 12.5163 118.669 12.5745C118.721 12.6326 118.786 12.6783 118.858 12.7081C118.921 12.7209 118.987 12.7175 119.049 12.6984C119.111 12.6793 119.168 12.6451 119.213 12.5987C119.275 12.5337 119.317 12.4528 119.335 12.3651C119.353 12.2775 119.346 12.1865 119.315 12.1026C119.248 11.9463 119.065 11.9815 118.983 11.8408Z" fill="url(#paint6_linear)"/>
<path d="M122.327 16.3959C122.128 16.4367 121.942 16.5262 121.785 16.6564C121.629 16.7866 121.508 16.9535 121.432 17.1421C121.084 17.9859 120.725 18.8414 119.604 18.5563C119.498 18.5329 119.396 18.4975 119.299 18.4508C119.204 18.3697 119.127 18.27 119.072 18.1578C119.022 18.0259 118.999 17.8854 119.005 17.7444C119.01 17.6035 119.044 17.4651 119.104 17.3374C119.239 17.0091 119.467 16.7273 119.76 16.5261C120.052 16.325 120.397 16.2132 120.752 16.2045C121.051 16.2183 121.347 16.2575 121.639 16.3217C121.819 16.3451 122.03 16.3217 122.194 16.3412C122.241 16.3498 122.287 16.3684 122.327 16.3959V16.3959Z" fill="url(#paint7_linear)"/>
<path d="M16.5421 68.6319H14.0821V75.7659H12.0541V68.6319H9.59406V67.0239H16.5421V68.6319ZM19.1883 69.5439V75.7659H17.3283V69.5439H19.1883ZM19.3803 67.8399C19.3803 67.9879 19.3503 68.1279 19.2903 68.2599C19.2303 68.3879 19.1483 68.5019 19.0443 68.6019C18.9403 68.6979 18.8183 68.7759 18.6783 68.8359C18.5423 68.8919 18.3963 68.9199 18.2402 68.9199C18.0883 68.9199 17.9463 68.8919 17.8143 68.8359C17.6823 68.7759 17.5643 68.6979 17.4603 68.6019C17.3603 68.5019 17.2803 68.3879 17.2203 68.2599C17.1643 68.1279 17.1363 67.9879 17.1363 67.8399C17.1363 67.6879 17.1643 67.5459 17.2203 67.4139C17.2803 67.2819 17.3603 67.1659 17.4603 67.0659C17.5643 66.9659 17.6823 66.8879 17.8143 66.8319C17.9463 66.7759 18.0883 66.7479 18.2402 66.7479C18.3963 66.7479 18.5423 66.7759 18.6783 66.8319C18.8183 66.8879 18.9403 66.9659 19.0443 67.0659C19.1483 67.1659 19.2303 67.2819 19.2903 67.4139C19.3503 67.5459 19.3803 67.6879 19.3803 67.8399ZM24.2595 71.2119C24.1195 71.0559 23.9675 70.9479 23.8035 70.8879C23.6395 70.8239 23.4675 70.7919 23.2875 70.7919C23.1155 70.7919 22.9575 70.8259 22.8135 70.8939C22.6695 70.9619 22.5435 71.0719 22.4355 71.2239C22.3315 71.3719 22.2495 71.5659 22.1895 71.8059C22.1295 72.0459 22.0995 72.3359 22.0995 72.6759C22.0995 73.0039 22.1235 73.2799 22.1715 73.5039C22.2195 73.7279 22.2855 73.9099 22.3695 74.0499C22.4575 74.1859 22.5615 74.2839 22.6815 74.3439C22.8015 74.4039 22.9355 74.4339 23.0835 74.4339C23.2195 74.4339 23.3415 74.4219 23.4495 74.3979C23.5615 74.3699 23.6635 74.3319 23.7555 74.2839C23.8475 74.2359 23.9335 74.1759 24.0135 74.1039C24.0975 74.0279 24.1795 73.9419 24.2595 73.8459V71.2119ZM26.1195 66.7839V75.7659H24.9675C24.7355 75.7659 24.5835 75.6619 24.5115 75.4539L24.3675 74.9799C24.2435 75.1119 24.1135 75.2319 23.9775 75.3399C23.8415 75.4479 23.6935 75.5419 23.5335 75.6219C23.3775 75.6979 23.2075 75.7559 23.0235 75.7959C22.8435 75.8399 22.6475 75.8619 22.4355 75.8619C22.1115 75.8619 21.8115 75.7899 21.5355 75.6459C21.2595 75.5019 21.0215 75.2939 20.8215 75.0219C20.6215 74.7499 20.4635 74.4179 20.3475 74.0259C20.2355 73.6299 20.1795 73.1799 20.1795 72.6759C20.1795 72.2119 20.2435 71.7819 20.3715 71.3859C20.4995 70.9859 20.6795 70.6419 20.9115 70.3539C21.1475 70.0619 21.4295 69.8339 21.7575 69.6699C22.0855 69.5059 22.4475 69.4239 22.8435 69.4239C23.1675 69.4239 23.4395 69.4699 23.6595 69.5619C23.8795 69.6539 24.0795 69.7779 24.2595 69.9339V66.7839H26.1195ZM30.5861 73.2339C30.2141 73.2499 29.9081 73.2819 29.6681 73.3299C29.4281 73.3779 29.2381 73.4379 29.0981 73.5099C28.9581 73.5819 28.8601 73.6639 28.8041 73.7559C28.7521 73.8479 28.7261 73.9479 28.7261 74.0559C28.7261 74.2679 28.7841 74.4179 28.9001 74.5059C29.0161 74.5899 29.1861 74.6319 29.4101 74.6319C29.6501 74.6319 29.8601 74.5899 30.0401 74.5059C30.2201 74.4219 30.4021 74.2859 30.5861 74.0979V73.2339ZM27.2381 70.4079C27.6141 70.0759 28.0301 69.8299 28.4861 69.6699C28.9461 69.5059 29.4381 69.4239 29.9621 69.4239C30.3381 69.4239 30.6761 69.4859 30.9761 69.6099C31.2801 69.7299 31.5361 69.8999 31.7441 70.1199C31.9561 70.3359 32.1181 70.5939 32.2301 70.8939C32.3421 71.1939 32.3981 71.5219 32.3981 71.8779V75.7659H31.5461C31.3701 75.7659 31.2361 75.7419 31.1441 75.6939C31.0561 75.6459 30.9821 75.5459 30.9221 75.3939L30.7901 75.0519C30.6341 75.1839 30.4841 75.2999 30.3401 75.3999C30.1961 75.4999 30.0461 75.5859 29.8901 75.6579C29.7381 75.7259 29.5741 75.7759 29.3981 75.8079C29.2261 75.8439 29.0341 75.8619 28.8221 75.8619C28.5381 75.8619 28.2801 75.8259 28.0481 75.7539C27.8161 75.6779 27.6181 75.5679 27.4541 75.4239C27.2941 75.2799 27.1701 75.1019 27.0821 74.8899C26.9941 74.6739 26.9501 74.4259 26.9501 74.1459C26.9501 73.9219 27.0061 73.6959 27.1181 73.4679C27.2301 73.2359 27.4241 73.0259 27.7001 72.8379C27.9761 72.6459 28.3481 72.4859 28.8161 72.3579C29.2841 72.2299 29.8741 72.1579 30.5861 72.1419V71.8779C30.5861 71.5139 30.5101 71.2519 30.3581 71.0919C30.2101 70.9279 29.9981 70.8459 29.7221 70.8459C29.5021 70.8459 29.3221 70.8699 29.1821 70.9179C29.0421 70.9659 28.9161 71.0199 28.8041 71.0799C28.6961 71.1399 28.5901 71.1939 28.4861 71.2419C28.3821 71.2899 28.2581 71.3139 28.1141 71.3139C27.9861 71.3139 27.8781 71.2819 27.7901 71.2179C27.7021 71.1539 27.6301 71.0779 27.5741 70.9899L27.2381 70.4079ZM35.447 66.7839V71.8179H35.723C35.839 71.8179 35.927 71.8019 35.987 71.7699C36.047 71.7339 36.107 71.6759 36.167 71.5959L37.343 69.8439C37.415 69.7439 37.497 69.6699 37.589 69.6219C37.681 69.5699 37.799 69.5439 37.943 69.5439H39.647L38.039 71.7579C37.887 71.9579 37.707 72.1219 37.499 72.2499C37.591 72.3179 37.675 72.3979 37.751 72.4899C37.827 72.5779 37.899 72.6779 37.967 72.7899L39.719 75.7659H38.039C37.899 75.7659 37.779 75.7439 37.679 75.6999C37.579 75.6519 37.495 75.5699 37.427 75.4539L36.251 73.2519C36.195 73.1519 36.137 73.0879 36.077 73.0599C36.017 73.0279 35.927 73.0119 35.807 73.0119H35.447V75.7659H33.587V66.7839H35.447ZM46.2775 73.2339C45.9055 73.2499 45.5995 73.2819 45.3595 73.3299C45.1195 73.3779 44.9295 73.4379 44.7895 73.5099C44.6495 73.5819 44.5515 73.6639 44.4955 73.7559C44.4435 73.8479 44.4175 73.9479 44.4175 74.0559C44.4175 74.2679 44.4755 74.4179 44.5915 74.5059C44.7075 74.5899 44.8775 74.6319 45.1015 74.6319C45.3415 74.6319 45.5515 74.5899 45.7315 74.5059C45.9115 74.4219 46.0935 74.2859 46.2775 74.0979V73.2339ZM42.9295 70.4079C43.3055 70.0759 43.7215 69.8299 44.1775 69.6699C44.6375 69.5059 45.1295 69.4239 45.6535 69.4239C46.0295 69.4239 46.3675 69.4859 46.6675 69.6099C46.9715 69.7299 47.2275 69.8999 47.4355 70.1199C47.6475 70.3359 47.8095 70.5939 47.9215 70.8939C48.0335 71.1939 48.0895 71.5219 48.0895 71.8779V75.7659H47.2375C47.0615 75.7659 46.9275 75.7419 46.8355 75.6939C46.7475 75.6459 46.6735 75.5459 46.6135 75.3939L46.4815 75.0519C46.3255 75.1839 46.1755 75.2999 46.0315 75.3999C45.8875 75.4999 45.7375 75.5859 45.5815 75.6579C45.4295 75.7259 45.2655 75.7759 45.0895 75.8079C44.9175 75.8439 44.7255 75.8619 44.5135 75.8619C44.2295 75.8619 43.9715 75.8259 43.7395 75.7539C43.5075 75.6779 43.3095 75.5679 43.1455 75.4239C42.9855 75.2799 42.8615 75.1019 42.7735 74.8899C42.6855 74.6739 42.6415 74.4259 42.6415 74.1459C42.6415 73.9219 42.6975 73.6959 42.8095 73.4679C42.9215 73.2359 43.1155 73.0259 43.3915 72.8379C43.6675 72.6459 44.0395 72.4859 44.5075 72.3579C44.9755 72.2299 45.5655 72.1579 46.2775 72.1419V71.8779C46.2775 71.5139 46.2015 71.2519 46.0495 71.0919C45.9015 70.9279 45.6895 70.8459 45.4135 70.8459C45.1935 70.8459 45.0135 70.8699 44.8735 70.9179C44.7335 70.9659 44.6075 71.0199 44.4955 71.0799C44.3875 71.1399 44.2815 71.1939 44.1775 71.2419C44.0735 71.2899 43.9495 71.3139 43.8055 71.3139C43.6775 71.3139 43.5695 71.2819 43.4815 71.2179C43.3935 71.1539 43.3215 71.0779 43.2655 70.9899L42.9295 70.4079ZM53.0524 71.2119C52.9124 71.0559 52.7604 70.9479 52.5964 70.8879C52.4324 70.8239 52.2604 70.7919 52.0804 70.7919C51.9084 70.7919 51.7504 70.8259 51.6064 70.8939C51.4624 70.9619 51.3364 71.0719 51.2284 71.2239C51.1244 71.3719 51.0424 71.5659 50.9824 71.8059C50.9224 72.0459 50.8924 72.3359 50.8924 72.6759C50.8924 73.0039 50.9164 73.2799 50.9644 73.5039C51.0124 73.7279 51.0784 73.9099 51.1624 74.0499C51.2504 74.1859 51.3544 74.2839 51.4744 74.3439C51.5944 74.4039 51.7284 74.4339 51.8764 74.4339C52.0124 74.4339 52.1344 74.4219 52.2424 74.3979C52.3544 74.3699 52.4564 74.3319 52.5484 74.2839C52.6404 74.2359 52.7264 74.1759 52.8064 74.1039C52.8904 74.0279 52.9724 73.9419 53.0524 73.8459V71.2119ZM54.9124 66.7839V75.7659H53.7604C53.5284 75.7659 53.3764 75.6619 53.3044 75.4539L53.1604 74.9799C53.0364 75.1119 52.9064 75.2319 52.7704 75.3399C52.6344 75.4479 52.4864 75.5419 52.3264 75.6219C52.1704 75.6979 52.0004 75.7559 51.8164 75.7959C51.6364 75.8399 51.4404 75.8619 51.2284 75.8619C50.9044 75.8619 50.6044 75.7899 50.3284 75.6459C50.0524 75.5019 49.8144 75.2939 49.6144 75.0219C49.4144 74.7499 49.2564 74.4179 49.1404 74.0259C49.0284 73.6299 48.9724 73.1799 48.9724 72.6759C48.9724 72.2119 49.0364 71.7819 49.1644 71.3859C49.2924 70.9859 49.4724 70.6419 49.7044 70.3539C49.9404 70.0619 50.2224 69.8339 50.5504 69.6699C50.8784 69.5059 51.2404 69.4239 51.6364 69.4239C51.9604 69.4239 52.2324 69.4699 52.4524 69.5619C52.6724 69.6539 52.8724 69.7779 53.0524 69.9339V66.7839H54.9124ZM59.3791 73.2339C59.0071 73.2499 58.7011 73.2819 58.4611 73.3299C58.2211 73.3779 58.0311 73.4379 57.8911 73.5099C57.7511 73.5819 57.6531 73.6639 57.5971 73.7559C57.5451 73.8479 57.5191 73.9479 57.5191 74.0559C57.5191 74.2679 57.5771 74.4179 57.6931 74.5059C57.8091 74.5899 57.9791 74.6319 58.2031 74.6319C58.4431 74.6319 58.6531 74.5899 58.8331 74.5059C59.0131 74.4219 59.1951 74.2859 59.3791 74.0979V73.2339ZM56.0311 70.4079C56.4071 70.0759 56.8231 69.8299 57.2791 69.6699C57.7391 69.5059 58.2311 69.4239 58.7551 69.4239C59.1311 69.4239 59.4691 69.4859 59.7691 69.6099C60.0731 69.7299 60.3291 69.8999 60.5371 70.1199C60.7491 70.3359 60.9111 70.5939 61.0231 70.8939C61.1351 71.1939 61.1911 71.5219 61.1911 71.8779V75.7659H60.3391C60.1631 75.7659 60.0291 75.7419 59.9371 75.6939C59.8491 75.6459 59.7751 75.5459 59.7151 75.3939L59.5831 75.0519C59.4271 75.1839 59.2771 75.2999 59.1331 75.3999C58.9891 75.4999 58.8391 75.5859 58.6831 75.6579C58.5311 75.7259 58.3671 75.7759 58.1911 75.8079C58.0191 75.8439 57.8271 75.8619 57.6151 75.8619C57.3311 75.8619 57.0731 75.8259 56.8411 75.7539C56.6091 75.6779 56.4111 75.5679 56.2471 75.4239C56.0871 75.2799 55.9631 75.1019 55.8751 74.8899C55.7871 74.6739 55.7431 74.4259 55.7431 74.1459C55.7431 73.9219 55.7991 73.6959 55.9111 73.4679C56.0231 73.2359 56.2171 73.0259 56.4931 72.8379C56.7691 72.6459 57.1411 72.4859 57.6091 72.3579C58.0771 72.2299 58.6671 72.1579 59.3791 72.1419V71.8779C59.3791 71.5139 59.3031 71.2519 59.1511 71.0919C59.0031 70.9279 58.7911 70.8459 58.5151 70.8459C58.2951 70.8459 58.1151 70.8699 57.9751 70.9179C57.8351 70.9659 57.7091 71.0199 57.5971 71.0799C57.4891 71.1399 57.3831 71.1939 57.2791 71.2419C57.1751 71.2899 57.0511 71.3139 56.9071 71.3139C56.7791 71.3139 56.6711 71.2819 56.5831 71.2179C56.4951 71.1539 56.4231 71.0779 56.3671 70.9899L56.0311 70.4079ZM67.0173 74.0739C67.1573 74.2259 67.3093 74.3339 67.4733 74.3979C67.6373 74.4619 67.8033 74.4939 67.9713 74.4939C68.1473 74.4939 68.3093 74.4619 68.4573 74.3979C68.6053 74.3299 68.7313 74.2219 68.8353 74.0739C68.9433 73.9219 69.0273 73.7239 69.0873 73.4799C69.1473 73.2319 69.1773 72.9279 69.1773 72.5679C69.1773 72.2559 69.1533 71.9919 69.1053 71.7759C69.0613 71.5559 68.9933 71.3779 68.9013 71.2419C68.8133 71.1019 68.7013 71.0019 68.5653 70.9419C68.4333 70.8779 68.2813 70.8459 68.1093 70.8459C67.8813 70.8459 67.6833 70.8959 67.5153 70.9959C67.3473 71.0959 67.1813 71.2419 67.0173 71.4339V74.0739ZM67.0173 70.2039C67.2573 69.9759 67.5193 69.7939 67.8033 69.6579C68.0913 69.5179 68.4113 69.4479 68.7633 69.4479C69.1153 69.4479 69.4353 69.5199 69.7233 69.6639C70.0113 69.8079 70.2573 70.0139 70.4613 70.2819C70.6653 70.5459 70.8213 70.8659 70.9293 71.2419C71.0413 71.6179 71.0973 72.0379 71.0973 72.5019C71.0973 73.0059 71.0333 73.4639 70.9053 73.8759C70.7773 74.2879 70.5953 74.6419 70.3593 74.9379C70.1273 75.2299 69.8493 75.4579 69.5253 75.6219C69.2013 75.7819 68.8433 75.8619 68.4513 75.8619C68.2633 75.8619 68.0953 75.8439 67.9473 75.8079C67.7993 75.7719 67.6633 75.7219 67.5393 75.6579C67.4153 75.5899 67.3013 75.5099 67.1973 75.4179C67.0973 75.3259 66.9993 75.2259 66.9033 75.1179L66.8373 75.4299C66.8053 75.5579 66.7533 75.6459 66.6813 75.6939C66.6093 75.7419 66.5133 75.7659 66.3933 75.7659H65.1573V66.7839H67.0173V70.2039ZM75.918 71.9079C75.918 71.7599 75.898 71.6159 75.858 71.4759C75.822 71.3359 75.76 71.2119 75.672 71.1039C75.588 70.9919 75.476 70.9019 75.336 70.8339C75.196 70.7659 75.026 70.7319 74.826 70.7319C74.474 70.7319 74.198 70.8339 73.998 71.0379C73.798 71.2379 73.666 71.5279 73.602 71.9079H75.918ZM73.578 72.9879C73.638 73.5079 73.796 73.8859 74.052 74.1219C74.308 74.3539 74.638 74.4699 75.042 74.4699C75.258 74.4699 75.444 74.4439 75.6 74.3919C75.756 74.3399 75.894 74.2819 76.014 74.2179C76.138 74.1539 76.25 74.0959 76.35 74.0439C76.454 73.9919 76.562 73.9659 76.674 73.9659C76.822 73.9659 76.934 74.0199 77.01 74.1279L77.55 74.7939C77.358 75.0139 77.15 75.1939 76.926 75.3339C76.706 75.4699 76.478 75.5779 76.242 75.6579C76.01 75.7339 75.776 75.7859 75.54 75.8139C75.308 75.8459 75.086 75.8619 74.874 75.8619C74.438 75.8619 74.028 75.7919 73.644 75.6519C73.264 75.5079 72.93 75.2959 72.642 75.0159C72.358 74.7359 72.132 74.3879 71.964 73.9719C71.8 73.5559 71.718 73.0719 71.718 72.5199C71.718 72.1039 71.788 71.7099 71.928 71.3379C72.072 70.9659 72.276 70.6399 72.54 70.3599C72.808 70.0799 73.13 69.8579 73.506 69.6939C73.886 69.5299 74.314 69.4479 74.79 69.4479C75.202 69.4479 75.578 69.5119 75.918 69.6399C76.262 69.7679 76.556 69.9539 76.8 70.1979C77.048 70.4419 77.24 70.7419 77.376 71.0979C77.516 71.4499 77.586 71.8499 77.586 72.2979C77.586 72.4379 77.58 72.5519 77.568 72.6399C77.556 72.7279 77.534 72.7979 77.502 72.8499C77.47 72.9019 77.426 72.9379 77.37 72.9579C77.318 72.9779 77.25 72.9879 77.166 72.9879H73.578ZM80.2567 70.5039C80.4487 70.1679 80.6687 69.9039 80.9167 69.7119C81.1687 69.5199 81.4567 69.4239 81.7807 69.4239C82.0607 69.4239 82.2887 69.4899 82.4647 69.6219L82.3447 70.9899C82.3247 71.0779 82.2907 71.1379 82.2427 71.1699C82.1987 71.2019 82.1367 71.2179 82.0567 71.2179C82.0247 71.2179 81.9827 71.2159 81.9307 71.2119C81.8787 71.2079 81.8247 71.2039 81.7687 71.1999C81.7127 71.1919 81.6547 71.1859 81.5947 71.1819C81.5387 71.1739 81.4867 71.1699 81.4387 71.1699C81.1667 71.1699 80.9487 71.2419 80.7847 71.3859C80.6247 71.5299 80.4887 71.7299 80.3767 71.9859V75.7659H78.5167V69.5439H79.6207C79.7127 69.5439 79.7887 69.5519 79.8487 69.5679C79.9127 69.5839 79.9647 69.6099 80.0047 69.6459C80.0487 69.6779 80.0807 69.7219 80.1007 69.7779C80.1247 69.8339 80.1447 69.9019 80.1607 69.9819L80.2567 70.5039ZM85.0008 69.5439V75.7659H83.1408V69.5439H85.0008ZM85.1928 67.8399C85.1928 67.9879 85.1628 68.1279 85.1028 68.2599C85.0428 68.3879 84.9608 68.5019 84.8568 68.6019C84.7528 68.6979 84.6308 68.7759 84.4908 68.8359C84.3548 68.8919 84.2088 68.9199 84.0527 68.9199C83.9008 68.9199 83.7588 68.8919 83.6268 68.8359C83.4948 68.7759 83.3768 68.6979 83.2728 68.6019C83.1728 68.5019 83.0928 68.3879 83.0328 68.2599C82.9768 68.1279 82.9488 67.9879 82.9488 67.8399C82.9488 67.6879 82.9768 67.5459 83.0328 67.4139C83.0928 67.2819 83.1728 67.1659 83.2728 67.0659C83.3768 66.9659 83.4948 66.8879 83.6268 66.8319C83.7588 66.7759 83.9008 66.7479 84.0527 66.7479C84.2088 66.7479 84.3548 66.7759 84.4908 66.8319C84.6308 66.8879 84.7528 66.9659 84.8568 67.0659C84.9608 67.1659 85.0428 67.2819 85.1028 67.4139C85.1628 67.5459 85.1928 67.6879 85.1928 67.8399ZM88.524 75.8619C88.228 75.8619 87.966 75.8199 87.738 75.7359C87.514 75.6479 87.324 75.5259 87.168 75.3699C87.016 75.2099 86.9 75.0179 86.82 74.7939C86.74 74.5699 86.7 74.3199 86.7 74.0439V70.8279H86.172C86.076 70.8279 85.994 70.7979 85.926 70.7379C85.858 70.6739 85.824 70.5819 85.824 70.4619V69.7359L86.814 69.5439L87.18 68.0259C87.228 67.8339 87.364 67.7379 87.588 67.7379H88.56V69.5559H90.102V70.8279H88.56V73.9179C88.56 74.0619 88.594 74.1819 88.662 74.2779C88.734 74.3699 88.836 74.4159 88.968 74.4159C89.036 74.4159 89.092 74.4099 89.136 74.3979C89.184 74.3819 89.224 74.3659 89.256 74.3499C89.292 74.3299 89.324 74.3139 89.352 74.3019C89.384 74.2859 89.42 74.2779 89.46 74.2779C89.516 74.2779 89.56 74.2919 89.592 74.3199C89.628 74.3439 89.664 74.3839 89.7 74.4399L90.264 75.3219C90.024 75.5019 89.754 75.6379 89.454 75.7299C89.154 75.8179 88.844 75.8619 88.524 75.8619ZM94.1134 73.2339C93.7414 73.2499 93.4354 73.2819 93.1954 73.3299C92.9554 73.3779 92.7654 73.4379 92.6254 73.5099C92.4854 73.5819 92.3874 73.6639 92.3314 73.7559C92.2794 73.8479 92.2534 73.9479 92.2534 74.0559C92.2534 74.2679 92.3114 74.4179 92.4274 74.5059C92.5434 74.5899 92.7134 74.6319 92.9374 74.6319C93.1774 74.6319 93.3874 74.5899 93.5674 74.5059C93.7474 74.4219 93.9294 74.2859 94.1134 74.0979V73.2339ZM90.7654 70.4079C91.1414 70.0759 91.5574 69.8299 92.0134 69.6699C92.4734 69.5059 92.9654 69.4239 93.4894 69.4239C93.8654 69.4239 94.2034 69.4859 94.5034 69.6099C94.8074 69.7299 95.0634 69.8999 95.2714 70.1199C95.4834 70.3359 95.6454 70.5939 95.7574 70.8939C95.8694 71.1939 95.9254 71.5219 95.9254 71.8779V75.7659H95.0734C94.8974 75.7659 94.7634 75.7419 94.6714 75.6939C94.5834 75.6459 94.5094 75.5459 94.4494 75.3939L94.3174 75.0519C94.1614 75.1839 94.0114 75.2999 93.8674 75.3999C93.7234 75.4999 93.5734 75.5859 93.4174 75.6579C93.2654 75.7259 93.1014 75.7759 92.9254 75.8079C92.7534 75.8439 92.5614 75.8619 92.3494 75.8619C92.0654 75.8619 91.8074 75.8259 91.5754 75.7539C91.3434 75.6779 91.1454 75.5679 90.9814 75.4239C90.8214 75.2799 90.6974 75.1019 90.6094 74.8899C90.5214 74.6739 90.4774 74.4259 90.4774 74.1459C90.4774 73.9219 90.5334 73.6959 90.6454 73.4679C90.7574 73.2359 90.9514 73.0259 91.2274 72.8379C91.5034 72.6459 91.8754 72.4859 92.3434 72.3579C92.8114 72.2299 93.4014 72.1579 94.1134 72.1419V71.8779C94.1134 71.5139 94.0374 71.2519 93.8854 71.0919C93.7374 70.9279 93.5254 70.8459 93.2494 70.8459C93.0294 70.8459 92.8494 70.8699 92.7094 70.9179C92.5694 70.9659 92.4434 71.0199 92.3314 71.0799C92.2234 71.1399 92.1174 71.1939 92.0134 71.2419C91.9094 71.2899 91.7854 71.3139 91.6414 71.3139C91.5134 71.3139 91.4054 71.2819 91.3174 71.2179C91.2294 71.1539 91.1574 71.0779 91.1014 70.9899L90.7654 70.4079ZM103.666 71.2119C103.526 71.0559 103.374 70.9479 103.21 70.8879C103.046 70.8239 102.874 70.7919 102.694 70.7919C102.522 70.7919 102.364 70.8259 102.22 70.8939C102.076 70.9619 101.95 71.0719 101.842 71.2239C101.738 71.3719 101.656 71.5659 101.596 71.8059C101.536 72.0459 101.506 72.3359 101.506 72.6759C101.506 73.0039 101.53 73.2799 101.578 73.5039C101.626 73.7279 101.692 73.9099 101.776 74.0499C101.864 74.1859 101.968 74.2839 102.088 74.3439C102.208 74.4039 102.342 74.4339 102.49 74.4339C102.626 74.4339 102.748 74.4219 102.856 74.3979C102.968 74.3699 103.07 74.3319 103.162 74.2839C103.254 74.2359 103.34 74.1759 103.42 74.1039C103.504 74.0279 103.586 73.9419 103.666 73.8459V71.2119ZM105.526 66.7839V75.7659H104.374C104.142 75.7659 103.99 75.6619 103.918 75.4539L103.774 74.9799C103.65 75.1119 103.52 75.2319 103.384 75.3399C103.248 75.4479 103.1 75.5419 102.94 75.6219C102.784 75.6979 102.614 75.7559 102.43 75.7959C102.25 75.8399 102.054 75.8619 101.842 75.8619C101.518 75.8619 101.218 75.7899 100.942 75.6459C100.666 75.5019 100.428 75.2939 100.228 75.0219C100.028 74.7499 99.8697 74.4179 99.7537 74.0259C99.6417 73.6299 99.5857 73.1799 99.5857 72.6759C99.5857 72.2119 99.6497 71.7819 99.7777 71.3859C99.9057 70.9859 100.086 70.6419 100.318 70.3539C100.554 70.0619 100.836 69.8339 101.164 69.6699C101.492 69.5059 101.854 69.4239 102.25 69.4239C102.574 69.4239 102.846 69.4699 103.066 69.5619C103.286 69.6539 103.486 69.7779 103.666 69.9339V66.7839H105.526ZM108.684 69.5439V75.7659H106.824V69.5439H108.684ZM108.876 67.8399C108.876 67.9879 108.846 68.1279 108.786 68.2599C108.726 68.3879 108.644 68.5019 108.54 68.6019C108.436 68.6979 108.314 68.7759 108.174 68.8359C108.038 68.8919 107.892 68.9199 107.736 68.9199C107.584 68.9199 107.442 68.8919 107.31 68.8359C107.178 68.7759 107.06 68.6979 106.956 68.6019C106.856 68.5019 106.776 68.3879 106.716 68.2599C106.66 68.1279 106.632 67.9879 106.632 67.8399C106.632 67.6879 106.66 67.5459 106.716 67.4139C106.776 67.2819 106.856 67.1659 106.956 67.0659C107.06 66.9659 107.178 66.8879 107.31 66.8319C107.442 66.7759 107.584 66.7479 107.736 66.7479C107.892 66.7479 108.038 66.7759 108.174 66.8319C108.314 66.8879 108.436 66.9659 108.54 67.0659C108.644 67.1659 108.726 67.2819 108.786 67.4139C108.846 67.5459 108.876 67.6879 108.876 67.8399ZM114.475 70.2159C114.595 70.1039 114.719 69.9999 114.847 69.9039C114.975 69.8079 115.111 69.7279 115.255 69.6639C115.403 69.5959 115.561 69.5439 115.729 69.5079C115.901 69.4679 116.087 69.4479 116.287 69.4479C116.627 69.4479 116.927 69.5079 117.187 69.6279C117.451 69.7439 117.673 69.9079 117.853 70.1199C118.033 70.3279 118.169 70.5779 118.261 70.8699C118.353 71.1579 118.399 71.4719 118.399 71.8119V75.7659H116.539V71.8119C116.539 71.5079 116.469 71.2719 116.329 71.1039C116.189 70.9319 115.983 70.8459 115.711 70.8459C115.507 70.8459 115.315 70.8899 115.135 70.9779C114.959 71.0619 114.787 71.1779 114.619 71.3259V75.7659H112.759V69.5439H113.911C114.143 69.5439 114.295 69.6479 114.367 69.8559L114.475 70.2159ZM123.473 71.9079C123.473 71.7599 123.453 71.6159 123.413 71.4759C123.377 71.3359 123.315 71.2119 123.227 71.1039C123.143 70.9919 123.031 70.9019 122.891 70.8339C122.751 70.7659 122.581 70.7319 122.381 70.7319C122.029 70.7319 121.753 70.8339 121.553 71.0379C121.353 71.2379 121.221 71.5279 121.157 71.9079H123.473ZM121.133 72.9879C121.193 73.5079 121.351 73.8859 121.607 74.1219C121.863 74.3539 122.193 74.4699 122.597 74.4699C122.813 74.4699 122.999 74.4439 123.155 74.3919C123.311 74.3399 123.449 74.2819 123.569 74.2179C123.693 74.1539 123.805 74.0959 123.905 74.0439C124.009 73.9919 124.117 73.9659 124.229 73.9659C124.377 73.9659 124.489 74.0199 124.565 74.1279L125.105 74.7939C124.913 75.0139 124.705 75.1939 124.481 75.3339C124.261 75.4699 124.033 75.5779 123.797 75.6579C123.565 75.7339 123.331 75.7859 123.095 75.8139C122.863 75.8459 122.641 75.8619 122.429 75.8619C121.993 75.8619 121.583 75.7919 121.199 75.6519C120.819 75.5079 120.485 75.2959 120.197 75.0159C119.913 74.7359 119.687 74.3879 119.519 73.9719C119.355 73.5559 119.273 73.0719 119.273 72.5199C119.273 72.1039 119.343 71.7099 119.483 71.3379C119.627 70.9659 119.831 70.6399 120.095 70.3599C120.363 70.0799 120.685 69.8579 121.061 69.6939C121.441 69.5299 121.869 69.4479 122.345 69.4479C122.757 69.4479 123.133 69.5119 123.473 69.6399C123.817 69.7679 124.111 69.9539 124.355 70.1979C124.603 70.4419 124.795 70.7419 124.931 71.0979C125.071 71.4499 125.141 71.8499 125.141 72.2979C125.141 72.4379 125.135 72.5519 125.123 72.6399C125.111 72.7279 125.089 72.7979 125.057 72.8499C125.025 72.9019 124.981 72.9379 124.925 72.9579C124.873 72.9779 124.805 72.9879 124.721 72.9879H121.133ZM128.441 72.3279C128.749 72.3279 128.971 72.2519 129.107 72.0999C129.247 71.9439 129.317 71.7439 129.317 71.4999C129.317 71.2479 129.247 71.0499 129.107 70.9059C128.971 70.7619 128.749 70.6899 128.441 70.6899C128.133 70.6899 127.909 70.7619 127.769 70.9059C127.633 71.0499 127.565 71.2479 127.565 71.4999C127.565 71.6199 127.581 71.7299 127.613 71.8299C127.649 71.9299 127.703 72.0179 127.775 72.0939C127.847 72.1659 127.937 72.2239 128.045 72.2679C128.157 72.3079 128.289 72.3279 128.441 72.3279ZM129.881 75.9939C129.881 75.8459 129.815 75.7399 129.683 75.6759C129.551 75.6079 129.379 75.5599 129.167 75.5319C128.955 75.5039 128.717 75.4879 128.453 75.4839C128.193 75.4759 127.933 75.4599 127.673 75.4359C127.557 75.5159 127.461 75.6059 127.385 75.7059C127.313 75.8019 127.277 75.9119 127.277 76.0359C127.277 76.1239 127.295 76.2039 127.331 76.2759C127.371 76.3479 127.439 76.4099 127.535 76.4619C127.631 76.5139 127.759 76.5539 127.919 76.5819C128.083 76.6139 128.289 76.6299 128.537 76.6299C128.805 76.6299 129.025 76.6139 129.197 76.5819C129.369 76.5499 129.505 76.5059 129.605 76.4499C129.709 76.3939 129.781 76.3259 129.821 76.2459C129.861 76.1699 129.881 76.0859 129.881 75.9939ZM131.717 69.7359V70.4139C131.717 70.5179 131.687 70.5999 131.627 70.6599C131.571 70.7199 131.473 70.7659 131.333 70.7979L130.883 70.8999C130.907 70.9879 130.925 71.0779 130.937 71.1699C130.953 71.2619 130.961 71.3579 130.961 71.4579C130.961 71.7699 130.895 72.0499 130.763 72.2979C130.635 72.5459 130.457 72.7579 130.229 72.9339C130.005 73.1059 129.739 73.2399 129.431 73.3359C129.123 73.4279 128.793 73.4739 128.441 73.4739C128.345 73.4739 128.251 73.4719 128.159 73.4679C128.067 73.4599 127.977 73.4479 127.889 73.4319C127.753 73.5159 127.685 73.6099 127.685 73.7139C127.685 73.8179 127.741 73.8939 127.853 73.9419C127.965 73.9859 128.113 74.0179 128.297 74.0379C128.481 74.0539 128.689 74.0659 128.921 74.0739C129.157 74.0779 129.397 74.0919 129.641 74.1159C129.885 74.1359 130.123 74.1719 130.355 74.2239C130.591 74.2759 130.801 74.3599 130.985 74.4759C131.169 74.5919 131.317 74.7479 131.429 74.9439C131.541 75.1359 131.597 75.3819 131.597 75.6819C131.597 75.9619 131.529 76.2359 131.393 76.5039C131.257 76.7719 131.057 77.0099 130.793 77.2179C130.529 77.4259 130.205 77.5919 129.821 77.7159C129.437 77.8439 128.997 77.9079 128.501 77.9079C128.013 77.9079 127.591 77.8619 127.235 77.7699C126.883 77.6779 126.589 77.5559 126.353 77.4039C126.121 77.2559 125.949 77.0839 125.837 76.8879C125.725 76.6919 125.669 76.4879 125.669 76.2759C125.669 75.9999 125.749 75.7699 125.909 75.5859C126.069 75.4019 126.293 75.2539 126.581 75.1419C126.429 75.0499 126.309 74.9319 126.221 74.7879C126.133 74.6439 126.089 74.4579 126.089 74.2299C126.089 74.1379 126.105 74.0419 126.137 73.9419C126.169 73.8379 126.219 73.7379 126.287 73.6419C126.359 73.5419 126.447 73.4479 126.551 73.3599C126.655 73.2719 126.779 73.1939 126.923 73.1259C126.599 72.9539 126.343 72.7279 126.155 72.4479C125.967 72.1639 125.873 71.8339 125.873 71.4579C125.873 71.1459 125.939 70.8659 126.071 70.6179C126.203 70.3659 126.383 70.1539 126.611 69.9819C126.843 69.8059 127.115 69.6719 127.427 69.5799C127.739 69.4839 128.077 69.4359 128.441 69.4359C128.969 69.4359 129.437 69.5359 129.845 69.7359H131.717ZM135.703 73.2339C135.331 73.2499 135.025 73.2819 134.785 73.3299C134.545 73.3779 134.355 73.4379 134.215 73.5099C134.075 73.5819 133.977 73.6639 133.921 73.7559C133.869 73.8479 133.843 73.9479 133.843 74.0559C133.843 74.2679 133.901 74.4179 134.017 74.5059C134.133 74.5899 134.303 74.6319 134.527 74.6319C134.767 74.6319 134.977 74.5899 135.157 74.5059C135.337 74.4219 135.519 74.2859 135.703 74.0979V73.2339ZM132.355 70.4079C132.731 70.0759 133.147 69.8299 133.603 69.6699C134.063 69.5059 134.555 69.4239 135.079 69.4239C135.455 69.4239 135.793 69.4859 136.093 69.6099C136.397 69.7299 136.653 69.8999 136.861 70.1199C137.073 70.3359 137.235 70.5939 137.347 70.8939C137.459 71.1939 137.515 71.5219 137.515 71.8779V75.7659H136.663C136.487 75.7659 136.353 75.7419 136.261 75.6939C136.173 75.6459 136.099 75.5459 136.039 75.3939L135.907 75.0519C135.751 75.1839 135.601 75.2999 135.457 75.3999C135.313 75.4999 135.163 75.5859 135.007 75.6579C134.855 75.7259 134.691 75.7759 134.515 75.8079C134.343 75.8439 134.151 75.8619 133.939 75.8619C133.655 75.8619 133.397 75.8259 133.165 75.7539C132.933 75.6779 132.735 75.5679 132.571 75.4239C132.411 75.2799 132.287 75.1019 132.199 74.8899C132.111 74.6739 132.067 74.4259 132.067 74.1459C132.067 73.9219 132.123 73.6959 132.235 73.4679C132.347 73.2359 132.541 73.0259 132.817 72.8379C133.093 72.6459 133.465 72.4859 133.933 72.3579C134.401 72.2299 134.991 72.1579 135.703 72.1419V71.8779C135.703 71.5139 135.627 71.2519 135.475 71.0919C135.327 70.9279 135.115 70.8459 134.839 70.8459C134.619 70.8459 134.439 70.8699 134.299 70.9179C134.159 70.9659 134.033 71.0199 133.921 71.0799C133.813 71.1399 133.707 71.1939 133.603 71.2419C133.499 71.2899 133.375 71.3139 133.231 71.3139C133.103 71.3139 132.995 71.2819 132.907 71.2179C132.819 71.1539 132.747 71.0779 132.691 70.9899L132.355 70.4079ZM140.444 70.5039C140.636 70.1679 140.856 69.9039 141.104 69.7119C141.356 69.5199 141.644 69.4239 141.968 69.4239C142.248 69.4239 142.476 69.4899 142.652 69.6219L142.532 70.9899C142.512 71.0779 142.478 71.1379 142.43 71.1699C142.386 71.2019 142.324 71.2179 142.244 71.2179C142.212 71.2179 142.17 71.2159 142.118 71.2119C142.066 71.2079 142.012 71.2039 141.956 71.1999C141.9 71.1919 141.842 71.1859 141.782 71.1819C141.726 71.1739 141.674 71.1699 141.626 71.1699C141.354 71.1699 141.136 71.2419 140.972 71.3859C140.812 71.5299 140.676 71.7299 140.564 71.9859V75.7659H138.704V69.5439H139.808C139.9 69.5439 139.976 69.5519 140.036 69.5679C140.1 69.5839 140.152 69.6099 140.192 69.6459C140.236 69.6779 140.268 69.7219 140.288 69.7779C140.312 69.8339 140.332 69.9019 140.348 69.9819L140.444 70.5039ZM146.438 73.2339C146.066 73.2499 145.76 73.2819 145.52 73.3299C145.28 73.3779 145.09 73.4379 144.95 73.5099C144.81 73.5819 144.712 73.6639 144.656 73.7559C144.604 73.8479 144.578 73.9479 144.578 74.0559C144.578 74.2679 144.636 74.4179 144.752 74.5059C144.868 74.5899 145.038 74.6319 145.262 74.6319C145.502 74.6319 145.712 74.5899 145.892 74.5059C146.072 74.4219 146.254 74.2859 146.438 74.0979V73.2339ZM143.09 70.4079C143.466 70.0759 143.882 69.8299 144.338 69.6699C144.798 69.5059 145.29 69.4239 145.814 69.4239C146.19 69.4239 146.528 69.4859 146.828 69.6099C147.132 69.7299 147.388 69.8999 147.596 70.1199C147.808 70.3359 147.97 70.5939 148.082 70.8939C148.194 71.1939 148.25 71.5219 148.25 71.8779V75.7659H147.398C147.222 75.7659 147.088 75.7419 146.996 75.6939C146.908 75.6459 146.834 75.5459 146.774 75.3939L146.642 75.0519C146.486 75.1839 146.336 75.2999 146.192 75.3999C146.048 75.4999 145.898 75.5859 145.742 75.6579C145.59 75.7259 145.426 75.7759 145.25 75.8079C145.078 75.8439 144.886 75.8619 144.674 75.8619C144.39 75.8619 144.132 75.8259 143.9 75.7539C143.668 75.6779 143.47 75.5679 143.306 75.4239C143.146 75.2799 143.022 75.1019 142.934 74.8899C142.846 74.6739 142.802 74.4259 142.802 74.1459C142.802 73.9219 142.858 73.6959 142.97 73.4679C143.082 73.2359 143.276 73.0259 143.552 72.8379C143.828 72.6459 144.2 72.4859 144.668 72.3579C145.136 72.2299 145.726 72.1579 146.438 72.1419V71.8779C146.438 71.5139 146.362 71.2519 146.21 71.0919C146.062 70.9279 145.85 70.8459 145.574 70.8459C145.354 70.8459 145.174 70.8699 145.034 70.9179C144.894 70.9659 144.768 71.0199 144.656 71.0799C144.548 71.1399 144.442 71.1939 144.338 71.2419C144.234 71.2899 144.11 71.3139 143.966 71.3139C143.838 71.3139 143.73 71.2819 143.642 71.2179C143.554 71.1539 143.482 71.0779 143.426 70.9899L143.09 70.4079ZM154.118 69.5439V75.7659H152.258V69.5439H154.118ZM154.31 67.8399C154.31 67.9879 154.28 68.1279 154.22 68.2599C154.16 68.3879 154.078 68.5019 153.974 68.6019C153.87 68.6979 153.748 68.7759 153.608 68.8359C153.472 68.8919 153.326 68.9199 153.17 68.9199C153.018 68.9199 152.876 68.8919 152.744 68.8359C152.612 68.7759 152.494 68.6979 152.39 68.6019C152.29 68.5019 152.21 68.3879 152.15 68.2599C152.094 68.1279 152.066 67.9879 152.066 67.8399C152.066 67.6879 152.094 67.5459 152.15 67.4139C152.21 67.2819 152.29 67.1659 152.39 67.0659C152.494 66.9659 152.612 66.8879 152.744 66.8319C152.876 66.7759 153.018 66.7479 153.17 66.7479C153.326 66.7479 153.472 66.7759 153.608 66.8319C153.748 66.8879 153.87 66.9659 153.974 67.0659C154.078 67.1659 154.16 67.2819 154.22 67.4139C154.28 67.5459 154.31 67.6879 154.31 67.8399ZM157.131 70.2159C157.251 70.1039 157.375 69.9999 157.503 69.9039C157.631 69.8079 157.767 69.7279 157.911 69.6639C158.059 69.5959 158.217 69.5439 158.385 69.5079C158.557 69.4679 158.743 69.4479 158.943 69.4479C159.283 69.4479 159.583 69.5079 159.843 69.6279C160.107 69.7439 160.329 69.9079 160.509 70.1199C160.689 70.3279 160.825 70.5779 160.917 70.8699C161.009 71.1579 161.055 71.4719 161.055 71.8119V75.7659H159.195V71.8119C159.195 71.5079 159.125 71.2719 158.985 71.1039C158.845 70.9319 158.639 70.8459 158.367 70.8459C158.163 70.8459 157.971 70.8899 157.791 70.9779C157.615 71.0619 157.443 71.1779 157.275 71.3259V75.7659H155.415V69.5439H156.567C156.799 69.5439 156.951 69.6479 157.023 69.8559L157.131 70.2159ZM164.161 69.5439V75.7659H162.301V69.5439H164.161ZM164.353 67.8399C164.353 67.9879 164.323 68.1279 164.263 68.2599C164.203 68.3879 164.121 68.5019 164.017 68.6019C163.913 68.6979 163.791 68.7759 163.651 68.8359C163.515 68.8919 163.369 68.9199 163.213 68.9199C163.061 68.9199 162.919 68.8919 162.787 68.8359C162.655 68.7759 162.537 68.6979 162.433 68.6019C162.333 68.5019 162.253 68.3879 162.193 68.2599C162.137 68.1279 162.109 67.9879 162.109 67.8399C162.109 67.6879 162.137 67.5459 162.193 67.4139C162.253 67.2819 162.333 67.1659 162.433 67.0659C162.537 66.9659 162.655 66.8879 162.787 66.8319C162.919 66.7759 163.061 66.7479 163.213 66.7479C163.369 66.7479 163.515 66.7759 163.651 66.8319C163.791 66.8879 163.913 66.9659 164.017 67.0659C164.121 67.1659 164.203 67.2819 164.263 67.4139C164.323 67.5459 164.353 67.6879 164.353 67.8399ZM173.841 69.5439L170.517 77.3799C170.461 77.5039 170.393 77.5939 170.313 77.6499C170.233 77.7099 170.105 77.7399 169.929 77.7399H168.537L169.737 75.2199L167.253 69.5439H168.897C169.041 69.5439 169.151 69.5759 169.227 69.6399C169.307 69.7039 169.365 69.7799 169.401 69.8679L170.421 72.5499C170.517 72.7939 170.595 73.0439 170.655 73.2999C170.699 73.1719 170.743 73.0439 170.787 72.9159C170.831 72.7879 170.877 72.6619 170.925 72.5379L171.849 69.8679C171.885 69.7759 171.949 69.6999 172.041 69.6399C172.133 69.5759 172.233 69.5439 172.341 69.5439H173.841ZM177.445 73.2339C177.073 73.2499 176.767 73.2819 176.527 73.3299C176.287 73.3779 176.097 73.4379 175.957 73.5099C175.817 73.5819 175.719 73.6639 175.663 73.7559C175.611 73.8479 175.585 73.9479 175.585 74.0559C175.585 74.2679 175.643 74.4179 175.759 74.5059C175.875 74.5899 176.045 74.6319 176.269 74.6319C176.509 74.6319 176.719 74.5899 176.899 74.5059C177.079 74.4219 177.261 74.2859 177.445 74.0979V73.2339ZM174.097 70.4079C174.473 70.0759 174.889 69.8299 175.345 69.6699C175.805 69.5059 176.297 69.4239 176.821 69.4239C177.197 69.4239 177.535 69.4859 177.835 69.6099C178.139 69.7299 178.395 69.8999 178.603 70.1199C178.815 70.3359 178.977 70.5939 179.089 70.8939C179.201 71.1939 179.257 71.5219 179.257 71.8779V75.7659H178.405C178.229 75.7659 178.095 75.7419 178.003 75.6939C177.915 75.6459 177.841 75.5459 177.781 75.3939L177.649 75.0519C177.493 75.1839 177.343 75.2999 177.199 75.3999C177.055 75.4999 176.905 75.5859 176.749 75.6579C176.597 75.7259 176.433 75.7759 176.257 75.8079C176.085 75.8439 175.893 75.8619 175.681 75.8619C175.397 75.8619 175.139 75.8259 174.907 75.7539C174.675 75.6779 174.477 75.5679 174.313 75.4239C174.153 75.2799 174.029 75.1019 173.941 74.8899C173.853 74.6739 173.809 74.4259 173.809 74.1459C173.809 73.9219 173.865 73.6959 173.977 73.4679C174.089 73.2359 174.283 73.0259 174.559 72.8379C174.835 72.6459 175.207 72.4859 175.675 72.3579C176.143 72.2299 176.733 72.1579 177.445 72.1419V71.8779C177.445 71.5139 177.369 71.2519 177.217 71.0919C177.069 70.9279 176.857 70.8459 176.581 70.8459C176.361 70.8459 176.181 70.8699 176.041 70.9179C175.901 70.9659 175.775 71.0199 175.663 71.0799C175.555 71.1399 175.449 71.1939 175.345 71.2419C175.241 71.2899 175.117 71.3139 174.973 71.3139C174.845 71.3139 174.737 71.2819 174.649 71.2179C174.561 71.1539 174.489 71.0779 174.433 70.9899L174.097 70.4079ZM182.162 70.2159C182.282 70.1039 182.406 69.9999 182.534 69.9039C182.662 69.8079 182.798 69.7279 182.942 69.6639C183.09 69.5959 183.248 69.5439 183.416 69.5079C183.588 69.4679 183.774 69.4479 183.974 69.4479C184.314 69.4479 184.614 69.5079 184.874 69.6279C185.138 69.7439 185.36 69.9079 185.54 70.1199C185.72 70.3279 185.856 70.5779 185.948 70.8699C186.04 71.1579 186.086 71.4719 186.086 71.8119V75.7659H184.226V71.8119C184.226 71.5079 184.156 71.2719 184.016 71.1039C183.876 70.9319 183.67 70.8459 183.398 70.8459C183.194 70.8459 183.002 70.8899 182.822 70.9779C182.646 71.0619 182.474 71.1779 182.306 71.3259V75.7659H180.446V69.5439H181.598C181.83 69.5439 181.982 69.6479 182.054 69.8559L182.162 70.2159ZM189.66 72.3279C189.968 72.3279 190.19 72.2519 190.326 72.0999C190.466 71.9439 190.536 71.7439 190.536 71.4999C190.536 71.2479 190.466 71.0499 190.326 70.9059C190.19 70.7619 189.968 70.6899 189.66 70.6899C189.352 70.6899 189.128 70.7619 188.988 70.9059C188.852 71.0499 188.784 71.2479 188.784 71.4999C188.784 71.6199 188.8 71.7299 188.832 71.8299C188.868 71.9299 188.922 72.0179 188.994 72.0939C189.066 72.1659 189.156 72.2239 189.264 72.2679C189.376 72.3079 189.508 72.3279 189.66 72.3279ZM191.1 75.9939C191.1 75.8459 191.034 75.7399 190.902 75.6759C190.77 75.6079 190.598 75.5599 190.386 75.5319C190.174 75.5039 189.936 75.4879 189.672 75.4839C189.412 75.4759 189.152 75.4599 188.892 75.4359C188.776 75.5159 188.68 75.6059 188.604 75.7059C188.532 75.8019 188.496 75.9119 188.496 76.0359C188.496 76.1239 188.514 76.2039 188.55 76.2759C188.59 76.3479 188.658 76.4099 188.754 76.4619C188.85 76.5139 188.978 76.5539 189.138 76.5819C189.302 76.6139 189.508 76.6299 189.756 76.6299C190.024 76.6299 190.244 76.6139 190.416 76.5819C190.588 76.5499 190.724 76.5059 190.824 76.4499C190.928 76.3939 191 76.3259 191.04 76.2459C191.08 76.1699 191.1 76.0859 191.1 75.9939ZM192.936 69.7359V70.4139C192.936 70.5179 192.906 70.5999 192.846 70.6599C192.79 70.7199 192.692 70.7659 192.552 70.7979L192.102 70.8999C192.126 70.9879 192.144 71.0779 192.156 71.1699C192.172 71.2619 192.18 71.3579 192.18 71.4579C192.18 71.7699 192.114 72.0499 191.982 72.2979C191.854 72.5459 191.676 72.7579 191.448 72.9339C191.224 73.1059 190.958 73.2399 190.65 73.3359C190.342 73.4279 190.012 73.4739 189.66 73.4739C189.564 73.4739 189.47 73.4719 189.378 73.4679C189.286 73.4599 189.196 73.4479 189.108 73.4319C188.972 73.5159 188.904 73.6099 188.904 73.7139C188.904 73.8179 188.96 73.8939 189.072 73.9419C189.184 73.9859 189.332 74.0179 189.516 74.0379C189.7 74.0539 189.908 74.0659 190.14 74.0739C190.376 74.0779 190.616 74.0919 190.86 74.1159C191.104 74.1359 191.342 74.1719 191.574 74.2239C191.81 74.2759 192.02 74.3599 192.204 74.4759C192.388 74.5919 192.536 74.7479 192.648 74.9439C192.76 75.1359 192.816 75.3819 192.816 75.6819C192.816 75.9619 192.748 76.2359 192.612 76.5039C192.476 76.7719 192.276 77.0099 192.012 77.2179C191.748 77.4259 191.424 77.5919 191.04 77.7159C190.656 77.8439 190.216 77.9079 189.72 77.9079C189.232 77.9079 188.81 77.8619 188.454 77.7699C188.102 77.6779 187.808 77.5559 187.572 77.4039C187.34 77.2559 187.168 77.0839 187.056 76.8879C186.944 76.6919 186.888 76.4879 186.888 76.2759C186.888 75.9999 186.968 75.7699 187.128 75.5859C187.288 75.4019 187.512 75.2539 187.8 75.1419C187.648 75.0499 187.528 74.9319 187.44 74.7879C187.352 74.6439 187.308 74.4579 187.308 74.2299C187.308 74.1379 187.324 74.0419 187.356 73.9419C187.388 73.8379 187.438 73.7379 187.506 73.6419C187.578 73.5419 187.666 73.4479 187.77 73.3599C187.874 73.2719 187.998 73.1939 188.142 73.1259C187.818 72.9539 187.562 72.7279 187.374 72.4479C187.186 72.1639 187.092 71.8339 187.092 71.4579C187.092 71.1459 187.158 70.8659 187.29 70.6179C187.422 70.3659 187.602 70.1539 187.83 69.9819C188.062 69.8059 188.334 69.6719 188.646 69.5799C188.958 69.4839 189.296 69.4359 189.66 69.4359C190.188 69.4359 190.656 69.5359 191.064 69.7359H192.936ZM200.263 71.2119C200.123 71.0559 199.971 70.9479 199.807 70.8879C199.643 70.8239 199.471 70.7919 199.291 70.7919C199.119 70.7919 198.961 70.8259 198.817 70.8939C198.673 70.9619 198.547 71.0719 198.439 71.2239C198.335 71.3719 198.253 71.5659 198.193 71.8059C198.133 72.0459 198.103 72.3359 198.103 72.6759C198.103 73.0039 198.127 73.2799 198.175 73.5039C198.223 73.7279 198.289 73.9099 198.373 74.0499C198.461 74.1859 198.565 74.2839 198.685 74.3439C198.805 74.4039 198.939 74.4339 199.087 74.4339C199.223 74.4339 199.345 74.4219 199.453 74.3979C199.565 74.3699 199.667 74.3319 199.759 74.2839C199.851 74.2359 199.937 74.1759 200.017 74.1039C200.101 74.0279 200.183 73.9419 200.263 73.8459V71.2119ZM202.123 66.7839V75.7659H200.971C200.739 75.7659 200.587 75.6619 200.515 75.4539L200.371 74.9799C200.247 75.1119 200.117 75.2319 199.981 75.3399C199.845 75.4479 199.697 75.5419 199.537 75.6219C199.381 75.6979 199.211 75.7559 199.027 75.7959C198.847 75.8399 198.651 75.8619 198.439 75.8619C198.115 75.8619 197.815 75.7899 197.539 75.6459C197.263 75.5019 197.025 75.2939 196.825 75.0219C196.625 74.7499 196.467 74.4179 196.351 74.0259C196.239 73.6299 196.183 73.1799 196.183 72.6759C196.183 72.2119 196.247 71.7819 196.375 71.3859C196.503 70.9859 196.683 70.6419 196.915 70.3539C197.151 70.0619 197.433 69.8339 197.761 69.6699C198.089 69.5059 198.451 69.4239 198.847 69.4239C199.171 69.4239 199.443 69.4699 199.663 69.5619C199.883 69.6539 200.083 69.7779 200.263 69.9339V66.7839H202.123ZM206.59 73.2339C206.218 73.2499 205.912 73.2819 205.672 73.3299C205.432 73.3779 205.242 73.4379 205.102 73.5099C204.962 73.5819 204.864 73.6639 204.808 73.7559C204.756 73.8479 204.73 73.9479 204.73 74.0559C204.73 74.2679 204.788 74.4179 204.904 74.5059C205.02 74.5899 205.19 74.6319 205.414 74.6319C205.654 74.6319 205.864 74.5899 206.044 74.5059C206.224 74.4219 206.406 74.2859 206.59 74.0979V73.2339ZM203.242 70.4079C203.618 70.0759 204.034 69.8299 204.49 69.6699C204.95 69.5059 205.442 69.4239 205.966 69.4239C206.342 69.4239 206.68 69.4859 206.98 69.6099C207.284 69.7299 207.54 69.8999 207.748 70.1199C207.96 70.3359 208.122 70.5939 208.234 70.8939C208.346 71.1939 208.402 71.5219 208.402 71.8779V75.7659H207.55C207.374 75.7659 207.24 75.7419 207.148 75.6939C207.06 75.6459 206.986 75.5459 206.926 75.3939L206.794 75.0519C206.638 75.1839 206.488 75.2999 206.344 75.3999C206.2 75.4999 206.05 75.5859 205.894 75.6579C205.742 75.7259 205.578 75.7759 205.402 75.8079C205.23 75.8439 205.038 75.8619 204.826 75.8619C204.542 75.8619 204.284 75.8259 204.052 75.7539C203.82 75.6779 203.622 75.5679 203.458 75.4239C203.298 75.2799 203.174 75.1019 203.086 74.8899C202.998 74.6739 202.954 74.4259 202.954 74.1459C202.954 73.9219 203.01 73.6959 203.122 73.4679C203.234 73.2359 203.428 73.0259 203.704 72.8379C203.98 72.6459 204.352 72.4859 204.82 72.3579C205.288 72.2299 205.878 72.1579 206.59 72.1419V71.8779C206.59 71.5139 206.514 71.2519 206.362 71.0919C206.214 70.9279 206.002 70.8459 205.726 70.8459C205.506 70.8459 205.326 70.8699 205.186 70.9179C205.046 70.9659 204.92 71.0199 204.808 71.0799C204.7 71.1399 204.594 71.1939 204.49 71.2419C204.386 71.2899 204.262 71.3139 204.118 71.3139C203.99 71.3139 203.882 71.2819 203.794 71.2179C203.706 71.1539 203.634 71.0779 203.578 70.9899L203.242 70.4079ZM211.451 74.0739C211.591 74.2259 211.743 74.3339 211.907 74.3979C212.071 74.4619 212.243 74.4939 212.423 74.4939C212.595 74.4939 212.753 74.4599 212.897 74.3919C213.041 74.3239 213.165 74.2159 213.269 74.0679C213.377 73.9159 213.461 73.7199 213.521 73.4799C213.581 73.2399 213.611 72.9479 213.611 72.6039C213.611 72.2759 213.587 71.9999 213.539 71.7759C213.491 71.5519 213.423 71.3719 213.335 71.2359C213.251 71.0959 213.149 70.9959 213.029 70.9359C212.909 70.8759 212.775 70.8459 212.627 70.8459C212.355 70.8459 212.131 70.8959 211.955 70.9959C211.779 71.0959 211.611 71.2419 211.451 71.4339V74.0739ZM211.337 70.3119C211.581 70.0519 211.857 69.8399 212.165 69.6759C212.477 69.5079 212.847 69.4239 213.275 69.4239C213.599 69.4239 213.899 69.4959 214.175 69.6399C214.451 69.7839 214.689 69.9919 214.889 70.2639C215.089 70.5359 215.245 70.8699 215.357 71.2659C215.473 71.6579 215.531 72.1039 215.531 72.6039C215.531 73.0719 215.465 73.5039 215.333 73.8999C215.205 74.2959 215.023 74.6399 214.787 74.9319C214.555 75.2239 214.275 75.4519 213.947 75.6159C213.623 75.7799 213.263 75.8619 212.867 75.8619C212.543 75.8619 212.271 75.8159 212.051 75.7239C211.831 75.6319 211.631 75.5079 211.451 75.3519V77.7399H209.591V69.5439H210.743C210.975 69.5439 211.127 69.6479 211.199 69.8559L211.337 70.3119ZM219.703 73.2339C219.331 73.2499 219.025 73.2819 218.785 73.3299C218.545 73.3779 218.355 73.4379 218.215 73.5099C218.075 73.5819 217.977 73.6639 217.921 73.7559C217.869 73.8479 217.843 73.9479 217.843 74.0559C217.843 74.2679 217.901 74.4179 218.017 74.5059C218.133 74.5899 218.303 74.6319 218.527 74.6319C218.767 74.6319 218.977 74.5899 219.157 74.5059C219.337 74.4219 219.519 74.2859 219.703 74.0979V73.2339ZM216.355 70.4079C216.731 70.0759 217.147 69.8299 217.603 69.6699C218.063 69.5059 218.555 69.4239 219.079 69.4239C219.455 69.4239 219.793 69.4859 220.093 69.6099C220.397 69.7299 220.653 69.8999 220.861 70.1199C221.073 70.3359 221.235 70.5939 221.347 70.8939C221.459 71.1939 221.515 71.5219 221.515 71.8779V75.7659H220.663C220.487 75.7659 220.353 75.7419 220.261 75.6939C220.173 75.6459 220.099 75.5459 220.039 75.3939L219.907 75.0519C219.751 75.1839 219.601 75.2999 219.457 75.3999C219.313 75.4999 219.163 75.5859 219.007 75.6579C218.855 75.7259 218.691 75.7759 218.515 75.8079C218.343 75.8439 218.151 75.8619 217.939 75.8619C217.655 75.8619 217.397 75.8259 217.165 75.7539C216.933 75.6779 216.735 75.5679 216.571 75.4239C216.411 75.2799 216.287 75.1019 216.199 74.8899C216.111 74.6739 216.067 74.4259 216.067 74.1459C216.067 73.9219 216.123 73.6959 216.235 73.4679C216.347 73.2359 216.541 73.0259 216.817 72.8379C217.093 72.6459 217.465 72.4859 217.933 72.3579C218.401 72.2299 218.991 72.1579 219.703 72.1419V71.8779C219.703 71.5139 219.627 71.2519 219.475 71.0919C219.327 70.9279 219.115 70.8459 218.839 70.8459C218.619 70.8459 218.439 70.8699 218.299 70.9179C218.159 70.9659 218.033 71.0199 217.921 71.0799C217.813 71.1399 217.707 71.1939 217.603 71.2419C217.499 71.2899 217.375 71.3139 217.231 71.3139C217.103 71.3139 216.995 71.2819 216.907 71.2179C216.819 71.1539 216.747 71.0779 216.691 70.9899L216.355 70.4079ZM224.836 75.8619C224.54 75.8619 224.278 75.8199 224.05 75.7359C223.826 75.6479 223.636 75.5259 223.48 75.3699C223.328 75.2099 223.212 75.0179 223.132 74.7939C223.052 74.5699 223.012 74.3199 223.012 74.0439V70.8279H222.484C222.388 70.8279 222.306 70.7979 222.238 70.7379C222.17 70.6739 222.136 70.5819 222.136 70.4619V69.7359L223.126 69.5439L223.492 68.0259C223.54 67.8339 223.676 67.7379 223.9 67.7379H224.872V69.5559H226.414V70.8279H224.872V73.9179C224.872 74.0619 224.906 74.1819 224.974 74.2779C225.046 74.3699 225.148 74.4159 225.28 74.4159C225.348 74.4159 225.404 74.4099 225.448 74.3979C225.496 74.3819 225.536 74.3659 225.568 74.3499C225.604 74.3299 225.636 74.3139 225.664 74.3019C225.696 74.2859 225.732 74.2779 225.772 74.2779C225.828 74.2779 225.872 74.2919 225.904 74.3199C225.94 74.3439 225.976 74.3839 226.012 74.4399L226.576 75.3219C226.336 75.5019 226.066 75.6379 225.766 75.7299C225.466 75.8179 225.156 75.8619 224.836 75.8619ZM84.7244 84.7839V89.8179H85.0004C85.1164 89.8179 85.2044 89.8019 85.2644 89.7699C85.3244 89.7339 85.3844 89.6759 85.4444 89.5959L86.6204 87.8439C86.6924 87.7439 86.7744 87.6699 86.8664 87.6219C86.9584 87.5699 87.0764 87.5439 87.2204 87.5439H88.9244L87.3164 89.7579C87.1644 89.9579 86.9844 90.1219 86.7764 90.2499C86.8684 90.3179 86.9524 90.3979 87.0284 90.4899C87.1044 90.5779 87.1764 90.6779 87.2444 90.7899L88.9964 93.7659H87.3164C87.1764 93.7659 87.0564 93.7439 86.9564 93.6999C86.8564 93.6519 86.7724 93.5699 86.7044 93.4539L85.5284 91.2519C85.4724 91.1519 85.4144 91.0879 85.3544 91.0599C85.2944 91.0279 85.2044 91.0119 85.0844 91.0119H84.7244V93.7659H82.8644V84.7839H84.7244ZM92.7775 91.2339C92.4055 91.2499 92.0995 91.2819 91.8595 91.3299C91.6195 91.3779 91.4295 91.4379 91.2895 91.5099C91.1495 91.5819 91.0515 91.6639 90.9955 91.7559C90.9435 91.8479 90.9175 91.9479 90.9175 92.0559C90.9175 92.2679 90.9755 92.4179 91.0915 92.5059C91.2075 92.5899 91.3775 92.6319 91.6015 92.6319C91.8415 92.6319 92.0515 92.5899 92.2315 92.5059C92.4115 92.4219 92.5935 92.2859 92.7775 92.0979V91.2339ZM89.4295 88.4079C89.8055 88.0759 90.2215 87.8299 90.6775 87.6699C91.1375 87.5059 91.6295 87.4239 92.1535 87.4239C92.5295 87.4239 92.8675 87.4859 93.1675 87.6099C93.4715 87.7299 93.7275 87.8999 93.9355 88.1199C94.1475 88.3359 94.3095 88.5939 94.4215 88.8939C94.5335 89.1939 94.5895 89.5219 94.5895 89.8779V93.7659H93.7375C93.5615 93.7659 93.4275 93.7419 93.3355 93.6939C93.2475 93.6459 93.1735 93.5459 93.1135 93.3939L92.9815 93.0519C92.8255 93.1839 92.6755 93.2999 92.5315 93.3999C92.3875 93.4999 92.2375 93.5859 92.0815 93.6579C91.9295 93.7259 91.7655 93.7759 91.5895 93.8079C91.4175 93.8439 91.2255 93.8619 91.0135 93.8619C90.7295 93.8619 90.4715 93.8259 90.2395 93.7539C90.0075 93.6779 89.8095 93.5679 89.6455 93.4239C89.4855 93.2799 89.3615 93.1019 89.2735 92.8899C89.1855 92.6739 89.1415 92.4259 89.1415 92.1459C89.1415 91.9219 89.1975 91.6959 89.3095 91.4679C89.4215 91.2359 89.6155 91.0259 89.8915 90.8379C90.1675 90.6459 90.5395 90.4859 91.0075 90.3579C91.4755 90.2299 92.0655 90.1579 92.7775 90.1419V89.8779C92.7775 89.5139 92.7015 89.2519 92.5495 89.0919C92.4015 88.9279 92.1895 88.8459 91.9135 88.8459C91.6935 88.8459 91.5135 88.8699 91.3735 88.9179C91.2335 88.9659 91.1075 89.0199 90.9955 89.0799C90.8875 89.1399 90.7815 89.1939 90.6775 89.2419C90.5735 89.2899 90.4495 89.3139 90.3055 89.3139C90.1775 89.3139 90.0695 89.2819 89.9815 89.2179C89.8935 89.1539 89.8215 89.0779 89.7655 88.9899L89.4295 88.4079ZM95.7784 93.7659V87.5439H96.9304C97.1624 87.5439 97.3144 87.6479 97.3864 87.8559L97.4884 88.1919C97.5924 88.0839 97.7004 87.9859 97.8124 87.8979C97.9244 87.8059 98.0444 87.7279 98.1724 87.6639C98.3044 87.5959 98.4444 87.5439 98.5924 87.5079C98.7444 87.4679 98.9104 87.4479 99.0904 87.4479C99.4664 87.4479 99.7764 87.5459 100.02 87.7419C100.268 87.9339 100.456 88.1919 100.584 88.5159C100.688 88.3239 100.814 88.1599 100.962 88.0239C101.114 87.8879 101.276 87.7779 101.448 87.6939C101.624 87.6099 101.808 87.5479 102 87.5079C102.196 87.4679 102.39 87.4479 102.582 87.4479C102.938 87.4479 103.254 87.5019 103.53 87.6099C103.806 87.7139 104.036 87.8679 104.22 88.0719C104.408 88.2719 104.55 88.5199 104.646 88.8159C104.742 89.1079 104.79 89.4399 104.79 89.8119V93.7659H102.93V89.8119C102.93 89.1679 102.654 88.8459 102.102 88.8459C101.85 88.8459 101.64 88.9299 101.472 89.0979C101.308 89.2619 101.226 89.4999 101.226 89.8119V93.7659H99.3664V89.8119C99.3664 89.4559 99.2964 89.2059 99.1564 89.0619C99.0164 88.9179 98.8104 88.8459 98.5384 88.8459C98.3704 88.8459 98.2104 88.8839 98.0584 88.9599C97.9104 89.0359 97.7704 89.1379 97.6384 89.2659V93.7659H95.7784ZM107.887 87.5439V93.7659H106.027V87.5439H107.887ZM108.079 85.8399C108.079 85.9879 108.049 86.1279 107.989 86.2599C107.929 86.3879 107.847 86.5019 107.743 86.6019C107.639 86.6979 107.517 86.7759 107.377 86.8359C107.241 86.8919 107.095 86.9199 106.939 86.9199C106.787 86.9199 106.645 86.8919 106.513 86.8359C106.381 86.7759 106.263 86.6979 106.159 86.6019C106.059 86.5019 105.979 86.3879 105.919 86.2599C105.863 86.1279 105.835 85.9879 105.835 85.8399C105.835 85.6879 105.863 85.5459 105.919 85.4139C105.979 85.2819 106.059 85.1659 106.159 85.0659C106.263 84.9659 106.381 84.8879 106.513 84.8319C106.645 84.7759 106.787 84.7479 106.939 84.7479C107.095 84.7479 107.241 84.7759 107.377 84.8319C107.517 84.8879 107.639 84.9659 107.743 85.0659C107.847 85.1659 107.929 85.2819 107.989 85.4139C108.049 85.5459 108.079 85.6879 108.079 85.8399ZM113.864 87.5439V93.7779C113.864 94.0699 113.826 94.3439 113.75 94.5999C113.678 94.8599 113.556 95.0859 113.384 95.2779C113.216 95.4739 112.992 95.6279 112.712 95.7399C112.436 95.8519 112.092 95.9079 111.68 95.9079C111.528 95.9079 111.388 95.8979 111.26 95.8779C111.128 95.8619 110.992 95.8359 110.852 95.7999L110.912 94.8219C110.92 94.7379 110.948 94.6759 110.996 94.6359C111.044 94.5959 111.14 94.5759 111.284 94.5759C111.428 94.5759 111.546 94.5639 111.638 94.5399C111.73 94.5159 111.802 94.4739 111.854 94.4139C111.91 94.3539 111.948 94.2719 111.968 94.1679C111.992 94.0679 112.004 93.9379 112.004 93.7779V87.5439H113.864ZM114.056 85.8399C114.056 85.9879 114.026 86.1279 113.966 86.2599C113.906 86.3879 113.824 86.5019 113.72 86.6019C113.616 86.6979 113.494 86.7759 113.354 86.8359C113.218 86.8919 113.072 86.9199 112.916 86.9199C112.764 86.9199 112.622 86.8919 112.49 86.8359C112.358 86.7759 112.24 86.6979 112.136 86.6019C112.036 86.5019 111.956 86.3879 111.896 86.2599C111.84 86.1279 111.812 85.9879 111.812 85.8399C111.812 85.6879 111.84 85.5459 111.896 85.4139C111.956 85.2819 112.036 85.1659 112.136 85.0659C112.24 84.9659 112.358 84.8879 112.49 84.8319C112.622 84.7759 112.764 84.7479 112.916 84.7479C113.072 84.7479 113.218 84.7759 113.354 84.8319C113.494 84.8879 113.616 84.9659 113.72 85.0659C113.824 85.1659 113.906 85.2819 113.966 85.4139C114.026 85.5459 114.056 85.6879 114.056 85.8399ZM118.371 91.2339C117.999 91.2499 117.693 91.2819 117.453 91.3299C117.213 91.3779 117.023 91.4379 116.883 91.5099C116.743 91.5819 116.645 91.6639 116.589 91.7559C116.537 91.8479 116.511 91.9479 116.511 92.0559C116.511 92.2679 116.569 92.4179 116.685 92.5059C116.801 92.5899 116.971 92.6319 117.195 92.6319C117.435 92.6319 117.645 92.5899 117.825 92.5059C118.005 92.4219 118.187 92.2859 118.371 92.0979V91.2339ZM115.023 88.4079C115.399 88.0759 115.815 87.8299 116.271 87.6699C116.731 87.5059 117.223 87.4239 117.747 87.4239C118.123 87.4239 118.461 87.4859 118.761 87.6099C119.065 87.7299 119.321 87.8999 119.529 88.1199C119.741 88.3359 119.903 88.5939 120.015 88.8939C120.127 89.1939 120.183 89.5219 120.183 89.8779V93.7659H119.331C119.155 93.7659 119.021 93.7419 118.929 93.6939C118.841 93.6459 118.767 93.5459 118.707 93.3939L118.575 93.0519C118.419 93.1839 118.269 93.2999 118.125 93.3999C117.981 93.4999 117.831 93.5859 117.675 93.6579C117.523 93.7259 117.359 93.7759 117.183 93.8079C117.011 93.8439 116.819 93.8619 116.607 93.8619C116.323 93.8619 116.065 93.8259 115.833 93.7539C115.601 93.6779 115.403 93.5679 115.239 93.4239C115.079 93.2799 114.955 93.1019 114.867 92.8899C114.779 92.6739 114.735 92.4259 114.735 92.1459C114.735 91.9219 114.791 91.6959 114.903 91.4679C115.015 91.2359 115.209 91.0259 115.485 90.8379C115.761 90.6459 116.133 90.4859 116.601 90.3579C117.069 90.2299 117.659 90.1579 118.371 90.1419V89.8779C118.371 89.5139 118.295 89.2519 118.143 89.0919C117.995 88.9279 117.783 88.8459 117.507 88.8459C117.287 88.8459 117.107 88.8699 116.967 88.9179C116.827 88.9659 116.701 89.0199 116.589 89.0799C116.481 89.1399 116.375 89.1939 116.271 89.2419C116.167 89.2899 116.043 89.3139 115.899 89.3139C115.771 89.3139 115.663 89.2819 115.575 89.2179C115.487 89.1539 115.415 89.0779 115.359 88.9899L115.023 88.4079ZM123.088 88.2159C123.208 88.1039 123.332 87.9999 123.46 87.9039C123.588 87.8079 123.724 87.7279 123.868 87.6639C124.016 87.5959 124.174 87.5439 124.342 87.5079C124.514 87.4679 124.7 87.4479 124.9 87.4479C125.24 87.4479 125.54 87.5079 125.8 87.6279C126.064 87.7439 126.286 87.9079 126.466 88.1199C126.646 88.3279 126.782 88.5779 126.874 88.8699C126.966 89.1579 127.012 89.4719 127.012 89.8119V93.7659H125.152V89.8119C125.152 89.5079 125.082 89.2719 124.942 89.1039C124.802 88.9319 124.596 88.8459 124.324 88.8459C124.12 88.8459 123.928 88.8899 123.748 88.9779C123.572 89.0619 123.4 89.1779 123.232 89.3259V93.7659H121.372V87.5439H122.524C122.756 87.5439 122.908 87.6479 122.98 87.8559L123.088 88.2159ZM130.586 90.3279C130.894 90.3279 131.116 90.2519 131.252 90.0999C131.392 89.9439 131.462 89.7439 131.462 89.4999C131.462 89.2479 131.392 89.0499 131.252 88.9059C131.116 88.7619 130.894 88.6899 130.586 88.6899C130.278 88.6899 130.054 88.7619 129.914 88.9059C129.778 89.0499 129.71 89.2479 129.71 89.4999C129.71 89.6199 129.726 89.7299 129.758 89.8299C129.794 89.9299 129.848 90.0179 129.92 90.0939C129.992 90.1659 130.082 90.2239 130.19 90.2679C130.302 90.3079 130.434 90.3279 130.586 90.3279ZM132.026 93.9939C132.026 93.8459 131.96 93.7399 131.828 93.6759C131.696 93.6079 131.524 93.5599 131.312 93.5319C131.1 93.5039 130.862 93.4879 130.598 93.4839C130.338 93.4759 130.078 93.4599 129.818 93.4359C129.702 93.5159 129.606 93.6059 129.53 93.7059C129.458 93.8019 129.422 93.9119 129.422 94.0359C129.422 94.1239 129.44 94.2039 129.476 94.2759C129.516 94.3479 129.584 94.4099 129.68 94.4619C129.776 94.5139 129.904 94.5539 130.064 94.5819C130.228 94.6139 130.434 94.6299 130.682 94.6299C130.95 94.6299 131.17 94.6139 131.342 94.5819C131.514 94.5499 131.65 94.5059 131.75 94.4499C131.854 94.3939 131.926 94.3259 131.966 94.2459C132.006 94.1699 132.026 94.0859 132.026 93.9939ZM133.862 87.7359V88.4139C133.862 88.5179 133.832 88.5999 133.772 88.6599C133.716 88.7199 133.618 88.7659 133.478 88.7979L133.028 88.8999C133.052 88.9879 133.07 89.0779 133.082 89.1699C133.098 89.2619 133.106 89.3579 133.106 89.4579C133.106 89.7699 133.04 90.0499 132.908 90.2979C132.78 90.5459 132.602 90.7579 132.374 90.9339C132.15 91.1059 131.884 91.2399 131.576 91.3359C131.268 91.4279 130.938 91.4739 130.586 91.4739C130.49 91.4739 130.396 91.4719 130.304 91.4679C130.212 91.4599 130.122 91.4479 130.034 91.4319C129.898 91.5159 129.83 91.6099 129.83 91.7139C129.83 91.8179 129.886 91.8939 129.998 91.9419C130.11 91.9859 130.258 92.0179 130.442 92.0379C130.626 92.0539 130.834 92.0659 131.066 92.0739C131.302 92.0779 131.542 92.0919 131.786 92.1159C132.03 92.1359 132.268 92.1719 132.5 92.2239C132.736 92.2759 132.946 92.3599 133.13 92.4759C133.314 92.5919 133.462 92.7479 133.574 92.9439C133.686 93.1359 133.742 93.3819 133.742 93.6819C133.742 93.9619 133.674 94.2359 133.538 94.5039C133.402 94.7719 133.202 95.0099 132.938 95.2179C132.674 95.4259 132.35 95.5919 131.966 95.7159C131.582 95.8439 131.142 95.9079 130.646 95.9079C130.158 95.9079 129.736 95.8619 129.38 95.7699C129.028 95.6779 128.734 95.5559 128.498 95.4039C128.266 95.2559 128.094 95.0839 127.982 94.8879C127.87 94.6919 127.814 94.4879 127.814 94.2759C127.814 93.9999 127.894 93.7699 128.054 93.5859C128.214 93.4019 128.438 93.2539 128.726 93.1419C128.574 93.0499 128.454 92.9319 128.366 92.7879C128.278 92.6439 128.234 92.4579 128.234 92.2299C128.234 92.1379 128.25 92.0419 128.282 91.9419C128.314 91.8379 128.364 91.7379 128.432 91.6419C128.504 91.5419 128.592 91.4479 128.696 91.3599C128.8 91.2719 128.924 91.1939 129.068 91.1259C128.744 90.9539 128.488 90.7279 128.3 90.4479C128.112 90.1639 128.018 89.8339 128.018 89.4579C128.018 89.1459 128.084 88.8659 128.216 88.6179C128.348 88.3659 128.528 88.1539 128.756 87.9819C128.988 87.8059 129.26 87.6719 129.572 87.5799C129.884 87.4839 130.222 87.4359 130.586 87.4359C131.114 87.4359 131.582 87.5359 131.99 87.7359H133.862ZM136.498 84.7839V89.8179H136.774C136.89 89.8179 136.978 89.8019 137.038 89.7699C137.098 89.7339 137.158 89.6759 137.218 89.5959L138.394 87.8439C138.466 87.7439 138.548 87.6699 138.64 87.6219C138.732 87.5699 138.85 87.5439 138.994 87.5439H140.698L139.09 89.7579C138.938 89.9579 138.758 90.1219 138.55 90.2499C138.642 90.3179 138.726 90.3979 138.802 90.4899C138.878 90.5779 138.95 90.6779 139.018 90.7899L140.77 93.7659H139.09C138.95 93.7659 138.83 93.7439 138.73 93.6999C138.63 93.6519 138.546 93.5699 138.478 93.4539L137.302 91.2519C137.246 91.1519 137.188 91.0879 137.128 91.0599C137.068 91.0279 136.978 91.0119 136.858 91.0119H136.498V93.7659H134.638V84.7839H136.498ZM144.551 91.2339C144.179 91.2499 143.873 91.2819 143.633 91.3299C143.393 91.3779 143.203 91.4379 143.063 91.5099C142.923 91.5819 142.825 91.6639 142.769 91.7559C142.717 91.8479 142.691 91.9479 142.691 92.0559C142.691 92.2679 142.749 92.4179 142.865 92.5059C142.981 92.5899 143.151 92.6319 143.375 92.6319C143.615 92.6319 143.825 92.5899 144.005 92.5059C144.185 92.4219 144.367 92.2859 144.551 92.0979V91.2339ZM141.203 88.4079C141.579 88.0759 141.995 87.8299 142.451 87.6699C142.911 87.5059 143.403 87.4239 143.927 87.4239C144.303 87.4239 144.641 87.4859 144.941 87.6099C145.245 87.7299 145.501 87.8999 145.709 88.1199C145.921 88.3359 146.083 88.5939 146.195 88.8939C146.307 89.1939 146.363 89.5219 146.363 89.8779V93.7659H145.511C145.335 93.7659 145.201 93.7419 145.109 93.6939C145.021 93.6459 144.947 93.5459 144.887 93.3939L144.755 93.0519C144.599 93.1839 144.449 93.2999 144.305 93.3999C144.161 93.4999 144.011 93.5859 143.855 93.6579C143.703 93.7259 143.539 93.7759 143.363 93.8079C143.191 93.8439 142.999 93.8619 142.787 93.8619C142.503 93.8619 142.245 93.8259 142.013 93.7539C141.781 93.6779 141.583 93.5679 141.419 93.4239C141.259 93.2799 141.135 93.1019 141.047 92.8899C140.959 92.6739 140.915 92.4259 140.915 92.1459C140.915 91.9219 140.971 91.6959 141.083 91.4679C141.195 91.2359 141.389 91.0259 141.665 90.8379C141.941 90.6459 142.313 90.4859 142.781 90.3579C143.249 90.2299 143.839 90.1579 144.551 90.1419V89.8779C144.551 89.5139 144.475 89.2519 144.323 89.0919C144.175 88.9279 143.963 88.8459 143.687 88.8459C143.467 88.8459 143.287 88.8699 143.147 88.9179C143.007 88.9659 142.881 89.0199 142.769 89.0799C142.661 89.1399 142.555 89.1939 142.451 89.2419C142.347 89.2899 142.223 89.3139 142.079 89.3139C141.951 89.3139 141.843 89.2819 141.755 89.2179C141.667 89.1539 141.595 89.0779 141.539 88.9899L141.203 88.4079ZM153.132 87.5439V93.7659H151.98C151.748 93.7659 151.596 93.6619 151.524 93.4539L151.416 93.0939C151.296 93.2099 151.172 93.3159 151.044 93.4119C150.916 93.5039 150.778 93.5839 150.63 93.6519C150.486 93.7159 150.328 93.7659 150.156 93.8019C149.988 93.8419 149.804 93.8619 149.604 93.8619C149.264 93.8619 148.962 93.8039 148.698 93.6879C148.438 93.5679 148.218 93.4019 148.038 93.1899C147.858 92.9779 147.722 92.7279 147.63 92.4399C147.538 92.1519 147.492 91.8359 147.492 91.4919V87.5439H149.352V91.4919C149.352 91.7999 149.422 92.0379 149.562 92.2059C149.702 92.3739 149.908 92.4579 150.18 92.4579C150.384 92.4579 150.574 92.4159 150.75 92.3319C150.93 92.2439 151.104 92.1259 151.272 91.9779V87.5439H153.132Z" fill="#303960"/>
<defs>
<linearGradient id="paint0_linear" x1="12.4616" y1="-10.0595" x2="140.57" y2="61.6264" gradientUnits="userSpaceOnUse">
<stop stop-opacity="0"/>
<stop offset="0.99" stop-color="#B2B2B2"/>
</linearGradient>
<linearGradient id="paint1_linear" x1="2595.5" y1="4214.06" x2="1101.85" y2="4627.39" gradientUnits="userSpaceOnUse">
<stop stop-opacity="0"/>
<stop offset="0.99"/>
</linearGradient>
<linearGradient id="paint2_linear" x1="18483" y1="12232.1" x2="4745.69" y2="1942.65" gradientUnits="userSpaceOnUse">
<stop stop-opacity="0"/>
<stop offset="0.99" stop-color="#B2B2B2"/>
</linearGradient>
<linearGradient id="paint3_linear" x1="12468.8" y1="8563.06" x2="-670.235" y2="8127.86" gradientUnits="userSpaceOnUse">
<stop stop-opacity="0"/>
<stop offset="0.99" stop-color="#B2B2B2"/>
</linearGradient>
<linearGradient id="paint4_linear" x1="2846.32" y1="1680.73" x2="1490.93" y2="2638.84" gradientUnits="userSpaceOnUse">
<stop stop-opacity="0"/>
<stop offset="0.99" stop-color="#080608"/>
</linearGradient>
<linearGradient id="paint5_linear" x1="2909.7" y1="2592.58" x2="2676.56" y2="1723.79" gradientUnits="userSpaceOnUse">
<stop stop-opacity="0"/>
<stop offset="0.99" stop-color="#080608"/>
</linearGradient>
<linearGradient id="paint6_linear" x1="309.139" y1="237.818" x2="311.733" y2="237.347" gradientUnits="userSpaceOnUse">
<stop stop-opacity="0"/>
<stop offset="0.99"/>
</linearGradient>
<linearGradient id="paint7_linear" x1="807.876" y1="349.387" x2="845.14" y2="391.529" gradientUnits="userSpaceOnUse">
<stop stop-opacity="0"/>
<stop offset="0.99"/>
</linearGradient>
</defs>
</svg>
