<svg width="151" height="113" viewBox="0 0 151 113" fill="none" xmlns="http://www.w3.org/2000/svg">
<g filter="url(#filter0_d)">
<path d="M102.926 42.3231C100.885 81.064 75.2819 91.19 75.2819 91.19C46.8573 74.0404 47 40.5503 47 40.5503C65.1156 35.5981 75.4769 25.4673 75.8004 25.1349C82.5557 35.1019 102.926 42.3231 102.926 42.3231Z" fill="#F7F7F7"/>
</g>
<path d="M102.926 42.1689C100.885 80.9099 75.2819 91.0359 75.2819 91.0359C46.8573 73.8862 47 40.3962 47 40.3962C65.1252 35.4536 75.4865 25.3372 75.8099 25C82.5557 34.9719 102.926 42.1689 102.926 42.1689Z" fill="url(#paint0_linear)"/>
<path d="M99.6201 44.2019C97.8171 78.3471 75.2535 87.2736 75.2535 87.2736C50.2018 72.1568 50.3255 42.6411 50.3255 42.6411C66.2956 38.2766 75.4247 29.3452 75.7102 29.0706C81.6567 37.8623 99.6201 44.2019 99.6201 44.2019Z" fill="white"/>
<path d="M75.7148 29.0658L75.2391 87.2736C50.1874 72.1568 50.311 42.641 50.311 42.641C66.2811 38.2766 75.4103 29.3452 75.6958 29.0706L75.7148 29.0658Z" fill="url(#paint1_linear)"/>
<path d="M75.2535 58.4949C77.6943 58.4949 79.673 56.4912 79.673 54.0196C79.673 51.5479 77.6943 49.5443 75.2535 49.5443C72.8127 49.5443 70.834 51.5479 70.834 54.0196C70.834 56.4912 72.8127 58.4949 75.2535 58.4949Z" fill="#303960"/>
<path d="M72.5942 65.1813H77.3562L76.0052 58.0131H74.2688L72.5942 65.1813Z" fill="#303960"/>
<path opacity="0.18" d="M51.5291 52.3817H57.214V48.205H61.7191" stroke="white" stroke-width="0.96" stroke-miterlimit="10"/>
<path opacity="0.18" d="M52.6421 56.857H60.0444V65.9713H64.6779" stroke="white" stroke-width="0.96" stroke-miterlimit="10"/>
<path opacity="0.18" d="M99.1492 49.5443H89.7774V44.1633H81.4094" stroke="white" stroke-width="0.96" stroke-miterlimit="10"/>
<path opacity="0.18" d="M97.4031 58.4949H88.274V67.9705H81.8374" stroke="white" stroke-width="0.96" stroke-miterlimit="10"/>
<path opacity="0.18" d="M61.719 75.1724H69.3782V71.5305H74.0117" stroke="white" stroke-width="0.96" stroke-miterlimit="10"/>
<path d="M132.604 42.5418C127.428 31.3656 103.622 22.8968 75.1265 22.8968C42.8533 22.8968 16.6123 33.755 16.6123 47.1038C16.6123 60.4526 42.8676 71.3109 75.1265 71.3109C97.1241 71.3109 116.324 66.2671 126.324 58.8292C127.763 57.7773 129.084 56.5689 130.263 55.2258C131.815 53.5285 132.908 51.4544 133.436 49.2042C133.58 48.5135 133.654 47.8097 133.655 47.1038C133.643 45.523 133.284 43.9647 132.604 42.5418ZM129.802 55.1825C128.776 56.323 127.645 57.3618 126.424 58.2848C116.634 65.7902 97.3096 70.9062 75.117 70.9062C43.0674 70.9062 16.9881 60.231 16.9881 47.1038C16.9881 33.9766 43.0674 23.2966 75.1265 23.2966C103.261 23.2966 126.79 31.5246 132.123 42.4117C132.856 43.8652 133.244 45.4719 133.255 47.1038C133.257 47.6742 133.206 48.2435 133.103 48.8043C132.713 51.0299 131.581 53.1688 129.802 55.1825Z" fill="white"/>
<path opacity="0.18" d="M134.383 46.0055C134.347 45.6156 134.29 45.228 134.212 44.8445C134.068 44.1611 133.864 43.4921 133.603 42.8453L133.517 42.8164C133.217 42.72 132.908 42.6333 132.604 42.5418C127.428 31.3656 103.622 22.8968 75.1265 22.8968C42.8533 22.8968 16.6123 33.755 16.6123 47.1038C16.6123 60.4526 42.8676 71.3109 75.1265 71.3109C97.1241 71.3109 116.324 66.2671 126.324 58.8292C126.315 58.974 126.334 59.1193 126.38 59.2566C126.427 59.3939 126.5 59.5205 126.595 59.6289C128.405 58.3374 130.032 56.8027 131.433 55.0669C132.567 53.6662 133.426 52.0588 133.964 50.3314C134.28 49.287 134.44 48.2009 134.44 47.1086C134.44 46.7401 134.421 46.3719 134.383 46.0055ZM75.1265 70.9062C43.0769 70.9062 16.9976 60.231 16.9976 47.1038C16.9976 33.9766 43.0674 23.2966 75.1265 23.2966C103.261 23.2966 126.79 31.5246 132.123 42.4117C131.846 42.3571 131.558 42.4067 131.314 42.5514C132.053 43.9535 132.446 45.5151 132.461 47.1038C132.46 47.4709 132.438 47.8377 132.394 48.2022C132.114 50.5241 130.967 52.7979 128.969 54.9464C128.221 55.7541 127.413 56.503 126.552 57.1865C126.61 57.3928 126.61 57.6112 126.552 57.8175C126.51 57.9717 126.462 58.1259 126.419 58.2993C116.634 65.7902 97.3096 70.9062 75.1265 70.9062Z" fill="white"/>
<path opacity="0.55" d="M132.114 42.4117C131.836 42.3571 131.549 42.4067 131.305 42.5514C129.117 38.2592 123.831 34.2704 115.901 31.0236C105.002 26.5627 90.5163 24.1059 75.1265 24.1059C59.7368 24.1059 45.2367 26.5627 34.3379 31.0236C23.6578 35.3929 17.7826 41.0966 17.7826 47.1038C17.7826 53.111 23.6578 58.8099 34.3283 63.1792C45.2272 67.6449 59.713 70.1017 75.117 70.1017C90.521 70.1017 105.002 67.6449 115.901 63.1792C120.282 61.3872 123.85 59.3735 126.543 57.1913C126.6 57.3976 126.6 57.616 126.543 57.8223C126.5 57.9765 126.453 58.1307 126.41 58.3041C116.619 65.8095 97.2953 70.9255 75.1028 70.9255C43.0531 70.9255 16.9739 60.2503 16.9739 47.1231C16.9739 33.9959 43.0674 23.2966 75.1265 23.2966C103.251 23.2966 126.781 31.5246 132.114 42.4117Z" fill="white"/>
<path opacity="0.55" d="M133.603 42.8453L133.517 42.8164C133.217 42.72 132.908 42.6333 132.604 42.5418C127.428 31.3656 103.623 22.8967 75.1267 22.8967C42.8535 22.8967 16.6124 33.755 16.6124 47.1038C16.6124 60.4526 42.8677 71.3109 75.1267 71.3109C97.1242 71.3109 116.324 66.2671 126.324 58.8292C126.315 58.974 126.334 59.1193 126.38 59.2566C126.427 59.3939 126.5 59.5205 126.595 59.6289C123.546 61.7908 120.255 63.5808 116.791 64.9616C105.625 69.5766 90.8256 72.1154 75.1267 72.1154C59.4277 72.1154 44.6184 69.5766 33.4626 64.9616C22.0738 60.2503 15.8037 53.9059 15.8037 47.1038C15.8037 40.3017 22.0643 33.9573 33.4531 29.2508C44.6089 24.631 59.4277 22.0923 75.1267 22.0923C90.8256 22.0923 105.635 24.631 116.791 29.2508C125.753 32.9601 131.548 37.6811 133.603 42.8453Z" fill="white"/>
<path d="M62.4724 30.1372H51.2595V16.1188H60.9263L62.4724 18.118V30.1372Z" fill="white"/>
<path d="M61.478 30.9658H50.2651V16.9473H59.9319L61.478 18.9465V30.9658Z" fill="white"/>
<path d="M61.3828 31.0621H50.1699V17.0437H59.8367L61.3828 19.0429V31.0621Z" fill="url(#paint2_linear)"/>
<path d="M60.3982 32.2231H49.1853V18.1999H58.852L60.3982 20.199V32.2231Z" fill="white"/>
<path d="M58.8521 18.1999V20.1798H60.3982L58.8521 18.1999Z" fill="url(#paint3_linear)"/>
<path d="M59.8367 17.0437V19.0814H61.3828L59.8367 17.0437Z" fill="url(#paint4_linear)"/>
<path d="M60.926 16.1188V18.1565H62.4721L60.926 16.1188Z" fill="url(#paint5_linear)"/>
<path d="M133.608 59.6529C133.459 59.6144 133.32 59.5454 133.199 59.4501C133.078 59.3548 132.977 59.2352 132.904 59.0989C132.789 58.9014 132.685 58.6943 132.571 58.4968C132.472 58.2993 132.315 58.1383 132.121 58.0371C131.927 57.9358 131.706 57.8994 131.491 57.9331C131.27 57.9477 131.06 58.0317 130.89 58.1734C130.719 58.3151 130.596 58.5073 130.539 58.7232C130.468 58.9592 130.411 59.2049 130.33 59.4313C130.239 59.7231 130.038 59.967 129.771 60.1103C129.504 60.2536 129.192 60.2848 128.903 60.1973L127.594 59.8071C127.445 59.7661 127.304 59.6951 127.182 59.5982C127.06 59.5013 126.958 59.3806 126.882 59.2431C126.807 59.1057 126.76 58.9543 126.743 58.798C126.726 58.6416 126.741 58.4835 126.786 58.333C126.848 58.0921 126.928 57.8512 126.985 57.62C127.046 57.4128 127.042 57.1914 126.973 56.9868C126.904 56.7822 126.774 56.6045 126.6 56.4783C126.442 56.3379 126.245 56.2513 126.036 56.2305C125.827 56.2098 125.616 56.256 125.435 56.3627C125.23 56.4639 125.035 56.5843 124.835 56.6903C124.698 56.768 124.546 56.8172 124.39 56.835C124.234 56.8528 124.075 56.8389 123.924 56.7941C123.773 56.7492 123.633 56.6743 123.51 56.5738C123.388 56.4733 123.287 56.3491 123.213 56.2085C122.985 55.7894 122.737 55.3751 122.533 54.956C122.452 54.8186 122.4 54.6659 122.381 54.5073C122.361 54.3487 122.374 54.1877 122.419 54.0344C122.463 53.8811 122.539 53.7387 122.64 53.6163C122.742 53.4939 122.867 53.394 123.008 53.323C123.199 53.2122 123.399 53.1158 123.584 53.005C123.771 52.9086 123.925 52.7561 124.024 52.5682C124.122 52.3802 124.162 52.1661 124.136 51.9548C124.128 51.7363 124.053 51.5258 123.92 51.353C123.788 51.1802 123.605 51.0537 123.399 50.9914C123.17 50.9143 122.923 50.8565 122.699 50.7794C122.543 50.7378 122.397 50.6635 122.27 50.5614C122.144 50.4593 122.04 50.3316 121.965 50.1865C121.891 50.0414 121.847 49.882 121.836 49.7187C121.826 49.5553 121.849 49.3916 121.905 49.2379C122.024 48.8188 122.143 48.3997 122.266 47.9805C122.342 47.6888 122.526 47.4383 122.782 47.2826C123.037 47.1269 123.342 47.0783 123.632 47.1471C123.879 47.1953 124.107 47.2772 124.359 47.3447C124.572 47.4179 124.802 47.4227 125.018 47.3584C125.233 47.2941 125.424 47.1639 125.564 46.9856C125.703 46.8072 125.785 46.5896 125.798 46.3623C125.81 46.1351 125.753 45.9095 125.634 45.7164C125.53 45.5285 125.425 45.3407 125.33 45.1528C125.258 45.0187 125.213 44.8714 125.198 44.7196C125.184 44.5678 125.199 44.4145 125.243 44.2687C125.287 44.1229 125.36 43.9875 125.456 43.8705C125.553 43.7535 125.672 43.6571 125.806 43.5871C126.248 43.3318 126.695 43.1054 127.152 42.8549C127.423 42.7204 127.734 42.6953 128.022 42.7848C128.31 42.8743 128.553 43.0716 128.703 43.3366C128.822 43.5438 128.926 43.7558 129.045 43.9629C129.144 44.1509 129.297 44.3033 129.485 44.3991C129.672 44.4949 129.884 44.5293 130.092 44.4976C130.306 44.4844 130.51 44.4039 130.676 44.2675C130.842 44.131 130.963 43.9454 131.02 43.7365C131.091 43.5197 131.148 43.2933 131.215 43.0765C131.255 42.9159 131.329 42.7657 131.43 42.6354C131.531 42.505 131.658 42.3975 131.803 42.3195C131.947 42.2416 132.106 42.195 132.27 42.1827C132.433 42.1703 132.597 42.1926 132.751 42.2479L133.969 42.6092C134.124 42.648 134.27 42.7184 134.397 42.816C134.524 42.9137 134.631 43.0366 134.709 43.1773C134.788 43.318 134.838 43.4734 134.855 43.6342C134.873 43.7949 134.858 43.9576 134.811 44.1122C134.754 44.3242 134.687 44.541 134.626 44.7529C134.552 44.9646 134.547 45.1946 134.611 45.4094C134.675 45.6243 134.805 45.8128 134.982 45.9476C135.151 46.0934 135.361 46.1817 135.582 46.1998C135.804 46.218 136.025 46.1651 136.215 46.0488C136.4 45.9476 136.586 45.8368 136.771 45.7405C136.908 45.6651 137.058 45.6177 137.213 45.6011C137.368 45.5844 137.524 45.5989 137.674 45.6437C137.823 45.6884 137.962 45.7625 138.083 45.8618C138.204 45.9611 138.305 46.0836 138.379 46.2222C138.617 46.651 138.855 47.0845 139.083 47.5181C139.158 47.6541 139.206 47.8041 139.222 47.959C139.239 48.114 139.225 48.2708 139.181 48.42C139.136 48.5693 139.063 48.7079 138.964 48.8278C138.866 48.9476 138.744 49.0461 138.607 49.1174C138.403 49.2331 138.189 49.3342 137.984 49.4546C137.812 49.5452 137.67 49.6846 137.576 49.8558C137.481 50.027 137.438 50.2224 137.451 50.4181C137.45 50.6268 137.512 50.8308 137.629 51.0029C137.745 51.175 137.911 51.3071 138.103 51.3816C138.341 51.4779 138.579 51.5405 138.845 51.6176C138.991 51.6509 139.129 51.7148 139.249 51.8053C139.369 51.8958 139.47 52.0108 139.543 52.143C139.617 52.2751 139.662 52.4214 139.676 52.5724C139.69 52.7233 139.673 52.8757 139.626 53.0195C139.502 53.5012 139.364 53.9829 139.212 54.4647C139.173 54.6161 139.104 54.7577 139.008 54.8802C138.912 55.0027 138.792 55.1034 138.655 55.1756C138.518 55.2479 138.368 55.2901 138.214 55.2996C138.06 55.3091 137.905 55.2856 137.761 55.2306C137.542 55.168 137.328 55.0957 137.104 55.0427C136.902 54.9877 136.688 54.997 136.492 55.0694C136.295 55.1418 136.125 55.2738 136.005 55.4474C135.871 55.6062 135.789 55.8035 135.771 56.0117C135.754 56.2198 135.8 56.4285 135.905 56.6084C136.015 56.8203 136.138 57.0275 136.248 57.2346C136.323 57.371 136.371 57.5213 136.387 57.6766C136.404 57.832 136.39 57.9891 136.346 58.1388C136.301 58.2884 136.228 58.4275 136.129 58.5477C136.031 58.668 135.909 58.767 135.772 58.8388C135.349 59.0797 134.921 59.3205 134.492 59.5469C134.36 59.624 134.213 59.6732 134.061 59.6914C133.909 59.7096 133.755 59.6965 133.608 59.6529ZM127.181 50.1339C126.969 50.8575 126.975 51.6284 127.196 52.3489C127.417 53.0694 127.845 53.7073 128.424 54.1819C129.004 54.6564 129.709 54.9464 130.451 55.015C131.193 55.0836 131.939 54.9278 132.593 54.5674C133.248 54.2069 133.783 53.658 134.129 52.99C134.476 52.322 134.619 51.5649 134.541 50.8144C134.462 50.064 134.166 49.354 133.689 48.7741C133.212 48.1942 132.576 47.7705 131.862 47.5566C131.387 47.4133 130.889 47.3663 130.397 47.4184C129.905 47.4704 129.427 47.6205 128.992 47.86C128.557 48.0995 128.173 48.4237 127.862 48.8139C127.551 49.2041 127.32 49.6527 127.181 50.1339Z" fill="#30395F"/>
<g opacity="0.27">
<path opacity="0.27" d="M133.608 59.6529C133.459 59.6144 133.32 59.5454 133.199 59.4501C133.078 59.3548 132.977 59.2352 132.904 59.0989C132.789 58.9014 132.685 58.6943 132.571 58.4968C132.472 58.2993 132.315 58.1383 132.121 58.0371C131.927 57.9358 131.706 57.8994 131.491 57.9331C131.27 57.9477 131.06 58.0317 130.89 58.1734C130.719 58.3151 130.596 58.5073 130.539 58.7232C130.468 58.9592 130.411 59.2049 130.33 59.4313C130.239 59.7231 130.038 59.967 129.771 60.1103C129.504 60.2536 129.192 60.2848 128.903 60.1973L127.594 59.8071C127.445 59.7661 127.304 59.6951 127.182 59.5982C127.06 59.5013 126.958 59.3806 126.882 59.2431C126.807 59.1057 126.76 58.9543 126.743 58.798C126.726 58.6416 126.741 58.4835 126.786 58.333C126.848 58.0921 126.928 57.8512 126.985 57.62C127.046 57.4128 127.042 57.1914 126.973 56.9868C126.904 56.7822 126.774 56.6045 126.6 56.4783C126.442 56.3379 126.245 56.2513 126.036 56.2305C125.827 56.2098 125.616 56.256 125.435 56.3627C125.23 56.4639 125.035 56.5843 124.835 56.6903C124.698 56.768 124.546 56.8172 124.39 56.835C124.234 56.8528 124.075 56.8389 123.924 56.7941C123.773 56.7492 123.633 56.6743 123.51 56.5738C123.388 56.4733 123.287 56.3491 123.213 56.2085C122.985 55.7894 122.737 55.3751 122.533 54.956C122.452 54.8186 122.4 54.6659 122.381 54.5073C122.361 54.3487 122.374 54.1877 122.419 54.0344C122.463 53.8811 122.539 53.7387 122.64 53.6163C122.742 53.4939 122.867 53.394 123.008 53.323C123.199 53.2122 123.399 53.1158 123.584 53.005C123.771 52.9086 123.925 52.7561 124.024 52.5682C124.122 52.3802 124.162 52.1661 124.136 51.9548C124.128 51.7363 124.053 51.5258 123.92 51.353C123.788 51.1802 123.605 51.0537 123.399 50.9914C123.17 50.9143 122.923 50.8565 122.699 50.7794C122.543 50.7378 122.397 50.6635 122.27 50.5614C122.144 50.4593 122.04 50.3316 121.965 50.1865C121.891 50.0414 121.847 49.882 121.836 49.7187C121.826 49.5553 121.849 49.3916 121.905 49.2379C122.024 48.8188 122.143 48.3997 122.266 47.9805C122.342 47.6888 122.526 47.4383 122.782 47.2826C123.037 47.1269 123.342 47.0783 123.632 47.1471C123.879 47.1953 124.107 47.2772 124.359 47.3447C124.572 47.4179 124.802 47.4227 125.018 47.3584C125.233 47.2941 125.424 47.1639 125.564 46.9856C125.703 46.8072 125.785 46.5896 125.798 46.3623C125.81 46.1351 125.753 45.9095 125.634 45.7164C125.53 45.5285 125.425 45.3407 125.33 45.1528C125.258 45.0187 125.213 44.8714 125.198 44.7196C125.184 44.5678 125.199 44.4145 125.243 44.2687C125.287 44.1229 125.36 43.9875 125.456 43.8705C125.553 43.7535 125.672 43.6571 125.806 43.5871C126.248 43.3318 126.695 43.1054 127.152 42.8549C127.423 42.7204 127.734 42.6953 128.022 42.7848C128.31 42.8743 128.553 43.0716 128.703 43.3366C128.822 43.5438 128.926 43.7558 129.045 43.9629C129.144 44.1509 129.297 44.3033 129.485 44.3991C129.672 44.4949 129.884 44.5293 130.092 44.4976C130.306 44.4844 130.51 44.4039 130.676 44.2675C130.842 44.131 130.963 43.9454 131.02 43.7365C131.091 43.5197 131.148 43.2933 131.215 43.0765C131.255 42.9159 131.329 42.7657 131.43 42.6354C131.531 42.505 131.658 42.3975 131.803 42.3195C131.947 42.2416 132.106 42.195 132.27 42.1827C132.433 42.1703 132.597 42.1926 132.751 42.2479L133.969 42.6092C134.124 42.648 134.27 42.7184 134.397 42.816C134.524 42.9137 134.631 43.0366 134.709 43.1773C134.788 43.318 134.838 43.4734 134.855 43.6342C134.873 43.7949 134.858 43.9576 134.811 44.1122C134.754 44.3242 134.687 44.541 134.626 44.7529C134.552 44.9646 134.547 45.1946 134.611 45.4094C134.675 45.6243 134.805 45.8128 134.982 45.9476C135.151 46.0934 135.361 46.1817 135.582 46.1998C135.804 46.218 136.025 46.1651 136.215 46.0488C136.4 45.9476 136.586 45.8368 136.771 45.7405C136.908 45.6651 137.058 45.6177 137.213 45.6011C137.368 45.5844 137.524 45.5989 137.674 45.6437C137.823 45.6884 137.962 45.7625 138.083 45.8618C138.204 45.9611 138.305 46.0836 138.379 46.2222C138.617 46.651 138.855 47.0845 139.083 47.5181C139.158 47.6541 139.206 47.8041 139.222 47.959C139.239 48.114 139.225 48.2708 139.181 48.42C139.136 48.5693 139.063 48.7079 138.964 48.8278C138.866 48.9476 138.744 49.0461 138.607 49.1174C138.403 49.2331 138.189 49.3342 137.984 49.4546C137.812 49.5452 137.67 49.6846 137.576 49.8558C137.481 50.027 137.438 50.2224 137.451 50.4181C137.45 50.6268 137.512 50.8308 137.629 51.0029C137.745 51.175 137.911 51.3071 138.103 51.3816C138.341 51.4779 138.579 51.5405 138.845 51.6176C138.991 51.6509 139.129 51.7148 139.249 51.8053C139.369 51.8958 139.47 52.0108 139.543 52.143C139.617 52.2751 139.662 52.4214 139.676 52.5724C139.69 52.7233 139.673 52.8757 139.626 53.0195C139.502 53.5012 139.364 53.9829 139.212 54.4647C139.173 54.6161 139.104 54.7577 139.008 54.8802C138.912 55.0027 138.792 55.1034 138.655 55.1756C138.518 55.2479 138.368 55.2901 138.214 55.2996C138.06 55.3091 137.905 55.2856 137.761 55.2306C137.542 55.168 137.328 55.0957 137.104 55.0427C136.902 54.9877 136.688 54.997 136.492 55.0694C136.295 55.1418 136.125 55.2738 136.005 55.4474C135.871 55.6062 135.789 55.8035 135.771 56.0117C135.754 56.2198 135.8 56.4285 135.905 56.6084C136.015 56.8203 136.138 57.0275 136.248 57.2346C136.323 57.371 136.371 57.5213 136.387 57.6766C136.404 57.832 136.39 57.9891 136.346 58.1388C136.301 58.2884 136.228 58.4275 136.129 58.5477C136.031 58.668 135.909 58.767 135.772 58.8388C135.349 59.0797 134.921 59.3205 134.492 59.5469C134.36 59.624 134.213 59.6732 134.061 59.6914C133.909 59.7096 133.755 59.6965 133.608 59.6529ZM127.181 50.1339C126.969 50.8575 126.975 51.6284 127.196 52.3489C127.417 53.0694 127.845 53.7073 128.424 54.1819C129.004 54.6564 129.709 54.9464 130.451 55.015C131.193 55.0836 131.939 54.9278 132.593 54.5674C133.248 54.2069 133.783 53.658 134.129 52.99C134.476 52.322 134.619 51.5649 134.541 50.8144C134.462 50.064 134.166 49.354 133.689 48.7741C133.212 48.1942 132.576 47.7705 131.862 47.5566C131.387 47.4133 130.889 47.3663 130.397 47.4184C129.905 47.4704 129.427 47.6205 128.992 47.86C128.557 48.0995 128.173 48.4237 127.862 48.8139C127.551 49.2041 127.32 49.6527 127.181 50.1339Z" fill="#2D3559"/>
</g>
<path d="M138.398 51.8344C138.155 51.7573 137.898 51.6995 137.661 51.5984C137.468 51.5239 137.303 51.3918 137.186 51.2197C137.07 51.0476 137.008 50.8436 137.009 50.6349C136.996 50.4388 137.04 50.2432 137.136 50.0721C137.231 49.901 137.374 49.7618 137.546 49.6714C137.746 49.5558 137.96 49.4498 138.165 49.3342C138.302 49.2629 138.423 49.1644 138.521 49.0445C138.62 48.9247 138.693 48.7861 138.738 48.6368C138.782 48.4875 138.797 48.3308 138.78 48.1758C138.763 48.0209 138.716 47.8709 138.641 47.7349C138.412 47.3013 138.165 46.8678 137.936 46.4438C137.862 46.3052 137.762 46.1827 137.641 46.0834C137.52 45.9842 137.38 45.91 137.231 45.8653C137.082 45.8205 136.925 45.8061 136.77 45.8227C136.615 45.8393 136.465 45.8867 136.328 45.9621L135.772 46.2704C135.583 46.3874 135.362 46.4411 135.14 46.4238C134.919 46.4065 134.709 46.3191 134.54 46.1741C134.487 46.1259 134.44 46.0777 134.392 46.0247C134.267 45.8851 134.182 45.7137 134.145 45.5289C134.108 45.344 134.121 45.1524 134.183 44.9746C134.183 44.9408 134.207 44.8975 134.221 44.8638C134.269 44.6855 134.321 44.5121 134.364 44.3338C134.455 44.0381 134.427 43.7177 134.286 43.4426C134.146 43.1674 133.903 42.9597 133.612 42.8646L133.526 42.8357C133.227 42.7393 132.918 42.6526 132.613 42.5611L132.304 42.4695L132.123 42.431C131.846 42.3763 131.558 42.426 131.314 42.5707C131.057 42.7319 130.869 42.9844 130.786 43.2789C130.715 43.5004 130.658 43.722 130.591 43.9436C130.531 44.1547 130.406 44.3411 130.236 44.4768C130.065 44.6125 129.857 44.6905 129.64 44.7C129.433 44.7314 129.221 44.6973 129.034 44.6025C128.847 44.5077 128.693 44.3567 128.593 44.1701C128.47 43.9629 128.37 43.7509 128.251 43.539C128.103 43.2735 127.86 43.0755 127.573 42.9858C127.285 42.8962 126.974 42.9218 126.705 43.0573C126.229 43.2837 125.796 43.539 125.354 43.7847C125.22 43.8547 125.101 43.951 125.004 44.068C124.908 44.1851 124.835 44.3204 124.791 44.4663C124.746 44.6121 124.731 44.7654 124.746 44.9172C124.761 45.069 124.806 45.2162 124.878 45.3503C124.973 45.543 125.082 45.7261 125.182 45.9139C125.306 46.1059 125.366 46.3329 125.353 46.5617C125.34 46.7905 125.255 47.0091 125.111 47.1857C124.973 47.3666 124.783 47.4989 124.567 47.5638C124.351 47.6287 124.12 47.6228 123.907 47.547C123.665 47.4747 123.432 47.3928 123.179 47.3447C122.89 47.2758 122.584 47.3244 122.329 47.4801C122.074 47.6358 121.889 47.8863 121.814 48.1781C121.695 48.5972 121.572 49.0163 121.453 49.4402C121.397 49.5939 121.374 49.7577 121.385 49.921C121.395 50.0843 121.44 50.2435 121.515 50.3883C121.591 50.5331 121.695 50.6603 121.822 50.7617C121.949 50.8631 122.095 50.9364 122.252 50.9769C122.48 51.0588 122.728 51.107 122.946 51.1889C123.153 51.2525 123.334 51.3793 123.466 51.5519C123.598 51.7244 123.674 51.9342 123.684 52.1524C123.711 52.3632 123.673 52.5776 123.575 52.7657C123.477 52.9539 123.324 53.1065 123.137 53.2025C122.946 53.3133 122.747 53.4145 122.556 53.5205C122.415 53.5916 122.29 53.6914 122.188 53.8138C122.087 53.9363 122.011 54.0786 121.966 54.2319C121.922 54.3852 121.909 54.5462 121.928 54.7048C121.948 54.8634 122 55.0162 122.081 55.1536C122.304 55.5727 122.532 55.9918 122.761 56.4061C122.836 56.5457 122.938 56.6689 123.06 56.7687C123.182 56.8685 123.323 56.9429 123.473 56.9877C123.624 57.0324 123.782 57.0466 123.938 57.0295C124.094 57.0124 124.245 56.9642 124.383 56.8878C124.583 56.777 124.778 56.6614 124.982 56.5554C125.165 56.4501 125.375 56.4047 125.583 56.4254C125.792 56.4461 125.989 56.5319 126.148 56.671C126.321 56.8014 126.452 56.9808 126.524 57.1865C126.581 57.3928 126.581 57.6112 126.524 57.8175C126.481 57.9717 126.433 58.1258 126.391 58.2993L126.319 58.545C126.272 58.7339 126.269 58.9312 126.309 59.1217C126.349 59.3122 126.433 59.4907 126.552 59.6433C126.701 59.827 126.902 59.9599 127.128 60.0239L128.436 60.4093C128.726 60.4955 129.037 60.4637 129.304 60.3206C129.571 60.1774 129.771 59.9344 129.863 59.6433C129.944 59.4121 130.001 59.1616 130.073 58.9352C130.131 58.72 130.254 58.5285 130.424 58.387C130.595 58.2455 130.804 58.161 131.024 58.1451C131.239 58.1132 131.458 58.1504 131.651 58.2516C131.844 58.3527 132.001 58.5126 132.099 58.7087C132.213 58.9062 132.318 59.1134 132.428 59.3157C132.58 59.5904 132.832 59.7943 133.13 59.8842C133.429 59.9741 133.75 59.943 134.026 59.7975C134.454 59.5614 134.882 59.3157 135.306 59.0893C135.443 59.018 135.564 58.9195 135.662 58.7996C135.761 58.6798 135.834 58.5411 135.879 58.3919C135.923 58.2426 135.937 58.0858 135.921 57.9309C135.904 57.7759 135.857 57.626 135.781 57.49C135.667 57.278 135.544 57.0757 135.439 56.8637C135.332 56.6847 135.283 56.4761 135.301 56.2676C135.318 56.0591 135.399 55.8614 135.534 55.7027C135.654 55.5293 135.824 55.3972 136.02 55.324C136.217 55.2508 136.43 55.2401 136.633 55.2933C136.857 55.3462 137.071 55.4233 137.289 55.486C137.433 55.5377 137.585 55.5587 137.736 55.5476C137.888 55.5365 138.035 55.4935 138.17 55.4215C138.304 55.3494 138.422 55.2498 138.516 55.129C138.61 55.0083 138.679 54.869 138.717 54.72C138.874 54.2383 139.012 53.7565 139.135 53.2748C139.189 53.1316 139.212 52.9786 139.203 52.8258C139.195 52.6729 139.154 52.5237 139.084 52.3877C139.015 52.2518 138.918 52.1323 138.799 52.0369C138.681 51.9416 138.544 51.8726 138.398 51.8344ZM133.974 52.4799C133.735 53.2862 133.242 53.9912 132.57 54.487C131.898 54.9829 131.085 55.2424 130.253 55.2258C130.102 55.2235 129.951 55.209 129.802 55.1825C129.63 55.1571 129.46 55.1201 129.293 55.0717C129.179 55.0387 129.068 54.9985 128.96 54.9512C128.061 54.5875 127.335 53.8871 126.933 52.9955C126.531 52.1039 126.484 51.0898 126.801 50.1638C127.118 49.2379 127.776 48.4713 128.637 48.0234C129.497 47.5756 130.496 47.4809 131.424 47.759C131.76 47.86 132.081 48.0092 132.375 48.2022C132.638 48.3685 132.877 48.5712 133.084 48.8043C133.205 48.9285 133.317 49.0622 133.417 49.2042C133.654 49.5467 133.836 49.9257 133.955 50.3266C134.168 51.0272 134.175 51.7756 133.974 52.4799Z" fill="white"/>
<defs>
<filter id="filter0_d" x="31" y="12.1349" width="87.9263" height="98.0551" filterUnits="userSpaceOnUse" color-interpolation-filters="sRGB">
<feFlood flood-opacity="0" result="BackgroundImageFix"/>
<feColorMatrix in="SourceAlpha" type="matrix" values="0 0 0 0 0 0 0 0 0 0 0 0 0 0 0 0 0 0 127 0"/>
<feOffset dy="3"/>
<feGaussianBlur stdDeviation="8"/>
<feColorMatrix type="matrix" values="0 0 0 0 0.44614 0 0 0 0 0.44614 0 0 0 0 0.44614 0 0 0 0.15 0"/>
<feBlend mode="normal" in2="BackgroundImageFix" result="effect1_dropShadow"/>
<feBlend mode="normal" in="SourceGraphic" in2="effect1_dropShadow" result="shape"/>
</filter>
<linearGradient id="paint0_linear" x1="143.82" y1="21.8447" x2="78.6113" y2="55.5773" gradientUnits="userSpaceOnUse">
<stop stop-color="white"/>
<stop offset="1" stop-opacity="0.05"/>
</linearGradient>
<linearGradient id="paint1_linear" x1="-863.716" y1="9919.14" x2="5196.31" y2="9386.45" gradientUnits="userSpaceOnUse">
<stop stop-color="white"/>
<stop offset="1" stop-opacity="0"/>
</linearGradient>
<linearGradient id="paint2_linear" x1="572.689" y1="1249.26" x2="1678.29" y2="773.924" gradientUnits="userSpaceOnUse">
<stop stop-color="#2F375C"/>
<stop offset="1" stop-opacity="0"/>
</linearGradient>
<linearGradient id="paint3_linear" x1="242.375" y1="101.337" x2="256.199" y2="97.8385" gradientUnits="userSpaceOnUse">
<stop stop-color="#4859A1"/>
<stop offset="1" stop-opacity="0"/>
</linearGradient>
<linearGradient id="paint4_linear" x1="246.515" y1="102.2" x2="260.626" y2="95.2994" gradientUnits="userSpaceOnUse">
<stop stop-color="#4859A1"/>
<stop offset="1" stop-opacity="0"/>
</linearGradient>
<linearGradient id="paint5_linear" x1="251.158" y1="97.3835" x2="265.274" y2="90.4666" gradientUnits="userSpaceOnUse">
<stop stop-color="#4859A1"/>
<stop offset="1" stop-opacity="0"/>
</linearGradient>
</defs>
</svg>
