<svg width="19" height="19" viewBox="0 0 19 19" fill="none" xmlns="http://www.w3.org/2000/svg">
<g clip-path="url(#clip0)">
<path d="M18.308 9.33777C18.0833 9.29375 17.855 9.33978 17.665 9.46743C17.5076 9.57318 17.3921 9.72449 17.3321 9.90096L16.3557 9.47457C16.3577 9.40775 16.3587 9.3419 16.3587 9.27776C16.3587 8.70368 16.2868 8.13365 16.145 7.58143L16.583 7.28433C16.8606 7.52748 17.2641 7.60017 17.6173 7.44671C18.0927 7.24016 18.3203 6.6901 18.1356 6.19443L17.9294 5.6411C17.7425 5.13938 17.2048 4.87504 16.7054 5.03894C16.4526 5.12194 16.2492 5.29901 16.1327 5.53751C16.0664 5.67315 16.033 5.81865 16.0329 5.96486L15.536 6.03425C15.4679 5.90946 15.3936 5.78299 15.3141 5.65702C15.232 5.52672 15.0597 5.48772 14.9295 5.56982C14.7992 5.65196 14.7601 5.82416 14.8423 5.95445C14.936 6.10315 15.0219 6.25214 15.0976 6.39738C15.1735 6.543 15.3337 6.62558 15.4958 6.60297L16.3919 6.47789C16.475 6.46629 16.5486 6.41783 16.592 6.346C16.6354 6.27416 16.6442 6.18655 16.6159 6.10754C16.5774 6.0003 16.5838 5.88484 16.6338 5.78244C16.6837 5.68033 16.7709 5.60451 16.8793 5.56889C17.0897 5.49988 17.3262 5.61965 17.4068 5.83591L17.6129 6.38924C17.6927 6.60338 17.595 6.84831 17.395 6.93525C17.2036 7.01839 16.9782 6.94711 16.8705 6.76948C16.8309 6.70415 16.7661 6.65793 16.6915 6.64164C16.6169 6.62532 16.5387 6.64045 16.4755 6.68333L15.7323 7.18743C15.5944 7.28091 15.5317 7.45184 15.5761 7.61278C15.7253 8.15295 15.8009 8.71316 15.8009 9.2778C15.8009 9.37031 15.7986 9.46699 15.7941 9.56519C15.7867 9.72515 15.8801 9.8756 16.0265 9.93952L17.4199 10.548C17.4974 10.5819 17.5861 10.5787 17.6609 10.5395C17.7358 10.5003 17.7889 10.4292 17.8052 10.3462L17.8493 10.1212C17.8647 10.0428 17.9097 9.97503 17.9761 9.93045C18.0424 9.88586 18.1221 9.86976 18.2006 9.8852C18.3625 9.91695 18.4684 10.0745 18.4366 10.2364L18.2081 11.4009C18.1922 11.482 18.1451 11.5511 18.0754 11.5956C18.0058 11.64 17.9231 11.6535 17.8424 11.6338C17.69 11.5963 17.592 11.433 17.624 11.2697L17.6301 11.2386C17.6465 11.1546 17.6235 11.0677 17.5676 11.0029C17.5117 10.938 17.4286 10.9022 17.3437 10.9064L15.8365 10.9751C15.6769 10.9824 15.5358 11.0894 15.4854 11.2416C15.3458 11.6631 15.1604 12.0705 14.9345 12.4522C14.8504 12.5943 14.8651 12.7745 14.9712 12.9006L15.638 13.6927C15.6875 13.7516 15.7592 13.7873 15.8359 13.7916C15.9127 13.7958 15.9879 13.7682 16.0436 13.7152C16.193 13.573 16.4202 13.5609 16.5838 13.6861C16.6724 13.7538 16.7292 13.852 16.744 13.9625C16.7587 14.073 16.7294 14.1826 16.6617 14.2711L16.4685 14.5237C16.3297 14.705 16.0704 14.7516 15.8906 14.6277C15.7377 14.5224 15.6724 14.326 15.7316 14.1503C15.7778 14.0134 15.7118 13.8639 15.5795 13.8058L14.619 13.3839C14.4662 13.3167 14.2879 13.3547 14.1752 13.4784C13.7469 13.9487 13.2523 14.3494 12.7052 14.6694C12.5669 14.7501 12.4915 14.9102 12.5173 15.0677L12.7632 16.5671C12.7769 16.6506 12.8277 16.7233 12.9013 16.7649C12.975 16.8065 13.0635 16.8123 13.142 16.7809L13.3548 16.6958C13.4315 16.6651 13.5152 16.6671 13.5904 16.7015C13.6655 16.7358 13.7218 16.7979 13.749 16.8764C13.8004 17.0248 13.7165 17.1958 13.5619 17.2576L12.4754 17.6922C12.3987 17.723 12.315 17.7209 12.2398 17.6866C12.1647 17.6523 12.1084 17.5902 12.0811 17.5117C12.0297 17.3634 12.1136 17.1923 12.2681 17.1306L12.2975 17.1188C12.377 17.087 12.4374 17.0205 12.4615 16.9383C12.4856 16.8562 12.4706 16.7676 12.4209 16.6979L11.5443 15.4696C11.4515 15.3396 11.285 15.2792 11.1302 15.3194C10.6191 15.4519 10.0907 15.5191 9.55974 15.5191C9.1393 15.5191 8.71782 15.4766 8.30708 15.3929C8.15028 15.3609 7.98734 15.4298 7.90133 15.5645L7.02391 16.9406C6.97843 17.0119 6.96779 17.1 6.99498 17.1801C7.02208 17.2602 7.08411 17.3236 7.16357 17.3526L7.19462 17.3639C7.30115 17.4027 7.38619 17.4807 7.43404 17.5836C7.4819 17.6863 7.48685 17.8016 7.44803 17.9082C7.43683 17.9388 7.43114 17.9711 7.43114 18.0037C7.43114 18.1092 7.40002 18.1891 7.3435 18.2286C7.28702 18.2682 7.20135 18.2701 7.10218 18.2339L6.02429 17.8409C5.80844 17.7622 5.69354 17.5215 5.76809 17.3043C5.80368 17.2008 5.88028 17.1166 5.9838 17.0673C6.09316 17.0151 6.22029 17.0086 6.33247 17.0495L6.35716 17.0585C6.43752 17.0879 6.52698 17.0786 6.59971 17.0335C6.67248 16.9884 6.72045 16.9123 6.72986 16.8272L6.90849 15.2145C6.92607 15.0558 6.84234 14.8999 6.70015 14.8265C6.04813 14.4897 5.46475 14.0443 4.96637 13.5028C4.85668 13.3835 4.68251 13.3446 4.53296 13.406L3.21758 13.9454C3.14458 13.9753 3.08769 14.0348 3.061 14.109C3.03426 14.1832 3.04025 14.2653 3.07739 14.3348C3.16087 14.491 3.11197 14.6823 2.96369 14.7798C2.81082 14.8804 2.59679 14.8334 2.48673 14.675L2.1498 14.19C2.04175 14.0344 2.06748 13.8256 2.20837 13.7146C2.28121 13.6572 2.37161 13.6321 2.46271 13.6438C2.55451 13.6556 2.63572 13.7027 2.69146 13.7764C2.74188 13.8431 2.8196 13.8837 2.90319 13.8869C2.98648 13.8901 3.06735 13.8557 3.12276 13.793L4.04923 12.7458C4.15796 12.6229 4.17744 12.4437 4.09768 12.2997C3.99807 12.12 3.9054 11.9308 3.82234 11.7373C3.7615 11.5958 3.59756 11.5303 3.456 11.5911C3.31448 11.6519 3.24903 11.8159 3.30979 11.9574C3.38427 12.1307 3.46582 12.301 3.5529 12.4651L2.88932 13.2152C2.7826 13.1497 2.6622 13.107 2.53395 13.0905C2.29274 13.0595 2.05469 13.1256 1.86315 13.2765C1.49098 13.5698 1.41572 14.1108 1.69181 14.5082L2.02873 14.9931C2.30988 15.3978 2.86675 15.5111 3.27023 15.2458C3.57198 15.0473 3.7174 14.7012 3.66665 14.364L4.6364 13.9663C5.13444 14.4892 5.70708 14.9263 6.34143 15.2677L6.20876 16.4657C6.04954 16.4611 5.88935 16.4942 5.74366 16.5637C5.5039 16.6781 5.32523 16.8767 5.2406 17.123C5.068 17.6257 5.33386 18.1827 5.83324 18.3648L6.91113 18.7578C7.01929 18.7973 7.12798 18.8168 7.23266 18.8168C7.39032 18.8168 7.53894 18.7725 7.66332 18.6855C7.85846 18.5489 7.97514 18.3201 7.98779 18.0525C8.06011 17.8193 8.04352 17.5709 7.93971 17.348C7.87319 17.2051 7.77558 17.0829 7.6548 16.9886L8.30965 15.9615C9.25003 16.1364 10.2306 16.1107 11.1573 15.8874L11.7937 16.779C11.5432 17.0057 11.4392 17.3624 11.5541 17.6942C11.6317 17.9182 11.793 18.0956 12.0081 18.1939C12.2203 18.2908 12.466 18.2966 12.6825 18.2101L13.7691 17.7754C14.2033 17.6017 14.426 17.1266 14.2761 16.6938C14.1985 16.4699 14.0372 16.2924 13.8221 16.1941C13.6456 16.1135 13.4457 16.0958 13.2588 16.1422L13.0864 15.0914C13.6084 14.7741 14.0848 14.3885 14.505 13.9431L15.1539 14.2281C15.1358 14.5614 15.2904 14.8914 15.5741 15.087C16.0021 15.3819 16.5895 15.2833 16.9115 14.8626L17.1047 14.6101C17.263 14.4033 17.3312 14.1471 17.2969 13.8889C17.2625 13.6307 17.1297 13.4013 16.9228 13.243C16.621 13.0121 16.227 12.981 15.9026 13.1409L15.4747 12.6325C15.6747 12.2804 15.8433 11.9094 15.9774 11.527L17.0712 11.4771C17.1255 11.8105 17.3684 12.0917 17.7095 12.1754C17.9396 12.2319 18.1762 12.1929 18.3756 12.0657C18.5721 11.9402 18.7106 11.737 18.7555 11.5082L18.984 10.3437C19.0749 9.88003 18.7717 9.42876 18.308 9.33777Z" fill="white"/>
<path d="M1.7968 10.0911L2.84211 10.3325C2.86487 10.4779 2.89302 10.6254 2.92611 10.7727C2.95523 10.9024 3.07035 10.9905 3.19796 10.9905C3.21819 10.9905 3.23875 10.9882 3.25932 10.9836C3.40958 10.9499 3.50406 10.8007 3.4703 10.6504C3.43189 10.4792 3.40069 10.3078 3.37764 10.1408C3.35566 9.98194 3.23615 9.85098 3.08031 9.81502L1.59984 9.47312C1.51755 9.45412 1.43084 9.47349 1.36446 9.52581C1.29805 9.57816 1.25897 9.65781 1.25823 9.74237L1.2567 9.91568C1.25496 10.1097 1.0957 10.2676 0.901634 10.2676C0.809233 10.2676 0.722483 10.2314 0.657448 10.1658C0.592376 10.1002 0.557014 10.0131 0.557832 9.92074L0.5675 8.84523C0.568355 8.74662 0.610262 8.65013 0.682436 8.58052C0.750259 8.51507 0.835968 8.47997 0.926511 8.48265C1.11488 8.48763 1.26734 8.64514 1.2663 8.83378C1.26581 8.91919 1.30452 9.00014 1.37134 9.05339C1.43816 9.10667 1.52577 9.12638 1.60883 9.10682L3.0789 8.76213C3.23463 8.72561 3.35361 8.59431 3.37507 8.43539C3.48354 7.63099 3.74453 6.8663 4.15076 6.16249C4.23272 6.02037 4.21658 5.84107 4.11042 5.71628L3.40939 4.89296C3.35458 4.82863 3.274 4.79249 3.189 4.79498C3.10448 4.79743 3.02562 4.83807 2.9746 4.90549L2.91384 4.9858C2.86844 5.04582 2.80225 5.08356 2.72744 5.09215C2.65288 5.1007 2.57959 5.07876 2.52148 5.03035C2.41164 4.93884 2.39684 4.76579 2.48849 4.6446L2.95545 4.0272C3.0461 3.90736 3.21737 3.88356 3.33722 3.97425C3.44944 4.05911 3.47818 4.21851 3.4027 4.33717C3.35889 4.40607 3.34748 4.49066 3.37146 4.56871C3.39545 4.64676 3.45241 4.71038 3.5273 4.74277L4.50758 5.16674C4.65955 5.23252 4.83695 5.19437 4.94903 5.07166C5.39531 4.5828 5.91261 4.16991 6.48673 3.84448C6.6258 3.76558 6.70333 3.60658 6.67968 3.4487L6.45386 1.94617C6.44129 1.86254 6.39143 1.78914 6.31836 1.7466C6.24522 1.70403 6.15672 1.69696 6.07793 1.72731L5.86401 1.80959C5.78689 1.83919 5.7033 1.83611 5.6286 1.80078C5.55393 1.76549 5.49846 1.70262 5.47232 1.62375C5.4229 1.47472 5.50905 1.3049 5.66444 1.24514L6.75676 0.825002C6.83388 0.795329 6.91747 0.79849 6.99217 0.833814C7.06683 0.869102 7.12235 0.93198 7.14849 1.01085C7.19787 1.15988 7.11172 1.3297 6.95632 1.38949L6.9268 1.40087C6.84693 1.43162 6.78558 1.49732 6.7604 1.57913C6.73527 1.66093 6.74902 1.74976 6.79785 1.82008L7.65776 3.05972C7.74871 3.19083 7.91422 3.25341 8.06961 3.21537C8.55426 3.09668 9.05558 3.03648 9.56024 3.03648H9.56039C9.72493 3.03648 9.87243 2.93277 9.92743 2.77857L10.2121 1.98187C10.2377 1.9104 10.233 1.83157 10.1991 1.76367C10.1653 1.69574 10.1052 1.6445 10.0328 1.62185C9.82543 1.557 9.69354 1.35338 9.71912 1.13772C9.73277 1.02297 9.79305 0.918519 9.88883 0.843594C9.98941 0.764912 10.1181 0.728732 10.2421 0.744387L10.6331 0.793618C10.8866 0.825522 11.0712 1.0497 11.0447 1.29333C11.0242 1.48141 10.8925 1.63394 10.7093 1.6819C10.575 1.71704 10.487 1.84555 10.5028 1.98343L10.6018 2.84676C10.6206 3.01153 10.7424 3.14621 10.9048 3.18194C11.5277 3.31878 12.1246 3.55069 12.6788 3.87114C12.8176 3.95146 12.9942 3.93763 13.1184 3.83686L14.2982 2.87919C14.3638 2.8259 14.4017 2.7457 14.4013 2.66114C14.4008 2.57662 14.362 2.49683 14.2958 2.44425L14.1163 2.30172C14.0516 2.25037 14.0119 2.17675 14.0043 2.09439C13.9969 2.01217 14.0228 1.93245 14.0775 1.86987C14.1808 1.75159 14.3708 1.73961 14.5013 1.8431L15.4179 2.57082C15.4826 2.62217 15.5223 2.6958 15.5299 2.77812C15.5373 2.86034 15.5114 2.94006 15.4567 3.00268C15.3534 3.12088 15.1632 3.13286 15.033 3.02949L15.0083 3.00985C14.9412 2.95657 14.8534 2.93708 14.7702 2.95694C14.6869 2.9768 14.6174 3.0338 14.5816 3.11155L13.9496 4.48334C13.8828 4.62843 13.9131 4.8029 14.0249 4.91746C14.0645 4.95806 14.1037 5.00008 14.1503 5.05069C14.2546 5.16403 14.431 5.17131 14.5444 5.06698C14.6577 4.96264 14.665 4.78624 14.5607 4.6729C14.5409 4.65145 14.5224 4.63137 14.5044 4.61214L14.9634 3.61584C15.2844 3.72085 15.6457 3.63417 15.8767 3.36968C16.0327 3.19116 16.1068 2.96311 16.0853 2.72755C16.0641 2.4953 15.9472 2.279 15.7646 2.13406L14.848 1.40637C14.4818 1.11563 13.9589 1.15798 13.6575 1.50301C13.5015 1.68153 13.4274 1.90958 13.4489 2.14514C13.4666 2.33842 13.5504 2.5207 13.6834 2.65995L12.8569 3.33094C12.317 3.0309 11.7413 2.80701 11.1424 2.66419L11.0812 2.12923C11.3646 1.97246 11.5634 1.68376 11.5994 1.35376C11.6586 0.809459 11.2565 0.309968 10.703 0.240248L10.312 0.191016C10.0418 0.15703 9.76229 0.234745 9.54548 0.404266C9.33174 0.571407 9.19676 0.808529 9.16549 1.07198C9.11998 1.45497 9.29668 1.82093 9.60356 2.0279L9.44207 2.47972C8.97214 2.48775 8.50507 2.54386 8.05035 2.6469L7.42625 1.7472C7.67966 1.52395 7.7885 1.16866 7.67803 0.835339C7.6034 0.610339 7.44455 0.430741 7.23074 0.329601C7.01991 0.229911 6.77427 0.220726 6.55663 0.304427L5.46436 0.724531C5.02786 0.892379 4.79884 1.36447 4.943 1.79926C5.01759 2.02426 5.17641 2.20385 5.39025 2.30499C5.56568 2.38795 5.76518 2.40829 5.95281 2.36445L6.11106 3.41742C5.5604 3.74208 5.05946 4.14166 4.61928 4.60727L3.98965 4.33497C4.04081 4.03687 3.92692 3.72085 3.67377 3.52935C3.49688 3.39556 3.27858 3.33856 3.05882 3.36916C2.83914 3.39961 2.64448 3.51384 2.51073 3.69073L2.04374 4.30813C1.77047 4.66933 1.82353 5.17481 2.16451 5.45886C2.34095 5.60584 2.56342 5.67244 2.79113 5.64626C2.9347 5.62979 3.07109 5.57554 3.18644 5.49139L3.60888 5.98761C3.21853 6.69176 2.95984 7.45031 2.83884 8.24553L1.75973 8.49856C1.62873 8.17164 1.31177 7.93486 0.941272 7.92508C0.700061 7.91902 0.471491 8.00897 0.295091 8.17916C0.116013 8.35199 0.0119728 8.5929 0.00970458 8.84017L3.67721e-05 9.91575C-0.00211989 10.1581 0.0906539 10.3864 0.261216 10.5585C0.431779 10.7306 0.659233 10.8254 0.901597 10.8254C1.34223 10.8254 1.71314 10.5088 1.7968 10.0911Z" fill="white"/>
<path d="M8.17914 8.56873C8.3152 8.49663 8.36707 8.32781 8.29493 8.19172C8.22283 8.0557 8.05409 8.00372 7.91789 8.07593C7.25144 8.42918 6.49181 8.33581 6.1119 7.85375C5.89873 7.58335 5.8254 7.22501 5.90542 6.84481C5.98931 6.44612 6.22922 6.07387 6.58094 5.79667C6.93259 5.51942 7.35061 5.37329 7.75781 5.3846C8.14619 5.39556 8.47747 5.55055 8.69068 5.82099C9.01076 6.22707 9.0067 6.83321 8.6803 7.3652C8.59976 7.49649 8.64085 7.66821 8.77219 7.74875C8.90344 7.82929 9.07516 7.78816 9.1557 7.6569C9.6057 6.92349 9.59506 6.06733 9.12867 5.4757C8.81138 5.07314 8.33011 4.84279 7.77357 4.8271C7.23575 4.81148 6.68974 5.00067 6.23565 5.35864C5.78149 5.71661 5.47041 6.20365 5.3596 6.72995C5.24492 7.27476 5.35655 7.79653 5.67384 8.19904C6.00794 8.62287 6.53108 8.84582 7.09389 8.84578C7.45246 8.84578 7.82708 8.75535 8.17914 8.56873Z" fill="white"/>
<path d="M13.5903 6.06771C13.5903 5.48953 13.0522 5.01916 12.3908 5.01916C11.7295 5.01916 11.1914 5.48953 11.1914 6.06771C11.1914 6.64588 11.7295 7.11626 12.3908 7.11626C13.0522 7.11626 13.5903 6.64588 13.5903 6.06771ZM11.7492 6.06771C11.7492 5.79708 12.037 5.57692 12.3909 5.57692C12.7447 5.57692 13.0325 5.79708 13.0325 6.06771C13.0325 6.33833 12.7447 6.5585 12.3909 6.5585C12.037 6.5585 11.7492 6.33833 11.7492 6.06771Z" fill="white"/>
<path d="M10.354 10.8607C10.354 10.1522 9.77759 9.57571 9.06901 9.57571C8.3604 9.57571 7.78394 10.1522 7.78394 10.8607C7.78394 11.5693 8.3604 12.1458 9.06901 12.1458C9.77759 12.1458 10.354 11.5693 10.354 10.8607ZM8.34173 10.8607C8.34173 10.4597 8.66798 10.1335 9.06905 10.1335C9.47004 10.1335 9.79633 10.4597 9.79633 10.8607C9.79633 11.2618 9.47008 11.588 9.06905 11.588C8.66798 11.588 8.34173 11.2618 8.34173 10.8607Z" fill="white"/>
<path d="M13.9898 10.3366C13.9898 9.78554 13.5415 9.33725 12.9905 9.33725C12.4395 9.33725 11.9912 9.78554 11.9912 10.3366C11.9912 10.8876 12.4395 11.3359 12.9905 11.3359C13.5415 11.3358 13.9898 10.8876 13.9898 10.3366ZM12.5489 10.3366C12.5489 10.0931 12.747 9.89501 12.9905 9.89501C13.2339 9.89501 13.432 10.0931 13.432 10.3366C13.432 10.58 13.2339 10.7781 12.9905 10.7781C12.747 10.7781 12.5489 10.58 12.5489 10.3366Z" fill="white"/>
<path d="M10.3299 14.8315C10.8698 14.8315 11.3092 14.3922 11.3092 13.8522C11.3092 13.3123 10.8699 12.873 10.3299 12.873C9.78991 12.873 9.35059 13.3122 9.35059 13.8522C9.35059 14.3922 9.78988 14.8315 10.3299 14.8315ZM10.3299 13.4307C10.5623 13.4307 10.7514 13.6198 10.7514 13.8522C10.7514 14.0847 10.5623 14.2737 10.3299 14.2737C10.0975 14.2737 9.90834 14.0847 9.90834 13.8522C9.90834 13.6198 10.0975 13.4307 10.3299 13.4307Z" fill="white"/>
<path d="M5.94722 13.1853C6.50331 13.1853 6.95572 12.7329 6.95572 12.1768C6.95572 11.6208 6.50331 11.1683 5.94722 11.1683C5.39114 11.1683 4.93872 11.6208 4.93872 12.1768C4.93872 12.7329 5.39114 13.1853 5.94722 13.1853ZM5.94722 11.7261C6.1958 11.7261 6.39797 11.9283 6.39797 12.1768C6.39797 12.4254 6.19576 12.6276 5.94722 12.6276C5.69869 12.6276 5.49648 12.4254 5.49648 12.1768C5.49648 11.9283 5.69869 11.7261 5.94722 11.7261Z" fill="white"/>
<path d="M11.6261 8.68665C11.6261 8.53263 11.5012 8.40777 11.3472 8.40777H11.1007C10.9466 8.40777 10.8218 8.53263 10.8218 8.68665C10.8218 8.84066 10.9466 8.96552 11.1007 8.96552H11.3472C11.5012 8.96552 11.6261 8.84066 11.6261 8.68665Z" fill="white"/>
<path d="M7.80964 13.8403H8.06294C8.21699 13.8403 8.34182 13.7155 8.34182 13.5615C8.34182 13.4074 8.21699 13.2826 8.06294 13.2826H7.80964C7.65559 13.2826 7.53076 13.4074 7.53076 13.5615C7.53076 13.7155 7.65563 13.8403 7.80964 13.8403Z" fill="white"/>
<path d="M5.4616 9.77903C5.61565 9.77903 5.74048 9.65417 5.74048 9.50015C5.74048 9.34614 5.61565 9.22128 5.4616 9.22128H5.2176C5.06355 9.22128 4.93872 9.34614 4.93872 9.50015C4.93872 9.65417 5.06355 9.77903 5.2176 9.77903H5.4616Z" fill="white"/>
<path d="M10.4148 4.89988C10.5689 4.89988 10.6937 4.77501 10.6937 4.621C10.6937 4.46698 10.5689 4.34212 10.4148 4.34212H10.0753C9.92121 4.34212 9.79639 4.46698 9.79639 4.621C9.79639 4.77501 9.92121 4.89988 10.0753 4.89988H10.4148Z" fill="white"/>
<path d="M12.2698 12.3747C12.1158 12.3747 11.991 12.4996 11.991 12.6536C11.991 12.8076 12.1158 12.9325 12.2698 12.9325H12.6448C12.7989 12.9325 12.9237 12.8076 12.9237 12.6536C12.9237 12.4996 12.7989 12.3747 12.6448 12.3747H12.2698Z" fill="white"/>
</g>
<defs>
<clipPath id="clip0">
<rect width="19" height="19" fill="white"/>
</clipPath>
</defs>
</svg>
